<svg width="67" height="11" viewBox="0 0 67 11" fill="none" xmlns="http://www.w3.org/2000/svg">
<path d="M1.9139 8.284H5.3849V10H0.119902V0.899999H1.9139V8.284ZM7.61613 7.439C7.84146 8.25367 8.45246 8.661 9.44913 8.661C10.0905 8.661 10.5758 8.44433 10.9051 8.011L12.2571 8.791C11.6158 9.71833 10.6711 10.182 9.42313 10.182C8.34846 10.182 7.48613 9.857 6.83613 9.207C6.18613 8.557 5.86113 7.738 5.86113 6.75C5.86113 5.77067 6.1818 4.956 6.82313 4.306C7.46446 3.64733 8.2878 3.318 9.29313 3.318C10.2465 3.318 11.0308 3.64733 11.6461 4.306C12.2701 4.96467 12.5821 5.77933 12.5821 6.75C12.5821 6.96667 12.5605 7.19633 12.5171 7.439H7.61613ZM7.59013 6.139H10.9051C10.8098 5.697 10.6105 5.36767 10.3071 5.151C10.0125 4.93433 9.67446 4.826 9.29313 4.826C8.84246 4.826 8.4698 4.943 8.17513 5.177C7.88046 5.40233 7.68546 5.723 7.59013 6.139ZM18.6421 3.5H20.3191V10H18.6421V9.233C18.1394 9.86567 17.4331 10.182 16.5231 10.182C15.6564 10.182 14.9111 9.85267 14.2871 9.194C13.6717 8.52667 13.3641 7.712 13.3641 6.75C13.3641 5.788 13.6717 4.97767 14.2871 4.319C14.9111 3.65167 15.6564 3.318 16.5231 3.318C17.4331 3.318 18.1394 3.63433 18.6421 4.267V3.5ZM15.5481 8.076C15.8861 8.414 16.3151 8.583 16.8351 8.583C17.3551 8.583 17.7841 8.414 18.1221 8.076C18.4687 7.72933 18.6421 7.28733 18.6421 6.75C18.6421 6.21267 18.4687 5.775 18.1221 5.437C17.7841 5.09033 17.3551 4.917 16.8351 4.917C16.3151 4.917 15.8861 5.09033 15.5481 5.437C15.2101 5.775 15.0411 6.21267 15.0411 6.75C15.0411 7.28733 15.2101 7.72933 15.5481 8.076ZM23.5168 4.618C23.6728 4.202 23.9284 3.89 24.2838 3.682C24.6478 3.474 25.0508 3.37 25.4928 3.37V5.242C24.9814 5.18133 24.5221 5.28533 24.1148 5.554C23.7161 5.82267 23.5168 6.269 23.5168 6.893V10H21.8398V3.5H23.5168V4.618ZM30.0875 3.318C30.7982 3.318 31.3832 3.55633 31.8425 4.033C32.3105 4.50967 32.5445 5.16833 32.5445 6.009V10H30.8675V6.217C30.8675 5.78367 30.7505 5.45433 30.5165 5.229C30.2825 4.995 29.9705 4.878 29.5805 4.878C29.1472 4.878 28.8005 5.01233 28.5405 5.281C28.2805 5.54967 28.1505 5.95267 28.1505 6.49V10H26.4735V3.5H28.1505V4.228C28.5579 3.62133 29.2035 3.318 30.0875 3.318ZM46.2095 0.899999V10H44.4285V4.098L41.8675 8.323H41.6595L39.0985 4.111V10H37.3045V0.899999H39.1505L41.7635 5.203L44.3635 0.899999H46.2095ZM53.3651 9.194C52.6977 9.85267 51.8831 10.182 50.9211 10.182C49.9591 10.182 49.1444 9.85267 48.4771 9.194C47.8184 8.52667 47.4891 7.712 47.4891 6.75C47.4891 5.788 47.8184 4.97767 48.4771 4.319C49.1444 3.65167 49.9591 3.318 50.9211 3.318C51.8831 3.318 52.6977 3.65167 53.3651 4.319C54.0324 4.97767 54.3661 5.788 54.3661 6.75C54.3661 7.712 54.0324 8.52667 53.3651 9.194ZM49.6601 8.037C49.9981 8.375 50.4184 8.544 50.9211 8.544C51.4237 8.544 51.8441 8.375 52.1821 8.037C52.5201 7.699 52.6891 7.27 52.6891 6.75C52.6891 6.23 52.5201 5.801 52.1821 5.463C51.8441 5.125 51.4237 4.956 50.9211 4.956C50.4184 4.956 49.9981 5.125 49.6601 5.463C49.3307 5.801 49.1661 6.23 49.1661 6.75C49.1661 7.27 49.3307 7.699 49.6601 8.037ZM57.2228 4.618C57.3788 4.202 57.6345 3.89 57.9898 3.682C58.3538 3.474 58.7568 3.37 59.1988 3.37V5.242C58.6875 5.18133 58.2281 5.28533 57.8208 5.554C57.4221 5.82267 57.2228 6.269 57.2228 6.893V10H55.5458V3.5H57.2228V4.618ZM61.3554 7.439C61.5807 8.25367 62.1917 8.661 63.1884 8.661C63.8297 8.661 64.3151 8.44433 64.6444 8.011L65.9964 8.791C65.3551 9.71833 64.4104 10.182 63.1624 10.182C62.0877 10.182 61.2254 9.857 60.5754 9.207C59.9254 8.557 59.6004 7.738 59.6004 6.75C59.6004 5.77067 59.9211 4.956 60.5624 4.306C61.2037 3.64733 62.0271 3.318 63.0324 3.318C63.9857 3.318 64.7701 3.64733 65.3854 4.306C66.0094 4.96467 66.3214 5.77933 66.3214 6.75C66.3214 6.96667 66.2997 7.19633 66.2564 7.439H61.3554ZM61.3294 6.139H64.6444C64.5491 5.697 64.3497 5.36767 64.0464 5.151C63.7517 4.93433 63.4137 4.826 63.0324 4.826C62.5817 4.826 62.2091 4.943 61.9144 5.177C61.6197 5.40233 61.4247 5.723 61.3294 6.139Z" fill="white"/>
</svg>
