<svg width="159" height="42" viewBox="0 0 159 42" fill="none" xmlns="http://www.w3.org/2000/svg">
<path d="M7.37251 10.696V12H0.868511V0.535999H2.41251V10.696H7.37251ZM13.0894 10.768C13.5641 10.768 13.9881 10.688 14.3614 10.528C14.7347 10.368 15.0494 10.144 15.3054 9.856C15.5667 9.568 15.7641 9.224 15.8974 8.824C16.0361 8.424 16.1054 7.984 16.1054 7.504V0.535999H17.6494V7.504C17.6494 8.16533 17.5427 8.77867 17.3294 9.344C17.1214 9.90933 16.8201 10.4 16.4254 10.816C16.0361 11.2267 15.5587 11.5493 14.9934 11.784C14.4281 12.0187 13.7934 12.136 13.0894 12.136C12.3854 12.136 11.7507 12.0187 11.1854 11.784C10.6201 11.5493 10.1401 11.2267 9.74539 10.816C9.35072 10.4 9.04672 9.90933 8.83339 9.344C8.62539 8.77867 8.52139 8.16533 8.52139 7.504V0.535999H10.0654V7.496C10.0654 7.976 10.1321 8.416 10.2654 8.816C10.4041 9.216 10.6014 9.56 10.8574 9.848C11.1187 10.136 11.4361 10.3627 11.8094 10.528C12.1881 10.688 12.6147 10.768 13.0894 10.768ZM29.175 12H27.639C27.5217 12 27.4283 11.9707 27.359 11.912C27.295 11.848 27.2417 11.7787 27.199 11.704L24.127 6.888C24.0843 7.016 24.0363 7.12533 23.983 7.216L20.991 11.704C20.9377 11.7787 20.879 11.848 20.815 11.912C20.7563 11.9707 20.6737 12 20.567 12H19.127L23.071 6.112L19.287 0.535999H20.831C20.943 0.535999 21.0257 0.554666 21.079 0.591999C21.1323 0.629333 21.1803 0.682666 21.223 0.752L24.215 5.344C24.2523 5.232 24.3083 5.10933 24.383 4.976L27.207 0.783999C27.2497 0.709333 27.3003 0.650667 27.359 0.608C27.4177 0.559999 27.487 0.535999 27.567 0.535999H29.047L25.247 6.04L29.175 12ZM32.3736 12H30.8216V0.535999H32.3736V12ZM38.482 6.088C38.93 6.088 39.3247 6.03467 39.666 5.928C40.0127 5.816 40.3007 5.66133 40.53 5.464C40.7647 5.26133 40.9407 5.02133 41.058 4.744C41.1753 4.46667 41.234 4.16 41.234 3.824C41.234 3.14133 41.01 2.62667 40.562 2.28C40.114 1.93333 39.442 1.76 38.546 1.76H36.85V6.088H38.482ZM43.778 12H42.402C42.1193 12 41.9113 11.8907 41.778 11.672L38.802 7.576C38.7113 7.448 38.6127 7.35733 38.506 7.304C38.4047 7.24533 38.2447 7.216 38.026 7.216H36.85V12H35.306V0.535999H38.546C39.2713 0.535999 39.898 0.610666 40.426 0.759999C40.954 0.904 41.3887 1.11467 41.73 1.392C42.0767 1.66933 42.3327 2.00533 42.498 2.4C42.6633 2.78933 42.746 3.22667 42.746 3.712C42.746 4.11733 42.682 4.496 42.554 4.848C42.426 5.2 42.2393 5.51733 41.994 5.8C41.754 6.07733 41.458 6.31467 41.106 6.512C40.7593 6.70933 40.3647 6.85867 39.922 6.96C40.1193 7.072 40.29 7.23467 40.434 7.448L43.778 12ZM55.8199 6.272C55.8199 7.13067 55.6839 7.92 55.4119 8.64C55.1399 9.35467 54.7559 9.97067 54.2599 10.488C53.7639 11.0053 53.1666 11.408 52.4679 11.696C51.7746 11.9787 51.0066 12.12 50.1639 12.12C49.3212 12.12 48.5532 11.9787 47.8599 11.696C47.1666 11.408 46.5719 11.0053 46.0759 10.488C45.5799 9.97067 45.1959 9.35467 44.9239 8.64C44.6519 7.92 44.5159 7.13067 44.5159 6.272C44.5159 5.41333 44.6519 4.62667 44.9239 3.912C45.1959 3.192 45.5799 2.57333 46.0759 2.056C46.5719 1.53333 47.1666 1.128 47.8599 0.839999C48.5532 0.551999 49.3212 0.407999 50.1639 0.407999C51.0066 0.407999 51.7746 0.551999 52.4679 0.839999C53.1666 1.128 53.7639 1.53333 54.2599 2.056C54.7559 2.57333 55.1399 3.192 55.4119 3.912C55.6839 4.62667 55.8199 5.41333 55.8199 6.272ZM54.2279 6.272C54.2279 5.568 54.1319 4.936 53.9399 4.376C53.7479 3.816 53.4759 3.344 53.1239 2.96C52.7719 2.57067 52.3452 2.272 51.8439 2.064C51.3426 1.856 50.7826 1.752 50.1639 1.752C49.5506 1.752 48.9932 1.856 48.4919 2.064C47.9906 2.272 47.5612 2.57067 47.2039 2.96C46.8519 3.344 46.5799 3.816 46.3879 4.376C46.1959 4.936 46.0999 5.568 46.0999 6.272C46.0999 6.976 46.1959 7.608 46.3879 8.168C46.5799 8.72267 46.8519 9.19467 47.2039 9.584C47.5612 9.968 47.9906 10.264 48.4919 10.472C48.9932 10.6747 49.5506 10.776 50.1639 10.776C50.7826 10.776 51.3426 10.6747 51.8439 10.472C52.3452 10.264 52.7719 9.968 53.1239 9.584C53.4759 9.19467 53.7479 8.72267 53.9399 8.168C54.1319 7.608 54.2279 6.976 54.2279 6.272ZM62.4644 10.768C62.9391 10.768 63.3631 10.688 63.7364 10.528C64.1097 10.368 64.4244 10.144 64.6804 9.856C64.9417 9.568 65.1391 9.224 65.2724 8.824C65.4111 8.424 65.4804 7.984 65.4804 7.504V0.535999H67.0244V7.504C67.0244 8.16533 66.9177 8.77867 66.7044 9.344C66.4964 9.90933 66.1951 10.4 65.8004 10.816C65.4111 11.2267 64.9337 11.5493 64.3684 11.784C63.8031 12.0187 63.1684 12.136 62.4644 12.136C61.7604 12.136 61.1257 12.0187 60.5604 11.784C59.9951 11.5493 59.5151 11.2267 59.1204 10.816C58.7257 10.4 58.4217 9.90933 58.2084 9.344C58.0004 8.77867 57.8964 8.16533 57.8964 7.504V0.535999H59.4404V7.496C59.4404 7.976 59.5071 8.416 59.6404 8.816C59.7791 9.216 59.9764 9.56 60.2324 9.848C60.4937 10.136 60.8111 10.3627 61.1844 10.528C61.5631 10.688 61.9897 10.768 62.4644 10.768ZM75.67 2.328C75.622 2.408 75.5687 2.46933 75.51 2.512C75.4567 2.54933 75.39 2.568 75.31 2.568C75.2193 2.568 75.1127 2.52267 74.99 2.432C74.8673 2.34133 74.7127 2.24267 74.526 2.136C74.3447 2.024 74.1233 1.92267 73.862 1.832C73.606 1.74133 73.294 1.696 72.926 1.696C72.5793 1.696 72.2727 1.744 72.006 1.84C71.7447 1.93067 71.5233 2.056 71.342 2.216C71.166 2.376 71.0327 2.56533 70.942 2.784C70.8513 2.99733 70.806 3.22933 70.806 3.48C70.806 3.8 70.8833 4.06667 71.038 4.28C71.198 4.488 71.406 4.66667 71.662 4.816C71.9233 4.96533 72.2167 5.096 72.542 5.208C72.8727 5.31467 73.2087 5.42667 73.55 5.544C73.8967 5.66133 74.2327 5.79467 74.558 5.944C74.8887 6.088 75.182 6.272 75.438 6.496C75.6993 6.72 75.9073 6.99467 76.062 7.32C76.222 7.64533 76.302 8.04533 76.302 8.52C76.302 9.02133 76.2167 9.49333 76.046 9.936C75.8753 10.3733 75.6247 10.7547 75.294 11.08C74.9687 11.4053 74.566 11.6613 74.086 11.848C73.6113 12.0347 73.07 12.128 72.462 12.128C71.7153 12.128 71.038 11.9947 70.43 11.728C69.822 11.456 69.302 11.0907 68.87 10.632L69.318 9.896C69.3607 9.83733 69.4113 9.78933 69.47 9.752C69.534 9.70933 69.6033 9.688 69.678 9.688C69.7473 9.688 69.8247 9.71733 69.91 9.776C70.0007 9.82933 70.102 9.89867 70.214 9.984C70.326 10.0693 70.454 10.1627 70.598 10.264C70.742 10.3653 70.9047 10.4587 71.086 10.544C71.2727 10.6293 71.4833 10.7013 71.718 10.76C71.9527 10.8133 72.2167 10.84 72.51 10.84C72.878 10.84 73.206 10.7893 73.494 10.688C73.782 10.5867 74.0247 10.4453 74.222 10.264C74.4247 10.0773 74.5793 9.856 74.686 9.6C74.7927 9.344 74.846 9.05867 74.846 8.744C74.846 8.39733 74.766 8.11467 74.606 7.896C74.4513 7.672 74.246 7.48533 73.99 7.336C73.734 7.18667 73.4407 7.06133 73.11 6.96C72.7793 6.85333 72.4433 6.74667 72.102 6.64C71.7607 6.528 71.4247 6.4 71.094 6.256C70.7633 6.112 70.47 5.92533 70.214 5.696C69.958 5.46667 69.75 5.18133 69.59 4.84C69.4353 4.49333 69.358 4.06667 69.358 3.56C69.358 3.15467 69.4353 2.76267 69.59 2.384C69.75 2.00533 69.9793 1.66933 70.278 1.376C70.582 1.08267 70.9527 0.848 71.39 0.672C71.8327 0.495999 72.3393 0.407999 72.91 0.407999C73.55 0.407999 74.1313 0.509333 74.654 0.712C75.182 0.914666 75.646 1.208 76.046 1.592L75.67 2.328ZM84.9873 6.352C84.4219 6.65067 83.9953 7.01333 83.7073 7.44C83.4246 7.86667 83.2833 8.33067 83.2833 8.832C83.2833 9.17867 83.3473 9.48533 83.4753 9.752C83.6033 10.0133 83.7713 10.2347 83.9793 10.416C84.1873 10.5973 84.4246 10.736 84.6913 10.832C84.9579 10.9227 85.2299 10.968 85.5073 10.968C86.1046 10.968 86.6406 10.8587 87.1153 10.64C87.5953 10.4213 88.0139 10.128 88.3713 9.76L84.9873 6.352ZM92.3793 12H90.9953C90.8406 12 90.7153 11.9813 90.6193 11.944C90.5233 11.9067 90.4193 11.8293 90.3073 11.712L89.1473 10.544C88.6459 11.0293 88.0673 11.416 87.4113 11.704C86.7606 11.9867 86.0433 12.128 85.2593 12.128C84.8326 12.128 84.4139 12.056 84.0033 11.912C83.5979 11.768 83.2326 11.56 82.9073 11.288C82.5819 11.0107 82.3206 10.6747 82.1233 10.28C81.9259 9.88533 81.8273 9.44 81.8273 8.944C81.8273 8.57067 81.8886 8.21867 82.0113 7.888C82.1393 7.552 82.3153 7.24267 82.5393 6.96C82.7633 6.67733 83.0273 6.424 83.3313 6.2C83.6353 5.976 83.9686 5.784 84.3313 5.624C84.0059 5.208 83.7659 4.808 83.6113 4.424C83.4566 4.03467 83.3793 3.632 83.3793 3.216C83.3793 2.82667 83.4486 2.46133 83.5873 2.12C83.7313 1.77867 83.9366 1.48267 84.2033 1.232C84.4699 0.976 84.7926 0.775999 85.1713 0.631999C85.5553 0.482666 85.9846 0.407999 86.4593 0.407999C86.8806 0.407999 87.2646 0.477332 87.6113 0.615999C87.9579 0.749332 88.2566 0.927999 88.5073 1.152C88.7579 1.376 88.9553 1.63733 89.0993 1.936C89.2486 2.22933 89.3339 2.536 89.3553 2.856L88.4673 3.032C88.2913 3.07467 88.1606 2.992 88.0753 2.784C88.0379 2.64533 87.9766 2.50133 87.8913 2.352C87.8113 2.20267 87.7046 2.06667 87.5713 1.944C87.4433 1.82133 87.2859 1.72 87.0993 1.64C86.9179 1.56 86.7046 1.52 86.4593 1.52C86.1926 1.52 85.9499 1.56267 85.7313 1.648C85.5179 1.73333 85.3339 1.85333 85.1793 2.008C85.0299 2.15733 84.9153 2.336 84.8353 2.544C84.7553 2.74667 84.7153 2.968 84.7153 3.208C84.7153 3.39467 84.7366 3.57333 84.7793 3.744C84.8219 3.91467 84.8886 4.088 84.9793 4.264C85.0753 4.44 85.1953 4.61867 85.3393 4.8C85.4833 4.98133 85.6566 5.17333 85.8593 5.376L89.1553 8.728C89.3579 8.36533 89.5206 7.98933 89.6433 7.6C89.7659 7.20533 89.8459 6.81333 89.8833 6.424C89.8939 6.32267 89.9259 6.24267 89.9793 6.184C90.0326 6.12533 90.1073 6.096 90.2033 6.096H91.0753C91.0699 6.70933 90.9739 7.312 90.7873 7.904C90.6006 8.49067 90.3313 9.04267 89.9793 9.56L92.3793 12ZM105.339 1.84H101.627V12H100.083V1.84H96.3633V0.535999H105.339V1.84ZM110.216 6.088C110.664 6.088 111.059 6.03467 111.4 5.928C111.747 5.816 112.035 5.66133 112.264 5.464C112.499 5.26133 112.675 5.02133 112.792 4.744C112.91 4.46667 112.968 4.16 112.968 3.824C112.968 3.14133 112.744 2.62667 112.296 2.28C111.848 1.93333 111.176 1.76 110.28 1.76H108.584V6.088H110.216ZM115.512 12H114.136C113.854 12 113.646 11.8907 113.512 11.672L110.536 7.576C110.446 7.448 110.347 7.35733 110.24 7.304C110.139 7.24533 109.979 7.216 109.76 7.216H108.584V12H107.04V0.535999H110.28C111.006 0.535999 111.632 0.610666 112.16 0.759999C112.688 0.904 113.123 1.11467 113.464 1.392C113.811 1.66933 114.067 2.00533 114.232 2.4C114.398 2.78933 114.48 3.22667 114.48 3.712C114.48 4.11733 114.416 4.496 114.288 4.848C114.16 5.2 113.974 5.51733 113.728 5.8C113.488 6.07733 113.192 6.31467 112.84 6.512C112.494 6.70933 112.099 6.85867 111.656 6.96C111.854 7.072 112.024 7.23467 112.168 7.448L115.512 12ZM124.144 10.736L124.136 12H117.072V0.535999H124.136V1.8H118.624V5.608H123.088V6.824H118.624V10.736H124.144ZM135.594 0.535999V12H134.818C134.695 12 134.591 11.9787 134.506 11.936C134.426 11.8933 134.346 11.8213 134.266 11.72L127.634 3.08C127.645 3.21333 127.653 3.344 127.658 3.472C127.663 3.6 127.666 3.72 127.666 3.832V12H126.306V0.535999H127.106C127.175 0.535999 127.234 0.541333 127.282 0.551999C127.33 0.557333 127.373 0.570666 127.41 0.591999C127.447 0.607999 127.485 0.634666 127.522 0.672C127.559 0.704 127.599 0.746666 127.642 0.799999L134.274 9.432C134.263 9.29333 134.253 9.16 134.242 9.032C134.237 8.89867 134.234 8.77333 134.234 8.656V0.535999H135.594ZM148.461 6.272C148.461 7.13067 148.325 7.912 148.053 8.616C147.781 9.32 147.397 9.92267 146.901 10.424C146.405 10.9253 145.807 11.3147 145.109 11.592C144.415 11.864 143.647 12 142.805 12H138.525V0.535999H142.805C143.647 0.535999 144.415 0.674666 145.109 0.952C145.807 1.224 146.405 1.61333 146.901 2.12C147.397 2.62133 147.781 3.224 148.053 3.928C148.325 4.632 148.461 5.41333 148.461 6.272ZM146.869 6.272C146.869 5.568 146.773 4.93867 146.581 4.384C146.389 3.82933 146.117 3.36 145.765 2.976C145.413 2.592 144.986 2.29867 144.485 2.096C143.983 1.89333 143.423 1.792 142.805 1.792H140.077V10.744H142.805C143.423 10.744 143.983 10.6427 144.485 10.44C144.986 10.2373 145.413 9.94667 145.765 9.568C146.117 9.184 146.389 8.71467 146.581 8.16C146.773 7.60533 146.869 6.976 146.869 6.272ZM154.376 7.432V12H152.824V7.432L148.624 0.535999H149.984C150.122 0.535999 150.232 0.570666 150.312 0.639999C150.392 0.703999 150.461 0.789333 150.52 0.896L153.144 5.352C153.24 5.53867 153.328 5.71467 153.408 5.88C153.488 6.04 153.557 6.20267 153.616 6.368C153.674 6.20267 153.741 6.04 153.816 5.88C153.89 5.71467 153.973 5.53867 154.064 5.352L156.68 0.896C156.728 0.805333 156.794 0.722666 156.88 0.648C156.965 0.573333 157.074 0.535999 157.208 0.535999H158.576L154.376 7.432Z" fill="white"/>
<path d="M18.4029 34.448L16.2909 28.676C16.1869 28.42 16.0789 28.116 15.9669 27.764C15.8549 27.412 15.7429 27.032 15.6309 26.624C15.5269 27.032 15.4189 27.416 15.3069 27.776C15.1949 28.128 15.0869 28.436 14.9829 28.7L12.8829 34.448H18.4029ZM24.1029 41H21.6069C21.3269 41 21.0989 40.932 20.9229 40.796C20.7469 40.652 20.6149 40.476 20.5269 40.268L19.2309 36.728H12.0429L10.7469 40.268C10.6829 40.452 10.5589 40.62 10.3749 40.772C10.1909 40.924 9.96295 41 9.69095 41H7.17095L13.9989 23.648H17.2869L24.1029 41ZM37.2994 36.908C37.4754 36.908 37.6314 36.976 37.7674 37.112L39.0394 38.492C38.3354 39.364 37.4674 40.032 36.4354 40.496C35.4114 40.96 34.1794 41.192 32.7394 41.192C31.4514 41.192 30.2914 40.972 29.2594 40.532C28.2354 40.092 27.3594 39.48 26.6314 38.696C25.9034 37.912 25.3434 36.976 24.9514 35.888C24.5674 34.8 24.3754 33.612 24.3754 32.324C24.3754 31.02 24.5834 29.828 24.9994 28.748C25.4154 27.66 25.9994 26.724 26.7514 25.94C27.5114 25.156 28.4154 24.548 29.4634 24.116C30.5114 23.676 31.6714 23.456 32.9434 23.456C34.2074 23.456 35.3274 23.664 36.3034 24.08C37.2874 24.496 38.1234 25.04 38.8114 25.712L37.7314 27.212C37.6674 27.308 37.5834 27.392 37.4794 27.464C37.3834 27.536 37.2474 27.572 37.0714 27.572C36.9514 27.572 36.8274 27.54 36.6994 27.476C36.5714 27.404 36.4314 27.32 36.2794 27.224C36.1274 27.12 35.9514 27.008 35.7514 26.888C35.5514 26.768 35.3194 26.66 35.0554 26.564C34.7914 26.46 34.4834 26.376 34.1314 26.312C33.7874 26.24 33.3874 26.204 32.9314 26.204C32.1554 26.204 31.4434 26.344 30.7954 26.624C30.1554 26.896 29.6034 27.296 29.1394 27.824C28.6754 28.344 28.3154 28.984 28.0594 29.744C27.8034 30.496 27.6754 31.356 27.6754 32.324C27.6754 33.3 27.8114 34.168 28.0834 34.928C28.3634 35.688 28.7394 36.328 29.2114 36.848C29.6834 37.368 30.2394 37.768 30.8794 38.048C31.5194 38.32 32.2074 38.456 32.9434 38.456C33.3834 38.456 33.7794 38.432 34.1314 38.384C34.4914 38.336 34.8194 38.26 35.1154 38.156C35.4194 38.052 35.7034 37.92 35.9674 37.76C36.2394 37.592 36.5074 37.388 36.7714 37.148C36.8514 37.076 36.9354 37.02 37.0234 36.98C37.1114 36.932 37.2034 36.908 37.2994 36.908ZM52.7916 36.908C52.9676 36.908 53.1236 36.976 53.2596 37.112L54.5316 38.492C53.8276 39.364 52.9596 40.032 51.9276 40.496C50.9036 40.96 49.6716 41.192 48.2316 41.192C46.9436 41.192 45.7836 40.972 44.7516 40.532C43.7276 40.092 42.8516 39.48 42.1236 38.696C41.3956 37.912 40.8356 36.976 40.4436 35.888C40.0596 34.8 39.8676 33.612 39.8676 32.324C39.8676 31.02 40.0756 29.828 40.4916 28.748C40.9076 27.66 41.4916 26.724 42.2436 25.94C43.0036 25.156 43.9076 24.548 44.9556 24.116C46.0036 23.676 47.1636 23.456 48.4356 23.456C49.6996 23.456 50.8196 23.664 51.7956 24.08C52.7796 24.496 53.6156 25.04 54.3036 25.712L53.2236 27.212C53.1596 27.308 53.0756 27.392 52.9716 27.464C52.8756 27.536 52.7396 27.572 52.5636 27.572C52.4436 27.572 52.3196 27.54 52.1916 27.476C52.0636 27.404 51.9236 27.32 51.7716 27.224C51.6196 27.12 51.4436 27.008 51.2436 26.888C51.0436 26.768 50.8116 26.66 50.5476 26.564C50.2836 26.46 49.9756 26.376 49.6236 26.312C49.2796 26.24 48.8796 26.204 48.4236 26.204C47.6476 26.204 46.9356 26.344 46.2876 26.624C45.6476 26.896 45.0956 27.296 44.6316 27.824C44.1676 28.344 43.8076 28.984 43.5516 29.744C43.2956 30.496 43.1676 31.356 43.1676 32.324C43.1676 33.3 43.3036 34.168 43.5756 34.928C43.8556 35.688 44.2316 36.328 44.7036 36.848C45.1756 37.368 45.7316 37.768 46.3716 38.048C47.0116 38.32 47.6996 38.456 48.4356 38.456C48.8756 38.456 49.2716 38.432 49.6236 38.384C49.9836 38.336 50.3116 38.26 50.6076 38.156C50.9116 38.052 51.1956 37.92 51.4596 37.76C51.7316 37.592 51.9996 37.388 52.2636 37.148C52.3436 37.076 52.4276 37.02 52.5156 36.98C52.6036 36.932 52.6956 36.908 52.7916 36.908ZM59.9828 26.216V31.028H66.0548V33.512H59.9828V38.42H67.6868V41H56.7428V23.648H67.6868V26.216H59.9828ZM79.7874 26.804C79.6914 26.972 79.5874 27.096 79.4754 27.176C79.3714 27.248 79.2394 27.284 79.0794 27.284C78.9114 27.284 78.7274 27.224 78.5274 27.104C78.3354 26.976 78.1034 26.836 77.8314 26.684C77.5594 26.532 77.2394 26.396 76.8714 26.276C76.5114 26.148 76.0834 26.084 75.5874 26.084C75.1394 26.084 74.7474 26.14 74.4114 26.252C74.0754 26.356 73.7914 26.504 73.5594 26.696C73.3354 26.888 73.1674 27.12 73.0554 27.392C72.9434 27.656 72.8874 27.948 72.8874 28.268C72.8874 28.676 72.9994 29.016 73.2234 29.288C73.4554 29.56 73.7594 29.792 74.1354 29.984C74.5114 30.176 74.9394 30.348 75.4194 30.5C75.8994 30.652 76.3914 30.816 76.8954 30.992C77.3994 31.16 77.8914 31.36 78.3714 31.592C78.8514 31.816 79.2794 32.104 79.6554 32.456C80.0314 32.8 80.3314 33.224 80.5554 33.728C80.7874 34.232 80.9034 34.844 80.9034 35.564C80.9034 36.348 80.7674 37.084 80.4954 37.772C80.2314 38.452 79.8394 39.048 79.3194 39.56C78.8074 40.064 78.1794 40.464 77.4354 40.76C76.6914 41.048 75.8394 41.192 74.8794 41.192C74.3274 41.192 73.7834 41.136 73.2474 41.024C72.7114 40.92 72.1954 40.768 71.6994 40.568C71.2114 40.368 70.7514 40.128 70.3194 39.848C69.8874 39.568 69.5034 39.256 69.1674 38.912L70.1154 37.364C70.1954 37.252 70.2994 37.16 70.4274 37.088C70.5554 37.008 70.6914 36.968 70.8354 36.968C71.0354 36.968 71.2514 37.052 71.4834 37.22C71.7154 37.38 71.9914 37.56 72.3114 37.76C72.6314 37.96 73.0034 38.144 73.4274 38.312C73.8594 38.472 74.3754 38.552 74.9754 38.552C75.8954 38.552 76.6074 38.336 77.1114 37.904C77.6154 37.464 77.8674 36.836 77.8674 36.02C77.8674 35.564 77.7514 35.192 77.5194 34.904C77.2954 34.616 76.9954 34.376 76.6194 34.184C76.2434 33.984 75.8154 33.816 75.3354 33.68C74.8554 33.544 74.3674 33.396 73.8714 33.236C73.3754 33.076 72.8874 32.884 72.4074 32.66C71.9274 32.436 71.4994 32.144 71.1234 31.784C70.7474 31.424 70.4434 30.976 70.2114 30.44C69.9874 29.896 69.8754 29.228 69.8754 28.436C69.8754 27.804 69.9994 27.188 70.2474 26.588C70.5034 25.988 70.8714 25.456 71.3514 24.992C71.8314 24.528 72.4234 24.156 73.1274 23.876C73.8314 23.596 74.6394 23.456 75.5514 23.456C76.5754 23.456 77.5194 23.616 78.3834 23.936C79.2474 24.256 79.9834 24.704 80.5914 25.28L79.7874 26.804ZM100.267 32.324C100.267 33.596 100.055 34.776 99.6313 35.864C99.2153 36.944 98.6233 37.88 97.8553 38.672C97.0873 39.464 96.1633 40.084 95.0833 40.532C94.0033 40.972 92.8033 41.192 91.4833 41.192C90.1713 41.192 88.9753 40.972 87.8953 40.532C86.8153 40.084 85.8873 39.464 85.1113 38.672C84.3433 37.88 83.7473 36.944 83.3233 35.864C82.8993 34.776 82.6873 33.596 82.6873 32.324C82.6873 31.052 82.8993 29.876 83.3233 28.796C83.7473 27.708 84.3433 26.768 85.1113 25.976C85.8873 25.184 86.8153 24.568 87.8953 24.128C88.9753 23.68 90.1713 23.456 91.4833 23.456C92.3633 23.456 93.1913 23.56 93.9673 23.768C94.7433 23.968 95.4553 24.256 96.1033 24.632C96.7513 25 97.3313 25.452 97.8433 25.988C98.3633 26.516 98.8033 27.108 99.1633 27.764C99.5233 28.42 99.7953 29.132 99.9793 29.9C100.171 30.668 100.267 31.476 100.267 32.324ZM96.9673 32.324C96.9673 31.372 96.8393 30.52 96.5833 29.768C96.3273 29.008 95.9633 28.364 95.4913 27.836C95.0193 27.308 94.4433 26.904 93.7633 26.624C93.0913 26.344 92.3313 26.204 91.4833 26.204C90.6353 26.204 89.8713 26.344 89.1913 26.624C88.5193 26.904 87.9433 27.308 87.4633 27.836C86.9913 28.364 86.6273 29.008 86.3713 29.768C86.1153 30.52 85.9873 31.372 85.9873 32.324C85.9873 33.276 86.1153 34.132 86.3713 34.892C86.6273 35.644 86.9913 36.284 87.4633 36.812C87.9433 37.332 88.5193 37.732 89.1913 38.012C89.8713 38.292 90.6353 38.432 91.4833 38.432C92.3313 38.432 93.0913 38.292 93.7633 38.012C94.4433 37.732 95.0193 37.332 95.4913 36.812C95.9633 36.284 96.3273 35.644 96.5833 34.892C96.8393 34.132 96.9673 33.276 96.9673 32.324ZM108.346 31.904C108.954 31.904 109.482 31.828 109.93 31.676C110.386 31.524 110.758 31.316 111.046 31.052C111.342 30.78 111.562 30.46 111.706 30.092C111.85 29.724 111.922 29.32 111.922 28.88C111.922 28 111.63 27.324 111.046 26.852C110.47 26.38 109.586 26.144 108.394 26.144H106.33V31.904H108.346ZM116.65 41H113.734C113.182 41 112.782 40.784 112.534 40.352L108.886 34.796C108.75 34.588 108.598 34.44 108.43 34.352C108.27 34.264 108.03 34.22 107.71 34.22H106.33V41H103.102V23.648H108.394C109.57 23.648 110.578 23.772 111.418 24.02C112.266 24.26 112.958 24.6 113.494 25.04C114.038 25.48 114.438 26.008 114.694 26.624C114.95 27.232 115.078 27.904 115.078 28.64C115.078 29.224 114.99 29.776 114.814 30.296C114.646 30.816 114.398 31.288 114.07 31.712C113.75 32.136 113.35 32.508 112.87 32.828C112.398 33.148 111.858 33.4 111.25 33.584C111.458 33.704 111.65 33.848 111.826 34.016C112.002 34.176 112.162 34.368 112.306 34.592L116.65 41ZM121.764 41H118.524V23.648H121.764V41ZM128.889 26.216V31.028H134.961V33.512H128.889V38.42H136.593V41H125.649V23.648H136.593V26.216H128.889ZM148.694 26.804C148.598 26.972 148.494 27.096 148.382 27.176C148.278 27.248 148.146 27.284 147.986 27.284C147.818 27.284 147.634 27.224 147.434 27.104C147.242 26.976 147.01 26.836 146.738 26.684C146.466 26.532 146.146 26.396 145.778 26.276C145.418 26.148 144.99 26.084 144.494 26.084C144.046 26.084 143.654 26.14 143.318 26.252C142.982 26.356 142.698 26.504 142.466 26.696C142.242 26.888 142.074 27.12 141.962 27.392C141.85 27.656 141.794 27.948 141.794 28.268C141.794 28.676 141.906 29.016 142.13 29.288C142.362 29.56 142.666 29.792 143.042 29.984C143.418 30.176 143.846 30.348 144.326 30.5C144.806 30.652 145.298 30.816 145.802 30.992C146.306 31.16 146.798 31.36 147.278 31.592C147.758 31.816 148.186 32.104 148.562 32.456C148.938 32.8 149.238 33.224 149.462 33.728C149.694 34.232 149.81 34.844 149.81 35.564C149.81 36.348 149.674 37.084 149.402 37.772C149.138 38.452 148.746 39.048 148.226 39.56C147.714 40.064 147.086 40.464 146.342 40.76C145.598 41.048 144.746 41.192 143.786 41.192C143.234 41.192 142.69 41.136 142.154 41.024C141.618 40.92 141.102 40.768 140.606 40.568C140.118 40.368 139.658 40.128 139.226 39.848C138.794 39.568 138.41 39.256 138.074 38.912L139.022 37.364C139.102 37.252 139.206 37.16 139.334 37.088C139.462 37.008 139.598 36.968 139.742 36.968C139.942 36.968 140.158 37.052 140.39 37.22C140.622 37.38 140.898 37.56 141.218 37.76C141.538 37.96 141.91 38.144 142.334 38.312C142.766 38.472 143.282 38.552 143.882 38.552C144.802 38.552 145.514 38.336 146.018 37.904C146.522 37.464 146.774 36.836 146.774 36.02C146.774 35.564 146.658 35.192 146.426 34.904C146.202 34.616 145.902 34.376 145.526 34.184C145.15 33.984 144.722 33.816 144.242 33.68C143.762 33.544 143.274 33.396 142.778 33.236C142.282 33.076 141.794 32.884 141.314 32.66C140.834 32.436 140.406 32.144 140.03 31.784C139.654 31.424 139.35 30.976 139.118 30.44C138.894 29.896 138.782 29.228 138.782 28.436C138.782 27.804 138.906 27.188 139.154 26.588C139.41 25.988 139.778 25.456 140.258 24.992C140.738 24.528 141.33 24.156 142.034 23.876C142.738 23.596 143.546 23.456 144.458 23.456C145.482 23.456 146.426 23.616 147.29 23.936C148.154 24.256 148.89 24.704 149.498 25.28L148.694 26.804Z" fill="#F16D7F"/>
</svg>
