<svg width="113" height="42" viewBox="0 0 113 42" fill="none" xmlns="http://www.w3.org/2000/svg">
<path d="M10.0333 0.535999V12H9.25725C9.13458 12 9.03058 11.9787 8.94525 11.936C8.86525 11.8933 8.78525 11.8213 8.70525 11.72L2.07325 3.08C2.08392 3.21333 2.09192 3.344 2.09725 3.472C2.10258 3.6 2.10525 3.72 2.10525 3.832V12H0.74525V0.535999H1.54525C1.61458 0.535999 1.67325 0.541333 1.72125 0.551999C1.76925 0.557333 1.81192 0.570666 1.84925 0.591999C1.88658 0.607999 1.92392 0.634666 1.96125 0.672C1.99858 0.704 2.03858 0.746666 2.08125 0.799999L8.71325 9.432C8.70258 9.29333 8.69192 9.16 8.68125 9.032C8.67592 8.89867 8.67325 8.77333 8.67325 8.656V0.535999H10.0333ZM20.036 10.736L20.028 12H12.964V0.535999H20.028V1.8H14.516V5.608H18.98V6.824H14.516V10.736H20.036ZM37.0544 0.535999L33.4784 12H32.0864L29.1824 3.256C29.1557 3.17067 29.129 3.08 29.1024 2.984C29.081 2.888 29.057 2.78667 29.0304 2.68C29.0037 2.78667 28.977 2.888 28.9504 2.984C28.9237 3.08 28.897 3.17067 28.8704 3.256L25.9504 12H24.5584L20.9824 0.535999H22.2704C22.409 0.535999 22.5237 0.570666 22.6144 0.639999C22.7104 0.709333 22.7717 0.797333 22.7984 0.903999L25.1664 8.872C25.2037 9.016 25.2384 9.17067 25.2704 9.336C25.3077 9.50133 25.3424 9.67733 25.3744 9.864C25.4117 9.67733 25.449 9.50133 25.4864 9.336C25.529 9.16533 25.5744 9.01067 25.6224 8.872L28.3184 0.903999C28.3504 0.813333 28.4117 0.730666 28.5024 0.655999C28.5984 0.575999 28.713 0.535999 28.8464 0.535999H29.2944C29.433 0.535999 29.545 0.570666 29.6304 0.639999C29.7157 0.709333 29.7797 0.797333 29.8224 0.903999L32.5104 8.872C32.5584 9.01067 32.601 9.16 32.6384 9.32C32.681 9.48 32.721 9.648 32.7584 9.824C32.785 9.648 32.8144 9.48 32.8464 9.32C32.8784 9.16 32.913 9.01067 32.9504 8.872L35.3264 0.903999C35.353 0.807999 35.4117 0.722666 35.5024 0.648C35.5984 0.573333 35.713 0.535999 35.8464 0.535999H37.0544ZM48.1926 7.744L46.3926 3.08C46.3393 2.94133 46.2833 2.78133 46.2246 2.6C46.166 2.41333 46.11 2.216 46.0566 2.008C45.9446 2.44 45.83 2.8 45.7126 3.088L43.9126 7.744H48.1926ZM51.4246 12H50.2246C50.086 12 49.974 11.9653 49.8886 11.896C49.8033 11.8267 49.7393 11.7387 49.6966 11.632L48.6246 8.864H43.4806L42.4086 11.632C42.3766 11.728 42.3153 11.8133 42.2246 11.888C42.134 11.9627 42.022 12 41.8886 12H40.6886L45.2726 0.535999H46.8406L51.4246 12ZM56.1088 6.088C56.5568 6.088 56.9514 6.03467 57.2928 5.928C57.6394 5.816 57.9274 5.66133 58.1568 5.464C58.3914 5.26133 58.5674 5.02133 58.6848 4.744C58.8021 4.46667 58.8608 4.16 58.8608 3.824C58.8608 3.14133 58.6368 2.62667 58.1888 2.28C57.7408 1.93333 57.0688 1.76 56.1727 1.76H54.4768V6.088H56.1088ZM61.4048 12H60.0288C59.7461 12 59.5381 11.8907 59.4048 11.672L56.4288 7.576C56.3381 7.448 56.2394 7.35733 56.1328 7.304C56.0314 7.24533 55.8714 7.216 55.6528 7.216H54.4768V12H52.9328V0.535999H56.1727C56.8981 0.535999 57.5248 0.610666 58.0528 0.759999C58.5808 0.904 59.0154 1.11467 59.3568 1.392C59.7034 1.66933 59.9594 2.00533 60.1248 2.4C60.2901 2.78933 60.3728 3.22667 60.3728 3.712C60.3728 4.11733 60.3088 4.496 60.1808 4.848C60.0528 5.2 59.8661 5.51733 59.6208 5.8C59.3808 6.07733 59.0848 6.31467 58.7328 6.512C58.3861 6.70933 57.9914 6.85867 57.5488 6.96C57.7461 7.072 57.9168 7.23467 58.0608 7.448L61.4048 12ZM66.14 6.088C66.588 6.088 66.9827 6.03467 67.324 5.928C67.6707 5.816 67.9587 5.66133 68.188 5.464C68.4227 5.26133 68.5987 5.02133 68.716 4.744C68.8333 4.46667 68.892 4.16 68.892 3.824C68.892 3.14133 68.668 2.62667 68.22 2.28C67.772 1.93333 67.1 1.76 66.204 1.76H64.508V6.088H66.14ZM71.436 12H70.06C69.7773 12 69.5693 11.8907 69.436 11.672L66.46 7.576C66.3693 7.448 66.2707 7.35733 66.164 7.304C66.0627 7.24533 65.9027 7.216 65.684 7.216H64.508V12H62.964V0.535999H66.204C66.9293 0.535999 67.556 0.610666 68.084 0.759999C68.612 0.904 69.0467 1.11467 69.388 1.392C69.7347 1.66933 69.9907 2.00533 70.156 2.4C70.3213 2.78933 70.404 3.22667 70.404 3.712C70.404 4.11733 70.34 4.496 70.212 4.848C70.084 5.2 69.8973 5.51733 69.652 5.8C69.412 6.07733 69.116 6.31467 68.764 6.512C68.4173 6.70933 68.0227 6.85867 67.58 6.96C67.7773 7.072 67.948 7.23467 68.092 7.448L71.436 12ZM74.5473 12H72.9953V0.535999H74.5473V12ZM86.7996 0.535999L82.1276 12H80.7356L76.0636 0.535999H77.3036C77.4423 0.535999 77.5543 0.570666 77.6396 0.639999C77.725 0.709333 77.789 0.797333 77.8316 0.903999L81.0636 8.992C81.133 9.17333 81.1996 9.37067 81.2636 9.584C81.333 9.79733 81.3943 10.0213 81.4476 10.256C81.501 10.0213 81.557 9.79733 81.6156 9.584C81.6743 9.37067 81.7383 9.17333 81.8076 8.992L85.0316 0.903999C85.0636 0.813333 85.125 0.730666 85.2156 0.655999C85.3116 0.575999 85.4263 0.535999 85.5596 0.535999H86.7996ZM93.5364 7.744L91.7364 3.08C91.683 2.94133 91.627 2.78133 91.5684 2.6C91.5097 2.41333 91.4537 2.216 91.4004 2.008C91.2884 2.44 91.1737 2.8 91.0564 3.088L89.2564 7.744H93.5364ZM96.7684 12H95.5684C95.4297 12 95.3177 11.9653 95.2324 11.896C95.147 11.8267 95.083 11.7387 95.0404 11.632L93.9684 8.864H88.8244L87.7524 11.632C87.7204 11.728 87.659 11.8133 87.5684 11.888C87.4777 11.9627 87.3657 12 87.2324 12H86.0324L90.6164 0.535999H92.1844L96.7684 12ZM104.781 10.696V12H98.2765V0.535999H99.8205V10.696H104.781ZM112.359 2.328C112.311 2.408 112.258 2.46933 112.199 2.512C112.146 2.54933 112.079 2.568 111.999 2.568C111.909 2.568 111.802 2.52267 111.679 2.432C111.557 2.34133 111.402 2.24267 111.215 2.136C111.034 2.024 110.813 1.92267 110.551 1.832C110.295 1.74133 109.983 1.696 109.615 1.696C109.269 1.696 108.962 1.744 108.695 1.84C108.434 1.93067 108.213 2.056 108.031 2.216C107.855 2.376 107.722 2.56533 107.631 2.784C107.541 2.99733 107.495 3.22933 107.495 3.48C107.495 3.8 107.573 4.06667 107.727 4.28C107.887 4.488 108.095 4.66667 108.351 4.816C108.613 4.96533 108.906 5.096 109.231 5.208C109.562 5.31467 109.898 5.42667 110.239 5.544C110.586 5.66133 110.922 5.79467 111.247 5.944C111.578 6.088 111.871 6.272 112.127 6.496C112.389 6.72 112.597 6.99467 112.751 7.32C112.911 7.64533 112.991 8.04533 112.991 8.52C112.991 9.02133 112.906 9.49333 112.735 9.936C112.565 10.3733 112.314 10.7547 111.983 11.08C111.658 11.4053 111.255 11.6613 110.775 11.848C110.301 12.0347 109.759 12.128 109.151 12.128C108.405 12.128 107.727 11.9947 107.119 11.728C106.511 11.456 105.991 11.0907 105.559 10.632L106.007 9.896C106.05 9.83733 106.101 9.78933 106.159 9.752C106.223 9.70933 106.293 9.688 106.367 9.688C106.437 9.688 106.514 9.71733 106.599 9.776C106.69 9.82933 106.791 9.89867 106.903 9.984C107.015 10.0693 107.143 10.1627 107.287 10.264C107.431 10.3653 107.594 10.4587 107.775 10.544C107.962 10.6293 108.173 10.7013 108.407 10.76C108.642 10.8133 108.906 10.84 109.199 10.84C109.567 10.84 109.895 10.7893 110.183 10.688C110.471 10.5867 110.714 10.4453 110.911 10.264C111.114 10.0773 111.269 9.856 111.375 9.6C111.482 9.344 111.535 9.05867 111.535 8.744C111.535 8.39733 111.455 8.11467 111.295 7.896C111.141 7.672 110.935 7.48533 110.679 7.336C110.423 7.18667 110.13 7.06133 109.799 6.96C109.469 6.85333 109.133 6.74667 108.791 6.64C108.45 6.528 108.114 6.4 107.783 6.256C107.453 6.112 107.159 5.92533 106.903 5.696C106.647 5.46667 106.439 5.18133 106.279 4.84C106.125 4.49333 106.047 4.06667 106.047 3.56C106.047 3.15467 106.125 2.76267 106.279 2.384C106.439 2.00533 106.669 1.66933 106.967 1.376C107.271 1.08267 107.642 0.848 108.079 0.672C108.522 0.495999 109.029 0.407999 109.599 0.407999C110.239 0.407999 110.821 0.509333 111.343 0.712C111.871 0.914666 112.335 1.208 112.735 1.592L112.359 2.328Z" fill="white"/>
<path d="M7.13294 26.216V31.352H13.6369V33.932H7.13294V41H3.89294V23.648H14.8369V26.216H7.13294ZM33.8706 32.324C33.8706 33.596 33.6586 34.776 33.2346 35.864C32.8186 36.944 32.2266 37.88 31.4586 38.672C30.6906 39.464 29.7666 40.084 28.6866 40.532C27.6066 40.972 26.4066 41.192 25.0866 41.192C23.7746 41.192 22.5786 40.972 21.4986 40.532C20.4186 40.084 19.4906 39.464 18.7146 38.672C17.9466 37.88 17.3506 36.944 16.9266 35.864C16.5026 34.776 16.2906 33.596 16.2906 32.324C16.2906 31.052 16.5026 29.876 16.9266 28.796C17.3506 27.708 17.9466 26.768 18.7146 25.976C19.4906 25.184 20.4186 24.568 21.4986 24.128C22.5786 23.68 23.7746 23.456 25.0866 23.456C25.9666 23.456 26.7946 23.56 27.5706 23.768C28.3466 23.968 29.0586 24.256 29.7066 24.632C30.3546 25 30.9346 25.452 31.4466 25.988C31.9666 26.516 32.4066 27.108 32.7666 27.764C33.1266 28.42 33.3986 29.132 33.5826 29.9C33.7746 30.668 33.8706 31.476 33.8706 32.324ZM30.5706 32.324C30.5706 31.372 30.4426 30.52 30.1866 29.768C29.9306 29.008 29.5666 28.364 29.0946 27.836C28.6226 27.308 28.0466 26.904 27.3666 26.624C26.6946 26.344 25.9346 26.204 25.0866 26.204C24.2386 26.204 23.4746 26.344 22.7946 26.624C22.1226 26.904 21.5466 27.308 21.0666 27.836C20.5946 28.364 20.2306 29.008 19.9746 29.768C19.7186 30.52 19.5906 31.372 19.5906 32.324C19.5906 33.276 19.7186 34.132 19.9746 34.892C20.2306 35.644 20.5946 36.284 21.0666 36.812C21.5466 37.332 22.1226 37.732 22.7946 38.012C23.4746 38.292 24.2386 38.432 25.0866 38.432C25.9346 38.432 26.6946 38.292 27.3666 38.012C28.0466 37.732 28.6226 37.332 29.0946 36.812C29.5666 36.284 29.9306 35.644 30.1866 34.892C30.4426 34.132 30.5706 33.276 30.5706 32.324ZM41.9494 31.904C42.5574 31.904 43.0854 31.828 43.5334 31.676C43.9894 31.524 44.3614 31.316 44.6494 31.052C44.9454 30.78 45.1654 30.46 45.3094 30.092C45.4534 29.724 45.5254 29.32 45.5254 28.88C45.5254 28 45.2334 27.324 44.6494 26.852C44.0734 26.38 43.1894 26.144 41.9974 26.144H39.9334V31.904H41.9494ZM50.2534 41H47.3374C46.7854 41 46.3854 40.784 46.1374 40.352L42.4894 34.796C42.3534 34.588 42.2014 34.44 42.0334 34.352C41.8734 34.264 41.6334 34.22 41.3134 34.22H39.9334V41H36.7054V23.648H41.9974C43.1734 23.648 44.1814 23.772 45.0214 24.02C45.8694 24.26 46.5614 24.6 47.0974 25.04C47.6414 25.48 48.0414 26.008 48.2974 26.624C48.5534 27.232 48.6814 27.904 48.6814 28.64C48.6814 29.224 48.5934 29.776 48.4174 30.296C48.2494 30.816 48.0014 31.288 47.6734 31.712C47.3534 32.136 46.9534 32.508 46.4734 32.828C46.0014 33.148 45.4614 33.4 44.8534 33.584C45.0614 33.704 45.2534 33.848 45.4294 34.016C45.6054 34.176 45.7654 34.368 45.9094 34.592L50.2534 41ZM61.1913 30.92H61.9473C62.2513 30.92 62.5033 30.88 62.7033 30.8C62.9033 30.712 63.0753 30.576 63.2193 30.392L68.0073 24.332C68.2073 24.076 68.4153 23.9 68.6313 23.804C68.8553 23.7 69.1353 23.648 69.4713 23.648H72.2553L66.4113 30.86C66.0673 31.3 65.7113 31.612 65.3433 31.796C65.6073 31.892 65.8433 32.028 66.0513 32.204C66.2673 32.372 66.4713 32.596 66.6633 32.876L72.6873 41H69.8433C69.4593 41 69.1713 40.948 68.9792 40.844C68.7952 40.732 68.6393 40.572 68.5113 40.364L63.6033 33.956C63.4513 33.74 63.2753 33.588 63.0753 33.5C62.8753 33.412 62.5873 33.368 62.2113 33.368H61.1913V41H57.9633V23.648H61.1913V30.92ZM77.6564 41H74.4164V23.648H77.6564V41ZM96.9494 32.324C96.9494 33.596 96.7374 34.764 96.3134 35.828C95.8894 36.892 95.2934 37.808 94.5254 38.576C93.7574 39.344 92.8334 39.94 91.7534 40.364C90.6734 40.788 89.4734 41 88.1534 41H81.5414V23.648H88.1534C89.4734 23.648 90.6734 23.864 91.7534 24.296C92.8334 24.72 93.7574 25.316 94.5254 26.084C95.2934 26.844 95.8894 27.756 96.3134 28.82C96.7374 29.884 96.9494 31.052 96.9494 32.324ZM93.6374 32.324C93.6374 31.372 93.5094 30.52 93.2534 29.768C93.0054 29.008 92.6414 28.368 92.1614 27.848C91.6894 27.32 91.1134 26.916 90.4334 26.636C89.7614 26.356 89.0014 26.216 88.1534 26.216H84.7814V38.432H88.1534C89.0014 38.432 89.7614 38.292 90.4334 38.012C91.1134 37.732 91.6894 37.332 92.1614 36.812C92.6414 36.284 93.0054 35.644 93.2534 34.892C93.5094 34.132 93.6374 33.276 93.6374 32.324ZM109.039 26.804C108.943 26.972 108.839 27.096 108.727 27.176C108.623 27.248 108.491 27.284 108.331 27.284C108.163 27.284 107.979 27.224 107.779 27.104C107.587 26.976 107.355 26.836 107.083 26.684C106.811 26.532 106.491 26.396 106.123 26.276C105.763 26.148 105.335 26.084 104.839 26.084C104.391 26.084 103.999 26.14 103.663 26.252C103.327 26.356 103.043 26.504 102.811 26.696C102.587 26.888 102.419 27.12 102.307 27.392C102.195 27.656 102.139 27.948 102.139 28.268C102.139 28.676 102.251 29.016 102.475 29.288C102.707 29.56 103.011 29.792 103.387 29.984C103.763 30.176 104.191 30.348 104.671 30.5C105.151 30.652 105.643 30.816 106.147 30.992C106.651 31.16 107.143 31.36 107.623 31.592C108.103 31.816 108.531 32.104 108.907 32.456C109.283 32.8 109.583 33.224 109.807 33.728C110.039 34.232 110.155 34.844 110.155 35.564C110.155 36.348 110.019 37.084 109.747 37.772C109.483 38.452 109.091 39.048 108.571 39.56C108.059 40.064 107.431 40.464 106.687 40.76C105.943 41.048 105.091 41.192 104.131 41.192C103.579 41.192 103.035 41.136 102.499 41.024C101.963 40.92 101.447 40.768 100.951 40.568C100.463 40.368 100.003 40.128 99.5712 39.848C99.1392 39.568 98.7552 39.256 98.4192 38.912L99.3672 37.364C99.4472 37.252 99.5512 37.16 99.6792 37.088C99.8072 37.008 99.9432 36.968 100.087 36.968C100.287 36.968 100.503 37.052 100.735 37.22C100.967 37.38 101.243 37.56 101.563 37.76C101.883 37.96 102.255 38.144 102.679 38.312C103.111 38.472 103.627 38.552 104.227 38.552C105.147 38.552 105.859 38.336 106.363 37.904C106.867 37.464 107.119 36.836 107.119 36.02C107.119 35.564 107.003 35.192 106.771 34.904C106.547 34.616 106.247 34.376 105.871 34.184C105.495 33.984 105.067 33.816 104.587 33.68C104.107 33.544 103.619 33.396 103.123 33.236C102.627 33.076 102.139 32.884 101.659 32.66C101.179 32.436 100.751 32.144 100.375 31.784C99.9992 31.424 99.6952 30.976 99.4632 30.44C99.2392 29.896 99.1272 29.228 99.1272 28.436C99.1272 27.804 99.2512 27.188 99.4992 26.588C99.7552 25.988 100.123 25.456 100.603 24.992C101.083 24.528 101.675 24.156 102.379 23.876C103.083 23.596 103.891 23.456 104.803 23.456C105.827 23.456 106.771 23.616 107.635 23.936C108.499 24.256 109.235 24.704 109.843 25.28L109.039 26.804Z" fill="#F16D7F"/>
</svg>
