<svg width="150" height="42" viewBox="0 0 150 42" fill="none" xmlns="http://www.w3.org/2000/svg">
<path d="M42.8447 3.64C42.9194 3.11733 43.0634 2.656 43.2767 2.256C43.49 1.85067 43.7594 1.512 44.0847 1.24C44.4154 0.968 44.7914 0.762666 45.2127 0.624C45.6394 0.479999 46.098 0.407999 46.5887 0.407999C47.074 0.407999 47.522 0.477332 47.9327 0.615999C48.3434 0.754666 48.6954 0.951999 48.9887 1.208C49.2874 1.464 49.5194 1.77333 49.6847 2.136C49.85 2.49867 49.9327 2.90133 49.9327 3.344C49.9327 3.70667 49.8847 4.032 49.7887 4.32C49.698 4.60267 49.5647 4.85067 49.3887 5.064C49.218 5.27733 49.01 5.45867 48.7647 5.608C48.5194 5.75733 48.2447 5.88 47.9407 5.976C48.6874 6.168 49.2474 6.49867 49.6207 6.968C49.9994 7.432 50.1887 8.01333 50.1887 8.712C50.1887 9.24 50.0874 9.71467 49.8847 10.136C49.6874 10.5573 49.4154 10.9173 49.0687 11.216C48.722 11.5093 48.3167 11.736 47.8527 11.896C47.394 12.0507 46.9007 12.128 46.3727 12.128C45.7647 12.128 45.2447 12.0533 44.8127 11.904C44.3807 11.7493 44.0154 11.5387 43.7167 11.272C43.418 11.0053 43.1727 10.6907 42.9807 10.328C42.7887 9.96 42.626 9.56267 42.4927 9.136L43.1087 8.88C43.2687 8.81067 43.4234 8.792 43.5727 8.824C43.7274 8.856 43.8394 8.944 43.9087 9.088C43.978 9.23733 44.0634 9.416 44.1647 9.624C44.2714 9.832 44.4154 10.032 44.5967 10.224C44.778 10.416 45.0074 10.5787 45.2847 10.712C45.5674 10.8453 45.9247 10.912 46.3567 10.912C46.7567 10.912 47.106 10.848 47.4047 10.72C47.7087 10.5867 47.9594 10.416 48.1567 10.208C48.3594 10 48.5114 9.768 48.6127 9.512C48.714 9.256 48.7647 9.00267 48.7647 8.752C48.7647 8.44267 48.7247 8.16 48.6447 7.904C48.5647 7.648 48.4154 7.42667 48.1967 7.24C47.978 7.05333 47.6767 6.90667 47.2927 6.8C46.914 6.69333 46.426 6.64 45.8287 6.64V5.608C46.3194 5.60267 46.7354 5.54933 47.0767 5.448C47.4234 5.34667 47.7034 5.208 47.9167 5.032C48.1354 4.856 48.2927 4.64533 48.3887 4.4C48.49 4.15467 48.5407 3.88267 48.5407 3.584C48.5407 3.25333 48.4874 2.96533 48.3807 2.72C48.2794 2.47467 48.138 2.272 47.9567 2.112C47.7754 1.952 47.5594 1.832 47.3087 1.752C47.0634 1.672 46.7967 1.632 46.5087 1.632C46.2207 1.632 45.9514 1.67467 45.7007 1.76C45.4554 1.84533 45.2367 1.96533 45.0447 2.12C44.858 2.26933 44.7007 2.448 44.5727 2.656C44.4447 2.864 44.354 3.09333 44.3007 3.344C44.2314 3.53067 44.1434 3.656 44.0367 3.72C43.9354 3.77867 43.786 3.79467 43.5887 3.768L42.8447 3.64ZM59.8859 6.272C59.8859 7.27467 59.7766 8.144 59.5579 8.88C59.3446 9.61067 59.0513 10.216 58.6779 10.696C58.3046 11.176 57.8619 11.5333 57.3499 11.768C56.8433 12.0027 56.2993 12.12 55.7179 12.12C55.1313 12.12 54.5846 12.0027 54.0779 11.768C53.5766 11.5333 53.1393 11.176 52.7659 10.696C52.3926 10.216 52.0993 9.61067 51.8859 8.88C51.6726 8.144 51.5659 7.27467 51.5659 6.272C51.5659 5.26933 51.6726 4.4 51.8859 3.664C52.0993 2.928 52.3926 2.32 52.7659 1.84C53.1393 1.35467 53.5766 0.994666 54.0779 0.759999C54.5846 0.525332 55.1313 0.407999 55.7179 0.407999C56.2993 0.407999 56.8433 0.525332 57.3499 0.759999C57.8619 0.994666 58.3046 1.35467 58.6779 1.84C59.0513 2.32 59.3446 2.928 59.5579 3.664C59.7766 4.4 59.8859 5.26933 59.8859 6.272ZM58.4059 6.272C58.4059 5.39733 58.3313 4.664 58.1819 4.072C58.0379 3.47467 57.8406 2.99467 57.5899 2.632C57.3446 2.26933 57.0593 2.01067 56.7339 1.856C56.4086 1.696 56.0699 1.616 55.7179 1.616C55.3659 1.616 55.0273 1.696 54.7019 1.856C54.3766 2.01067 54.0913 2.26933 53.8459 2.632C53.6006 2.99467 53.4033 3.47467 53.2539 4.072C53.1099 4.664 53.0379 5.39733 53.0379 6.272C53.0379 7.14667 53.1099 7.88 53.2539 8.472C53.4033 9.064 53.6006 9.54133 53.8459 9.904C54.0913 10.2667 54.3766 10.528 54.7019 10.688C55.0273 10.8427 55.3659 10.92 55.7179 10.92C56.0699 10.92 56.4086 10.8427 56.7339 10.688C57.0593 10.528 57.3446 10.2667 57.5899 9.904C57.8406 9.54133 58.0379 9.064 58.1819 8.472C58.3313 7.88 58.4059 7.14667 58.4059 6.272ZM66.1432 3.304C66.1432 3.752 66.0739 4.15467 65.9352 4.512C65.7965 4.864 65.6099 5.16267 65.3752 5.408C65.1459 5.648 64.8765 5.832 64.5672 5.96C64.2632 6.088 63.9405 6.152 63.5992 6.152C63.2419 6.152 62.9085 6.088 62.5992 5.96C62.2899 5.832 62.0205 5.648 61.7912 5.408C61.5672 5.16267 61.3912 4.864 61.2632 4.512C61.1352 4.15467 61.0712 3.752 61.0712 3.304C61.0712 2.84533 61.1352 2.43733 61.2632 2.08C61.3912 1.72267 61.5672 1.42133 61.7912 1.176C62.0205 0.930666 62.2899 0.743999 62.5992 0.615999C62.9085 0.488 63.2419 0.424 63.5992 0.424C63.9619 0.424 64.2979 0.488 64.6072 0.615999C64.9165 0.743999 65.1859 0.930666 65.4152 1.176C65.6445 1.42133 65.8232 1.72267 65.9512 2.08C66.0792 2.43733 66.1432 2.84533 66.1432 3.304ZM65.0392 3.304C65.0392 2.952 65.0019 2.65333 64.9272 2.408C64.8525 2.16267 64.7485 1.96267 64.6152 1.808C64.4872 1.648 64.3352 1.53333 64.1592 1.464C63.9832 1.39467 63.7965 1.36 63.5992 1.36C63.4019 1.36 63.2179 1.39467 63.0472 1.464C62.8765 1.53333 62.7272 1.648 62.5992 1.808C62.4712 1.96267 62.3699 2.16267 62.2952 2.408C62.2205 2.65333 62.1832 2.952 62.1832 3.304C62.1832 3.65067 62.2205 3.94667 62.2952 4.192C62.3699 4.432 62.4712 4.62933 62.5992 4.784C62.7272 4.93333 62.8765 5.04267 63.0472 5.112C63.2179 5.176 63.4019 5.208 63.5992 5.208C63.7965 5.208 63.9832 5.176 64.1592 5.112C64.3352 5.04267 64.4872 4.93333 64.6152 4.784C64.7485 4.62933 64.8525 4.432 64.9272 4.192C65.0019 3.94667 65.0392 3.65067 65.0392 3.304ZM70.1992 0.775999C70.2525 0.711999 70.3139 0.656 70.3832 0.608C70.4579 0.559999 70.5565 0.535999 70.6792 0.535999H71.7112L63.3272 11.768C63.2792 11.8373 63.2179 11.8933 63.1432 11.936C63.0685 11.9787 62.9779 12 62.8712 12H61.8232L70.1992 0.775999ZM72.4872 9.296C72.4872 9.744 72.4179 10.144 72.2792 10.496C72.1405 10.848 71.9539 11.1467 71.7192 11.392C71.4899 11.632 71.2205 11.816 70.9112 11.944C70.6072 12.072 70.2845 12.136 69.9432 12.136C69.5805 12.136 69.2445 12.072 68.9352 11.944C68.6312 11.816 68.3645 11.632 68.1352 11.392C67.9112 11.1467 67.7352 10.848 67.6072 10.496C67.4792 10.144 67.4152 9.744 67.4152 9.296C67.4152 8.83733 67.4792 8.42933 67.6072 8.072C67.7352 7.70933 67.9112 7.40533 68.1352 7.16C68.3645 6.91467 68.6312 6.728 68.9352 6.6C69.2445 6.472 69.5805 6.408 69.9432 6.408C70.3005 6.408 70.6339 6.472 70.9432 6.6C71.2579 6.728 71.5272 6.91467 71.7512 7.16C71.9805 7.40533 72.1592 7.70933 72.2872 8.072C72.4205 8.42933 72.4872 8.83733 72.4872 9.296ZM71.3832 9.296C71.3832 8.944 71.3459 8.64533 71.2712 8.4C71.1965 8.14933 71.0925 7.94667 70.9592 7.792C70.8312 7.63733 70.6792 7.52533 70.5032 7.456C70.3272 7.38667 70.1405 7.352 69.9432 7.352C69.7459 7.352 69.5592 7.38667 69.3832 7.456C69.2125 7.52533 69.0632 7.63733 68.9352 7.792C68.8072 7.94667 68.7059 8.14933 68.6312 8.4C68.5619 8.64533 68.5272 8.944 68.5272 9.296C68.5272 9.64267 68.5619 9.936 68.6312 10.176C68.7059 10.416 68.8072 10.6133 68.9352 10.768C69.0632 10.9173 69.2125 11.0267 69.3832 11.096C69.5592 11.16 69.7459 11.192 69.9432 11.192C70.1405 11.192 70.3272 11.16 70.5032 11.096C70.6792 11.0267 70.8312 10.9173 70.9592 10.768C71.0925 10.6133 71.1965 10.416 71.2712 10.176C71.3459 9.936 71.3832 9.64267 71.3832 9.296ZM89.3451 6.272C89.3451 7.13067 89.2091 7.92 88.9371 8.64C88.6651 9.35467 88.2811 9.97067 87.7851 10.488C87.2891 11.0053 86.6917 11.408 85.9931 11.696C85.2997 11.9787 84.5317 12.12 83.6891 12.12C82.8464 12.12 82.0784 11.9787 81.3851 11.696C80.6917 11.408 80.0971 11.0053 79.6011 10.488C79.1051 9.97067 78.7211 9.35467 78.4491 8.64C78.1771 7.92 78.0411 7.13067 78.0411 6.272C78.0411 5.41333 78.1771 4.62667 78.4491 3.912C78.7211 3.192 79.1051 2.57333 79.6011 2.056C80.0971 1.53333 80.6917 1.128 81.3851 0.839999C82.0784 0.551999 82.8464 0.407999 83.6891 0.407999C84.5317 0.407999 85.2997 0.551999 85.9931 0.839999C86.6917 1.128 87.2891 1.53333 87.7851 2.056C88.2811 2.57333 88.6651 3.192 88.9371 3.912C89.2091 4.62667 89.3451 5.41333 89.3451 6.272ZM87.7531 6.272C87.7531 5.568 87.6571 4.936 87.4651 4.376C87.2731 3.816 87.0011 3.344 86.6491 2.96C86.2971 2.57067 85.8704 2.272 85.3691 2.064C84.8677 1.856 84.3077 1.752 83.6891 1.752C83.0757 1.752 82.5184 1.856 82.0171 2.064C81.5157 2.272 81.0864 2.57067 80.7291 2.96C80.3771 3.344 80.1051 3.816 79.9131 4.376C79.7211 4.936 79.6251 5.568 79.6251 6.272C79.6251 6.976 79.7211 7.608 79.9131 8.168C80.1051 8.72267 80.3771 9.19467 80.7291 9.584C81.0864 9.968 81.5157 10.264 82.0171 10.472C82.5184 10.6747 83.0757 10.776 83.6891 10.776C84.3077 10.776 84.8677 10.6747 85.3691 10.472C85.8704 10.264 86.2971 9.968 86.6491 9.584C87.0011 9.19467 87.2731 8.72267 87.4651 8.168C87.6571 7.608 87.7531 6.976 87.7531 6.272ZM93.1176 1.8V5.808H97.8296V7.072H93.1176V12H91.5656V0.535999H98.6296V1.8H93.1176ZM102.164 1.8V5.808H106.876V7.072H102.164V12H100.612V0.535999H107.676V1.8H102.164Z" fill="white"/>
<path d="M3.60169 26.216V31.352H10.1057V33.932H3.60169V41H0.361688V23.648H11.3057V26.216H3.60169ZM30.3394 32.324C30.3394 33.596 30.1274 34.776 29.7034 35.864C29.2874 36.944 28.6954 37.88 27.9274 38.672C27.1594 39.464 26.2354 40.084 25.1554 40.532C24.0754 40.972 22.8754 41.192 21.5554 41.192C20.2434 41.192 19.0474 40.972 17.9674 40.532C16.8874 40.084 15.9594 39.464 15.1834 38.672C14.4154 37.88 13.8194 36.944 13.3954 35.864C12.9714 34.776 12.7594 33.596 12.7594 32.324C12.7594 31.052 12.9714 29.876 13.3954 28.796C13.8194 27.708 14.4154 26.768 15.1834 25.976C15.9594 25.184 16.8874 24.568 17.9674 24.128C19.0474 23.68 20.2434 23.456 21.5554 23.456C22.4354 23.456 23.2634 23.56 24.0394 23.768C24.8154 23.968 25.5274 24.256 26.1754 24.632C26.8234 25 27.4034 25.452 27.9154 25.988C28.4354 26.516 28.8754 27.108 29.2354 27.764C29.5954 28.42 29.8674 29.132 30.0514 29.9C30.2434 30.668 30.3394 31.476 30.3394 32.324ZM27.0394 32.324C27.0394 31.372 26.9114 30.52 26.6554 29.768C26.3994 29.008 26.0354 28.364 25.5634 27.836C25.0914 27.308 24.5154 26.904 23.8354 26.624C23.1634 26.344 22.4034 26.204 21.5554 26.204C20.7074 26.204 19.9434 26.344 19.2634 26.624C18.5914 26.904 18.0154 27.308 17.5354 27.836C17.0634 28.364 16.6994 29.008 16.4434 29.768C16.1874 30.52 16.0594 31.372 16.0594 32.324C16.0594 33.276 16.1874 34.132 16.4434 34.892C16.6994 35.644 17.0634 36.284 17.5354 36.812C18.0154 37.332 18.5914 37.732 19.2634 38.012C19.9434 38.292 20.7074 38.432 21.5554 38.432C22.4034 38.432 23.1634 38.292 23.8354 38.012C24.5154 37.732 25.0914 37.332 25.5634 36.812C26.0354 36.284 26.3994 35.644 26.6554 34.892C26.9114 34.132 27.0394 33.276 27.0394 32.324ZM38.4182 31.904C39.0262 31.904 39.5542 31.828 40.0022 31.676C40.4582 31.524 40.8302 31.316 41.1182 31.052C41.4142 30.78 41.6342 30.46 41.7782 30.092C41.9222 29.724 41.9942 29.32 41.9942 28.88C41.9942 28 41.7022 27.324 41.1182 26.852C40.5422 26.38 39.6582 26.144 38.4662 26.144H36.4022V31.904H38.4182ZM46.7222 41H43.8062C43.2542 41 42.8542 40.784 42.6062 40.352L38.9582 34.796C38.8222 34.588 38.6702 34.44 38.5022 34.352C38.3422 34.264 38.1022 34.22 37.7822 34.22H36.4022V41H33.1742V23.648H38.4662C39.6422 23.648 40.6502 23.772 41.4902 24.02C42.3382 24.26 43.0302 24.6 43.5662 25.04C44.1102 25.48 44.5102 26.008 44.7662 26.624C45.0222 27.232 45.1502 27.904 45.1502 28.64C45.1502 29.224 45.0622 29.776 44.8862 30.296C44.7182 30.816 44.4702 31.288 44.1422 31.712C43.8222 32.136 43.4222 32.508 42.9422 32.828C42.4702 33.148 41.9302 33.4 41.3222 33.584C41.5302 33.704 41.7222 33.848 41.8982 34.016C42.0742 34.176 42.2342 34.368 42.3782 34.592L46.7222 41ZM77.3559 23.648L71.9679 41H69.0519L65.2599 29.144C65.1559 28.856 65.0599 28.504 64.9719 28.088C64.9239 28.288 64.8759 28.476 64.8279 28.652C64.7799 28.828 64.7279 28.992 64.6719 29.144L60.8439 41H57.9159L52.5399 23.648H55.2399C55.5199 23.648 55.7519 23.716 55.9359 23.852C56.1279 23.98 56.2559 24.156 56.3199 24.38L59.2719 34.76C59.3359 35.016 59.3959 35.296 59.4519 35.6C59.5159 35.896 59.5799 36.208 59.6439 36.536C59.7079 36.2 59.7759 35.884 59.8479 35.588C59.9279 35.292 60.0119 35.016 60.0999 34.76L63.5079 24.38C63.5719 24.196 63.6959 24.028 63.8799 23.876C64.0719 23.724 64.3039 23.648 64.5759 23.648H65.5239C65.8039 23.648 66.0319 23.716 66.2079 23.852C66.3839 23.988 66.5159 24.164 66.6039 24.38L69.9999 34.76C70.1679 35.256 70.3199 35.828 70.4559 36.476C70.5599 35.844 70.6759 35.272 70.8039 34.76L73.7559 24.38C73.8039 24.18 73.9239 24.008 74.1159 23.864C74.3159 23.72 74.5519 23.648 74.8239 23.648H77.3559ZM95.6831 32.324C95.6831 33.596 95.4711 34.776 95.0471 35.864C94.6311 36.944 94.0391 37.88 93.2711 38.672C92.5031 39.464 91.5791 40.084 90.4991 40.532C89.4191 40.972 88.2191 41.192 86.8991 41.192C85.5871 41.192 84.3911 40.972 83.3111 40.532C82.2311 40.084 81.3031 39.464 80.5271 38.672C79.7591 37.88 79.1631 36.944 78.7391 35.864C78.3151 34.776 78.1031 33.596 78.1031 32.324C78.1031 31.052 78.3151 29.876 78.7391 28.796C79.1631 27.708 79.7591 26.768 80.5271 25.976C81.3031 25.184 82.2311 24.568 83.3111 24.128C84.3911 23.68 85.5871 23.456 86.8991 23.456C87.7791 23.456 88.6071 23.56 89.3831 23.768C90.1591 23.968 90.8711 24.256 91.5191 24.632C92.1671 25 92.7471 25.452 93.2591 25.988C93.7791 26.516 94.2191 27.108 94.5791 27.764C94.9391 28.42 95.2111 29.132 95.3951 29.9C95.5871 30.668 95.6831 31.476 95.6831 32.324ZM92.3831 32.324C92.3831 31.372 92.2551 30.52 91.9991 29.768C91.7431 29.008 91.3791 28.364 90.9071 27.836C90.4351 27.308 89.8591 26.904 89.1791 26.624C88.5071 26.344 87.7471 26.204 86.8991 26.204C86.0511 26.204 85.2871 26.344 84.6071 26.624C83.9351 26.904 83.3591 27.308 82.8791 27.836C82.4071 28.364 82.0431 29.008 81.7871 29.768C81.5311 30.52 81.4031 31.372 81.4031 32.324C81.4031 33.276 81.5311 34.132 81.7871 34.892C82.0431 35.644 82.4071 36.284 82.8791 36.812C83.3591 37.332 83.9351 37.732 84.6071 38.012C85.2871 38.292 86.0511 38.432 86.8991 38.432C87.7471 38.432 88.5071 38.292 89.1791 38.012C89.8591 37.732 90.4351 37.332 90.9071 36.812C91.3791 36.284 91.7431 35.644 91.9991 34.892C92.2551 34.132 92.3831 33.276 92.3831 32.324ZM117.334 23.648V41H114.49V29.792C114.49 29.344 114.514 28.86 114.562 28.34L109.318 38.192C109.07 38.664 108.69 38.9 108.178 38.9H107.722C107.21 38.9 106.83 38.664 106.582 38.192L101.278 28.304C101.302 28.568 101.322 28.828 101.338 29.084C101.354 29.34 101.362 29.576 101.362 29.792V41H98.5179V23.648H100.954C101.098 23.648 101.222 23.652 101.326 23.66C101.43 23.668 101.522 23.688 101.602 23.72C101.69 23.752 101.766 23.804 101.83 23.876C101.902 23.948 101.97 24.044 102.034 24.164L107.23 33.8C107.366 34.056 107.49 34.32 107.602 34.592C107.722 34.864 107.838 35.144 107.95 35.432C108.062 35.136 108.178 34.852 108.298 34.58C108.418 34.3 108.546 34.032 108.682 33.776L113.806 24.164C113.87 24.044 113.938 23.948 114.01 23.876C114.082 23.804 114.158 23.752 114.238 23.72C114.326 23.688 114.422 23.668 114.526 23.66C114.63 23.652 114.754 23.648 114.898 23.648H117.334ZM124.445 26.216V31.028H130.517V33.512H124.445V38.42H132.149V41H121.205V23.648H132.149V26.216H124.445ZM149.638 23.648V41H147.982C147.726 41 147.51 40.96 147.334 40.88C147.166 40.792 147.002 40.648 146.842 40.448L137.782 28.88C137.83 29.408 137.854 29.896 137.854 30.344V41H135.01V23.648H136.702C136.838 23.648 136.954 23.656 137.05 23.672C137.154 23.68 137.242 23.704 137.314 23.744C137.394 23.776 137.47 23.828 137.542 23.9C137.614 23.964 137.694 24.052 137.782 24.164L146.878 35.78C146.854 35.5 146.834 35.224 146.818 34.952C146.802 34.68 146.794 34.428 146.794 34.196V23.648H149.638Z" fill="#F16D7F"/>
</svg>
