<svg width="345" height="49" viewBox="0 0 345 49" fill="none" xmlns="http://www.w3.org/2000/svg">
<path d="M116.77 3.804C116.674 3.972 116.57 4.096 116.458 4.176C116.354 4.248 116.222 4.284 116.062 4.284C115.894 4.284 115.71 4.224 115.51 4.104C115.318 3.976 115.086 3.836 114.814 3.684C114.542 3.532 114.222 3.396 113.854 3.276C113.494 3.148 113.066 3.084 112.57 3.084C112.122 3.084 111.73 3.14 111.394 3.252C111.058 3.356 110.774 3.504 110.542 3.696C110.318 3.888 110.15 4.12 110.038 4.392C109.926 4.656 109.87 4.948 109.87 5.268C109.87 5.676 109.982 6.016 110.206 6.288C110.438 6.56 110.742 6.792 111.118 6.984C111.494 7.176 111.922 7.348 112.402 7.5C112.882 7.652 113.374 7.816 113.878 7.992C114.382 8.16 114.874 8.36 115.354 8.592C115.834 8.816 116.262 9.104 116.638 9.456C117.014 9.8 117.314 10.224 117.538 10.728C117.77 11.232 117.886 11.844 117.886 12.564C117.886 13.348 117.75 14.084 117.478 14.772C117.214 15.452 116.822 16.048 116.302 16.56C115.79 17.064 115.162 17.464 114.418 17.76C113.674 18.048 112.822 18.192 111.862 18.192C111.31 18.192 110.766 18.136 110.23 18.024C109.694 17.92 109.178 17.768 108.682 17.568C108.194 17.368 107.734 17.128 107.302 16.848C106.87 16.568 106.486 16.256 106.15 15.912L107.098 14.364C107.178 14.252 107.282 14.16 107.41 14.088C107.538 14.008 107.674 13.968 107.818 13.968C108.018 13.968 108.234 14.052 108.466 14.22C108.698 14.38 108.974 14.56 109.294 14.76C109.614 14.96 109.986 15.144 110.41 15.312C110.842 15.472 111.358 15.552 111.958 15.552C112.878 15.552 113.59 15.336 114.094 14.904C114.598 14.464 114.85 13.836 114.85 13.02C114.85 12.564 114.734 12.192 114.502 11.904C114.278 11.616 113.978 11.376 113.602 11.184C113.226 10.984 112.798 10.816 112.318 10.68C111.838 10.544 111.35 10.396 110.854 10.236C110.358 10.076 109.87 9.884 109.39 9.66C108.91 9.436 108.482 9.144 108.106 8.784C107.73 8.424 107.426 7.976 107.194 7.44C106.97 6.896 106.858 6.228 106.858 5.436C106.858 4.804 106.982 4.188 107.23 3.588C107.486 2.988 107.854 2.456 108.334 1.992C108.814 1.528 109.406 1.156 110.11 0.875999C110.814 0.596 111.622 0.456 112.534 0.456C113.558 0.456 114.502 0.616 115.366 0.935999C116.23 1.256 116.966 1.704 117.574 2.28L116.77 3.804ZM127.686 15.396C128.31 15.396 128.866 15.292 129.354 15.084C129.85 14.876 130.266 14.584 130.602 14.208C130.938 13.832 131.194 13.376 131.37 12.84C131.554 12.304 131.646 11.704 131.646 11.04V0.647999H134.874V11.04C134.874 12.072 134.706 13.028 134.37 13.908C134.042 14.78 133.566 15.536 132.942 16.176C132.326 16.808 131.574 17.304 130.686 17.664C129.798 18.016 128.798 18.192 127.686 18.192C126.566 18.192 125.562 18.016 124.674 17.664C123.786 17.304 123.03 16.808 122.406 16.176C121.79 15.536 121.314 14.78 120.978 13.908C120.65 13.028 120.486 12.072 120.486 11.04V0.647999H123.714V11.028C123.714 11.692 123.802 12.292 123.978 12.828C124.162 13.364 124.422 13.824 124.758 14.208C125.102 14.584 125.518 14.876 126.006 15.084C126.502 15.292 127.062 15.396 127.686 15.396ZM145.006 15.48C145.606 15.48 146.11 15.408 146.518 15.264C146.926 15.12 147.25 14.928 147.49 14.688C147.738 14.448 147.914 14.168 148.018 13.848C148.13 13.528 148.186 13.188 148.186 12.828C148.186 12.452 148.126 12.116 148.006 11.82C147.886 11.516 147.698 11.26 147.442 11.052C147.186 10.836 146.854 10.672 146.446 10.56C146.046 10.448 145.562 10.392 144.994 10.392H141.742V15.48H145.006ZM141.742 3.144V8.16H144.31C145.414 8.16 146.246 7.96 146.806 7.56C147.374 7.16 147.658 6.524 147.658 5.652C147.658 4.748 147.402 4.104 146.89 3.72C146.378 3.336 145.578 3.144 144.49 3.144H141.742ZM144.49 0.647999C145.626 0.647999 146.598 0.755999 147.406 0.972C148.214 1.188 148.874 1.496 149.386 1.896C149.906 2.296 150.286 2.78 150.526 3.348C150.766 3.916 150.886 4.556 150.886 5.268C150.886 5.676 150.826 6.068 150.706 6.444C150.586 6.812 150.398 7.16 150.142 7.488C149.894 7.808 149.574 8.1 149.182 8.364C148.798 8.628 148.338 8.852 147.802 9.036C150.186 9.572 151.378 10.86 151.378 12.9C151.378 13.636 151.238 14.316 150.958 14.94C150.678 15.564 150.27 16.104 149.734 16.56C149.198 17.008 148.538 17.36 147.754 17.616C146.97 17.872 146.074 18 145.066 18H138.514V0.647999H144.49ZM163.551 3.804C163.455 3.972 163.351 4.096 163.239 4.176C163.135 4.248 163.003 4.284 162.843 4.284C162.675 4.284 162.491 4.224 162.291 4.104C162.099 3.976 161.867 3.836 161.595 3.684C161.323 3.532 161.003 3.396 160.635 3.276C160.275 3.148 159.847 3.084 159.351 3.084C158.903 3.084 158.511 3.14 158.175 3.252C157.839 3.356 157.555 3.504 157.323 3.696C157.099 3.888 156.931 4.12 156.819 4.392C156.707 4.656 156.651 4.948 156.651 5.268C156.651 5.676 156.763 6.016 156.987 6.288C157.219 6.56 157.523 6.792 157.899 6.984C158.275 7.176 158.703 7.348 159.183 7.5C159.663 7.652 160.155 7.816 160.659 7.992C161.163 8.16 161.655 8.36 162.135 8.592C162.615 8.816 163.043 9.104 163.419 9.456C163.795 9.8 164.095 10.224 164.319 10.728C164.551 11.232 164.667 11.844 164.667 12.564C164.667 13.348 164.531 14.084 164.259 14.772C163.995 15.452 163.603 16.048 163.083 16.56C162.571 17.064 161.943 17.464 161.199 17.76C160.455 18.048 159.603 18.192 158.643 18.192C158.091 18.192 157.547 18.136 157.011 18.024C156.475 17.92 155.959 17.768 155.463 17.568C154.975 17.368 154.515 17.128 154.083 16.848C153.651 16.568 153.267 16.256 152.931 15.912L153.879 14.364C153.959 14.252 154.063 14.16 154.191 14.088C154.319 14.008 154.455 13.968 154.599 13.968C154.799 13.968 155.015 14.052 155.247 14.22C155.479 14.38 155.755 14.56 156.075 14.76C156.395 14.96 156.767 15.144 157.191 15.312C157.623 15.472 158.139 15.552 158.739 15.552C159.659 15.552 160.371 15.336 160.875 14.904C161.379 14.464 161.631 13.836 161.631 13.02C161.631 12.564 161.515 12.192 161.283 11.904C161.059 11.616 160.759 11.376 160.383 11.184C160.007 10.984 159.579 10.816 159.099 10.68C158.619 10.544 158.131 10.396 157.635 10.236C157.139 10.076 156.651 9.884 156.171 9.66C155.691 9.436 155.263 9.144 154.887 8.784C154.511 8.424 154.207 7.976 153.975 7.44C153.751 6.896 153.639 6.228 153.639 5.436C153.639 4.804 153.763 4.188 154.011 3.588C154.267 2.988 154.635 2.456 155.115 1.992C155.595 1.528 156.187 1.156 156.891 0.875999C157.595 0.596 158.403 0.456 159.315 0.456C160.339 0.456 161.283 0.616 162.147 0.935999C163.011 1.256 163.747 1.704 164.355 2.28L163.551 3.804ZM179.399 13.908C179.575 13.908 179.731 13.976 179.867 14.112L181.139 15.492C180.435 16.364 179.567 17.032 178.535 17.496C177.511 17.96 176.279 18.192 174.839 18.192C173.551 18.192 172.391 17.972 171.359 17.532C170.335 17.092 169.459 16.48 168.731 15.696C168.003 14.912 167.443 13.976 167.051 12.888C166.667 11.8 166.475 10.612 166.475 9.324C166.475 8.02 166.683 6.828 167.099 5.748C167.515 4.66 168.099 3.724 168.851 2.94C169.611 2.156 170.515 1.548 171.563 1.116C172.611 0.676 173.771 0.456 175.043 0.456C176.307 0.456 177.427 0.664 178.403 1.08C179.387 1.496 180.223 2.04 180.911 2.712L179.831 4.212C179.767 4.308 179.683 4.392 179.579 4.464C179.483 4.536 179.347 4.572 179.171 4.572C179.051 4.572 178.927 4.54 178.799 4.476C178.671 4.404 178.531 4.32 178.379 4.224C178.227 4.12 178.051 4.008 177.851 3.888C177.651 3.768 177.419 3.66 177.155 3.564C176.891 3.46 176.583 3.376 176.231 3.312C175.887 3.24 175.487 3.204 175.031 3.204C174.255 3.204 173.543 3.344 172.895 3.624C172.255 3.896 171.703 4.296 171.239 4.824C170.775 5.344 170.415 5.984 170.159 6.744C169.903 7.496 169.775 8.356 169.775 9.324C169.775 10.3 169.911 11.168 170.183 11.928C170.463 12.688 170.839 13.328 171.311 13.848C171.783 14.368 172.339 14.768 172.979 15.048C173.619 15.32 174.307 15.456 175.043 15.456C175.483 15.456 175.879 15.432 176.231 15.384C176.591 15.336 176.919 15.26 177.215 15.156C177.519 15.052 177.803 14.92 178.067 14.76C178.339 14.592 178.607 14.388 178.871 14.148C178.951 14.076 179.035 14.02 179.123 13.98C179.211 13.932 179.303 13.908 179.399 13.908ZM188.594 8.904C189.202 8.904 189.73 8.828 190.178 8.676C190.634 8.524 191.006 8.316 191.294 8.052C191.59 7.78 191.81 7.46 191.954 7.092C192.098 6.724 192.17 6.32 192.17 5.88C192.17 5 191.878 4.324 191.294 3.852C190.718 3.38 189.834 3.144 188.642 3.144H186.578V8.904H188.594ZM196.898 18H193.982C193.43 18 193.03 17.784 192.782 17.352L189.134 11.796C188.998 11.588 188.846 11.44 188.678 11.352C188.518 11.264 188.278 11.22 187.958 11.22H186.578V18H183.35V0.647999H188.642C189.818 0.647999 190.826 0.771999 191.666 1.02C192.514 1.26 193.206 1.6 193.742 2.04C194.286 2.48 194.686 3.008 194.942 3.624C195.198 4.232 195.326 4.904 195.326 5.64C195.326 6.224 195.238 6.776 195.062 7.296C194.894 7.816 194.646 8.288 194.318 8.712C193.998 9.136 193.598 9.508 193.118 9.828C192.646 10.148 192.106 10.4 191.498 10.584C191.706 10.704 191.898 10.848 192.074 11.016C192.25 11.176 192.41 11.368 192.554 11.592L196.898 18ZM202.012 18H198.772V0.647999H202.012V18ZM212.389 15.48C212.989 15.48 213.493 15.408 213.901 15.264C214.309 15.12 214.633 14.928 214.873 14.688C215.121 14.448 215.297 14.168 215.401 13.848C215.513 13.528 215.569 13.188 215.569 12.828C215.569 12.452 215.509 12.116 215.389 11.82C215.269 11.516 215.081 11.26 214.825 11.052C214.569 10.836 214.237 10.672 213.829 10.56C213.429 10.448 212.945 10.392 212.377 10.392H209.125V15.48H212.389ZM209.125 3.144V8.16H211.693C212.797 8.16 213.629 7.96 214.189 7.56C214.757 7.16 215.041 6.524 215.041 5.652C215.041 4.748 214.785 4.104 214.273 3.72C213.761 3.336 212.961 3.144 211.873 3.144H209.125ZM211.873 0.647999C213.009 0.647999 213.981 0.755999 214.789 0.972C215.597 1.188 216.257 1.496 216.769 1.896C217.289 2.296 217.669 2.78 217.909 3.348C218.149 3.916 218.269 4.556 218.269 5.268C218.269 5.676 218.209 6.068 218.089 6.444C217.969 6.812 217.781 7.16 217.525 7.488C217.277 7.808 216.957 8.1 216.565 8.364C216.181 8.628 215.721 8.852 215.185 9.036C217.569 9.572 218.761 10.86 218.761 12.9C218.761 13.636 218.621 14.316 218.341 14.94C218.061 15.564 217.653 16.104 217.117 16.56C216.581 17.008 215.921 17.36 215.137 17.616C214.353 17.872 213.457 18 212.449 18H205.897V0.647999H211.873ZM224.934 3.216V8.028H231.006V10.512H224.934V15.42H232.638V18H221.694V0.647999H232.638V3.216H224.934ZM1.76409 36.525V41.034H7.06509V42.456H1.76409V48H0.0180939V35.103H7.96509V36.525H1.76409ZM21.9888 41.556C21.9888 42.522 21.8358 43.41 21.5298 44.22C21.2238 45.024 20.7918 45.717 20.2338 46.299C19.6758 46.881 19.0038 47.334 18.2178 47.658C17.4378 47.976 16.5738 48.135 15.6258 48.135C14.6778 48.135 13.8138 47.976 13.0338 47.658C12.2538 47.334 11.5848 46.881 11.0268 46.299C10.4688 45.717 10.0368 45.024 9.73078 44.22C9.42478 43.41 9.27178 42.522 9.27178 41.556C9.27178 40.59 9.42478 39.705 9.73078 38.901C10.0368 38.091 10.4688 37.395 11.0268 36.813C11.5848 36.225 12.2538 35.769 13.0338 35.445C13.8138 35.121 14.6778 34.959 15.6258 34.959C16.5738 34.959 17.4378 35.121 18.2178 35.445C19.0038 35.769 19.6758 36.225 20.2338 36.813C20.7918 37.395 21.2238 38.091 21.5298 38.901C21.8358 39.705 21.9888 40.59 21.9888 41.556ZM20.1978 41.556C20.1978 40.764 20.0898 40.053 19.8738 39.423C19.6578 38.793 19.3518 38.262 18.9558 37.83C18.5598 37.392 18.0798 37.056 17.5158 36.822C16.9518 36.588 16.3218 36.471 15.6258 36.471C14.9358 36.471 14.3088 36.588 13.7448 36.822C13.1808 37.056 12.6978 37.392 12.2958 37.83C11.8998 38.262 11.5938 38.793 11.3778 39.423C11.1618 40.053 11.0538 40.764 11.0538 41.556C11.0538 42.348 11.1618 43.059 11.3778 43.689C11.5938 44.313 11.8998 44.844 12.2958 45.282C12.6978 45.714 13.1808 46.047 13.7448 46.281C14.3088 46.509 14.9358 46.623 15.6258 46.623C16.3218 46.623 16.9518 46.509 17.5158 46.281C18.0798 46.047 18.5598 45.714 18.9558 45.282C19.3518 44.844 19.6578 44.313 19.8738 43.689C20.0898 43.059 20.1978 42.348 20.1978 41.556ZM28.0598 41.349C28.5638 41.349 29.0078 41.289 29.3918 41.169C29.7818 41.043 30.1058 40.869 30.3638 40.647C30.6278 40.419 30.8258 40.149 30.9578 39.837C31.0898 39.525 31.1558 39.18 31.1558 38.802C31.1558 38.034 30.9038 37.455 30.3998 37.065C29.8958 36.675 29.1398 36.48 28.1318 36.48H26.2238V41.349H28.0598ZM34.0178 48H32.4698C32.1518 48 31.9178 47.877 31.7678 47.631L28.4198 43.023C28.3178 42.879 28.2068 42.777 28.0868 42.717C27.9728 42.651 27.7928 42.618 27.5468 42.618H26.2238V48H24.4868V35.103H28.1318C28.9478 35.103 29.6528 35.187 30.2468 35.355C30.8408 35.517 31.3298 35.754 31.7138 36.066C32.1038 36.378 32.3918 36.756 32.5778 37.2C32.7638 37.638 32.8568 38.13 32.8568 38.676C32.8568 39.132 32.7848 39.558 32.6408 39.954C32.4968 40.35 32.2868 40.707 32.0108 41.025C31.7408 41.337 31.4078 41.604 31.0118 41.826C30.6218 42.048 30.1778 42.216 29.6798 42.33C29.9018 42.456 30.0938 42.639 30.2558 42.879L34.0178 48ZM52.2935 41.556C52.2935 42.522 52.1405 43.41 51.8345 44.22C51.5285 45.024 51.0965 45.717 50.5385 46.299C49.9805 46.881 49.3085 47.334 48.5225 47.658C47.7425 47.976 46.8785 48.135 45.9305 48.135C44.9825 48.135 44.1185 47.976 43.3385 47.658C42.5585 47.334 41.8895 46.881 41.3315 46.299C40.7735 45.717 40.3415 45.024 40.0355 44.22C39.7295 43.41 39.5765 42.522 39.5765 41.556C39.5765 40.59 39.7295 39.705 40.0355 38.901C40.3415 38.091 40.7735 37.395 41.3315 36.813C41.8895 36.225 42.5585 35.769 43.3385 35.445C44.1185 35.121 44.9825 34.959 45.9305 34.959C46.8785 34.959 47.7425 35.121 48.5225 35.445C49.3085 35.769 49.9805 36.225 50.5385 36.813C51.0965 37.395 51.5285 38.091 51.8345 38.901C52.1405 39.705 52.2935 40.59 52.2935 41.556ZM50.5025 41.556C50.5025 40.764 50.3945 40.053 50.1785 39.423C49.9625 38.793 49.6565 38.262 49.2605 37.83C48.8645 37.392 48.3845 37.056 47.8205 36.822C47.2565 36.588 46.6265 36.471 45.9305 36.471C45.2405 36.471 44.6135 36.588 44.0495 36.822C43.4855 37.056 43.0025 37.392 42.6005 37.83C42.2045 38.262 41.8985 38.793 41.6825 39.423C41.4665 40.053 41.3585 40.764 41.3585 41.556C41.3585 42.348 41.4665 43.059 41.6825 43.689C41.8985 44.313 42.2045 44.844 42.6005 45.282C43.0025 45.714 43.4855 46.047 44.0495 46.281C44.6135 46.509 45.2405 46.623 45.9305 46.623C46.6265 46.623 47.2565 46.509 47.8205 46.281C48.3845 46.047 48.8645 45.714 49.2605 45.282C49.6565 44.844 49.9625 44.313 50.1785 43.689C50.3945 43.059 50.5025 42.348 50.5025 41.556ZM59.7685 46.614C60.3025 46.614 60.7795 46.524 61.1995 46.344C61.6195 46.164 61.9735 45.912 62.2615 45.588C62.5555 45.264 62.7775 44.877 62.9275 44.427C63.0835 43.977 63.1615 43.482 63.1615 42.942V35.103H64.8985V42.942C64.8985 43.686 64.7785 44.376 64.5385 45.012C64.3045 45.648 63.9655 46.2 63.5215 46.668C63.0835 47.13 62.5465 47.493 61.9105 47.757C61.2745 48.021 60.5605 48.153 59.7685 48.153C58.9765 48.153 58.2625 48.021 57.6265 47.757C56.9905 47.493 56.4505 47.13 56.0065 46.668C55.5625 46.2 55.2205 45.648 54.9805 45.012C54.7465 44.376 54.6295 43.686 54.6295 42.942V35.103H56.3665V42.933C56.3665 43.473 56.4415 43.968 56.5915 44.418C56.7475 44.868 56.9695 45.255 57.2575 45.579C57.5515 45.903 57.9085 46.158 58.3285 46.344C58.7545 46.524 59.2345 46.614 59.7685 46.614ZM71.6009 41.349C72.1049 41.349 72.5489 41.289 72.9329 41.169C73.3229 41.043 73.6469 40.869 73.9049 40.647C74.1689 40.419 74.3669 40.149 74.4989 39.837C74.6309 39.525 74.6969 39.18 74.6969 38.802C74.6969 38.034 74.4449 37.455 73.9409 37.065C73.4369 36.675 72.6809 36.48 71.6729 36.48H69.7649V41.349H71.6009ZM77.5589 48H76.0109C75.6929 48 75.4589 47.877 75.3089 47.631L71.9609 43.023C71.8589 42.879 71.7479 42.777 71.6279 42.717C71.5139 42.651 71.3339 42.618 71.0879 42.618H69.7649V48H68.0279V35.103H71.6729C72.4889 35.103 73.1939 35.187 73.7879 35.355C74.3819 35.517 74.8709 35.754 75.2549 36.066C75.6449 36.378 75.9329 36.756 76.1189 37.2C76.3049 37.638 76.3979 38.13 76.3979 38.676C76.3979 39.132 76.3259 39.558 76.1819 39.954C76.0379 40.35 75.8279 40.707 75.5519 41.025C75.2819 41.337 74.9489 41.604 74.5529 41.826C74.1629 42.048 73.7189 42.216 73.2209 42.33C73.4429 42.456 73.6349 42.639 73.7969 42.879L77.5589 48ZM94.3675 35.103V48H93.4945C93.3565 48 93.2395 47.976 93.1435 47.928C93.0535 47.88 92.9635 47.799 92.8735 47.685L85.4125 37.965C85.4245 38.115 85.4335 38.262 85.4395 38.406C85.4455 38.55 85.4485 38.685 85.4485 38.811V48H83.9185V35.103H84.8185C84.8965 35.103 84.9625 35.109 85.0165 35.121C85.0705 35.127 85.1185 35.142 85.1605 35.166C85.2025 35.184 85.2445 35.214 85.2865 35.256C85.3285 35.292 85.3735 35.34 85.4215 35.4L92.8825 45.111C92.8705 44.955 92.8585 44.805 92.8465 44.661C92.8405 44.511 92.8375 44.37 92.8375 44.238V35.103H94.3675ZM105.621 46.578L105.612 48H97.6646V35.103H105.612V36.525H99.4106V40.809H104.433V42.177H99.4106V46.578H105.621ZM124.766 35.103L120.743 48H119.177L115.91 38.163C115.88 38.067 115.85 37.965 115.82 37.857C115.796 37.749 115.769 37.635 115.739 37.515C115.709 37.635 115.679 37.749 115.649 37.857C115.619 37.965 115.589 38.067 115.559 38.163L112.274 48H110.708L106.685 35.103H108.134C108.29 35.103 108.419 35.142 108.521 35.22C108.629 35.298 108.698 35.397 108.728 35.517L111.392 44.481C111.434 44.643 111.473 44.817 111.509 45.003C111.551 45.189 111.59 45.387 111.626 45.597C111.668 45.387 111.71 45.189 111.752 45.003C111.8 44.811 111.851 44.637 111.905 44.481L114.938 35.517C114.974 35.415 115.043 35.322 115.145 35.238C115.253 35.148 115.382 35.103 115.532 35.103H116.036C116.192 35.103 116.318 35.142 116.414 35.22C116.51 35.298 116.582 35.397 116.63 35.517L119.654 44.481C119.708 44.637 119.756 44.805 119.798 44.985C119.846 45.165 119.891 45.354 119.933 45.552C119.963 45.354 119.996 45.165 120.032 44.985C120.068 44.805 120.107 44.637 120.149 44.481L122.822 35.517C122.852 35.409 122.918 35.313 123.02 35.229C123.128 35.145 123.257 35.103 123.407 35.103H124.766ZM134.003 46.533V48H126.686V35.103H128.423V46.533H134.003ZM143.888 46.578L143.879 48H135.932V35.103H143.879V36.525H137.678V40.809H142.7V42.177H137.678V46.578H143.888ZM155.042 36.57H150.866V48H149.129V36.57H144.944V35.103H155.042V36.57ZM165.677 36.57H161.501V48H159.764V36.57H155.579V35.103H165.677V36.57ZM175.546 46.578L175.537 48H167.59V35.103H175.537V36.525H169.336V40.809H174.358V42.177H169.336V46.578H175.546ZM181.552 41.349C182.056 41.349 182.5 41.289 182.884 41.169C183.274 41.043 183.598 40.869 183.856 40.647C184.12 40.419 184.318 40.149 184.45 39.837C184.582 39.525 184.648 39.18 184.648 38.802C184.648 38.034 184.396 37.455 183.892 37.065C183.388 36.675 182.632 36.48 181.624 36.48H179.716V41.349H181.552ZM187.51 48H185.962C185.644 48 185.41 47.877 185.26 47.631L181.912 43.023C181.81 42.879 181.699 42.777 181.579 42.717C181.465 42.651 181.285 42.618 181.039 42.618H179.716V48H177.979V35.103H181.624C182.44 35.103 183.145 35.187 183.739 35.355C184.333 35.517 184.822 35.754 185.206 36.066C185.596 36.378 185.884 36.756 186.07 37.2C186.256 37.638 186.349 38.13 186.349 38.676C186.349 39.132 186.277 39.558 186.133 39.954C185.989 40.35 185.779 40.707 185.503 41.025C185.233 41.337 184.9 41.604 184.504 41.826C184.114 42.048 183.67 42.216 183.172 42.33C183.394 42.456 183.586 42.639 183.748 42.879L187.51 48ZM200.121 43.212L198.096 37.965C198.036 37.809 197.973 37.629 197.907 37.425C197.841 37.215 197.778 36.993 197.718 36.759C197.592 37.245 197.463 37.65 197.331 37.974L195.306 43.212H200.121ZM203.757 48H202.407C202.251 48 202.125 47.961 202.029 47.883C201.933 47.805 201.861 47.706 201.813 47.586L200.607 44.472H194.82L193.614 47.586C193.578 47.694 193.509 47.79 193.407 47.874C193.305 47.958 193.179 48 193.029 48H191.679L196.836 35.103H198.6L203.757 48ZM215.903 35.103V48H215.03C214.892 48 214.775 47.976 214.679 47.928C214.589 47.88 214.499 47.799 214.409 47.685L206.948 37.965C206.96 38.115 206.969 38.262 206.975 38.406C206.981 38.55 206.984 38.685 206.984 38.811V48H205.454V35.103H206.354C206.432 35.103 206.498 35.109 206.552 35.121C206.606 35.127 206.654 35.142 206.696 35.166C206.738 35.184 206.78 35.214 206.822 35.256C206.864 35.292 206.909 35.34 206.957 35.4L214.418 45.111C214.406 44.955 214.394 44.805 214.382 44.661C214.376 44.511 214.373 44.37 214.373 44.238V35.103H215.903ZM230.378 41.556C230.378 42.522 230.225 43.401 229.919 44.193C229.613 44.985 229.181 45.663 228.623 46.227C228.065 46.791 227.393 47.229 226.607 47.541C225.827 47.847 224.963 48 224.015 48H219.2V35.103H224.015C224.963 35.103 225.827 35.259 226.607 35.571C227.393 35.877 228.065 36.315 228.623 36.885C229.181 37.449 229.613 38.127 229.919 38.919C230.225 39.711 230.378 40.59 230.378 41.556ZM228.587 41.556C228.587 40.764 228.479 40.056 228.263 39.432C228.047 38.808 227.741 38.28 227.345 37.848C226.949 37.416 226.469 37.086 225.905 36.858C225.341 36.63 224.711 36.516 224.015 36.516H220.946V46.587H224.015C224.711 46.587 225.341 46.473 225.905 46.245C226.469 46.017 226.949 45.69 227.345 45.264C227.741 44.832 228.047 44.304 228.263 43.68C228.479 43.056 228.587 42.348 228.587 41.556ZM241.306 41.79C241.804 41.79 242.242 41.724 242.62 41.592C243.004 41.46 243.325 41.277 243.583 41.043C243.847 40.803 244.045 40.518 244.177 40.188C244.309 39.858 244.375 39.495 244.375 39.099C244.375 38.277 244.12 37.635 243.61 37.173C243.106 36.711 242.338 36.48 241.306 36.48H239.236V41.79H241.306ZM241.306 35.103C242.122 35.103 242.83 35.199 243.43 35.391C244.036 35.577 244.537 35.844 244.933 36.192C245.329 36.54 245.623 36.96 245.815 37.452C246.013 37.944 246.112 38.493 246.112 39.099C246.112 39.699 246.007 40.248 245.797 40.746C245.587 41.244 245.278 41.673 244.87 42.033C244.468 42.393 243.967 42.675 243.367 42.879C242.773 43.077 242.086 43.176 241.306 43.176H239.236V48H237.499V35.103H241.306ZM251.882 41.349C252.386 41.349 252.83 41.289 253.214 41.169C253.604 41.043 253.928 40.869 254.186 40.647C254.45 40.419 254.648 40.149 254.78 39.837C254.912 39.525 254.978 39.18 254.978 38.802C254.978 38.034 254.726 37.455 254.222 37.065C253.718 36.675 252.962 36.48 251.954 36.48H250.046V41.349H251.882ZM257.84 48H256.292C255.974 48 255.74 47.877 255.59 47.631L252.242 43.023C252.14 42.879 252.029 42.777 251.909 42.717C251.795 42.651 251.615 42.618 251.369 42.618H250.046V48H248.309V35.103H251.954C252.77 35.103 253.475 35.187 254.069 35.355C254.663 35.517 255.152 35.754 255.536 36.066C255.926 36.378 256.214 36.756 256.4 37.2C256.586 37.638 256.679 38.13 256.679 38.676C256.679 39.132 256.607 39.558 256.463 39.954C256.319 40.35 256.109 40.707 255.833 41.025C255.563 41.337 255.23 41.604 254.834 41.826C254.444 42.048 254 42.216 253.502 42.33C253.724 42.456 253.916 42.639 254.078 42.879L257.84 48ZM271.387 41.556C271.387 42.522 271.234 43.41 270.928 44.22C270.622 45.024 270.19 45.717 269.632 46.299C269.074 46.881 268.402 47.334 267.616 47.658C266.836 47.976 265.972 48.135 265.024 48.135C264.076 48.135 263.212 47.976 262.432 47.658C261.652 47.334 260.983 46.881 260.425 46.299C259.867 45.717 259.435 45.024 259.129 44.22C258.823 43.41 258.67 42.522 258.67 41.556C258.67 40.59 258.823 39.705 259.129 38.901C259.435 38.091 259.867 37.395 260.425 36.813C260.983 36.225 261.652 35.769 262.432 35.445C263.212 35.121 264.076 34.959 265.024 34.959C265.972 34.959 266.836 35.121 267.616 35.445C268.402 35.769 269.074 36.225 269.632 36.813C270.19 37.395 270.622 38.091 270.928 38.901C271.234 39.705 271.387 40.59 271.387 41.556ZM269.596 41.556C269.596 40.764 269.488 40.053 269.272 39.423C269.056 38.793 268.75 38.262 268.354 37.83C267.958 37.392 267.478 37.056 266.914 36.822C266.35 36.588 265.72 36.471 265.024 36.471C264.334 36.471 263.707 36.588 263.143 36.822C262.579 37.056 262.096 37.392 261.694 37.83C261.298 38.262 260.992 38.793 260.776 39.423C260.56 40.053 260.452 40.764 260.452 41.556C260.452 42.348 260.56 43.059 260.776 43.689C260.992 44.313 261.298 44.844 261.694 45.282C262.096 45.714 262.579 46.047 263.143 46.281C263.707 46.509 264.334 46.623 265.024 46.623C265.72 46.623 266.35 46.509 266.914 46.281C267.478 46.047 267.958 45.714 268.354 45.282C268.75 44.844 269.056 44.313 269.272 43.689C269.488 43.059 269.596 42.348 269.596 41.556ZM287.304 35.103V48H285.774V38.523C285.774 38.397 285.777 38.262 285.783 38.118C285.795 37.974 285.807 37.827 285.819 37.677L281.391 45.741C281.253 46.011 281.043 46.146 280.761 46.146H280.509C280.227 46.146 280.017 46.011 279.879 45.741L275.361 37.641C275.397 37.959 275.415 38.253 275.415 38.523V48H273.885V35.103H275.172C275.328 35.103 275.448 35.118 275.532 35.148C275.616 35.178 275.697 35.262 275.775 35.4L280.23 43.338C280.302 43.482 280.371 43.632 280.437 43.788C280.509 43.944 280.575 44.103 280.635 44.265C280.695 44.103 280.758 43.944 280.824 43.788C280.89 43.626 280.962 43.473 281.04 43.329L285.414 35.4C285.486 35.262 285.564 35.178 285.648 35.148C285.738 35.118 285.861 35.103 286.017 35.103H287.304ZM302.518 41.556C302.518 42.522 302.365 43.41 302.059 44.22C301.753 45.024 301.321 45.717 300.763 46.299C300.205 46.881 299.533 47.334 298.747 47.658C297.967 47.976 297.103 48.135 296.155 48.135C295.207 48.135 294.343 47.976 293.563 47.658C292.783 47.334 292.114 46.881 291.556 46.299C290.998 45.717 290.566 45.024 290.26 44.22C289.954 43.41 289.801 42.522 289.801 41.556C289.801 40.59 289.954 39.705 290.26 38.901C290.566 38.091 290.998 37.395 291.556 36.813C292.114 36.225 292.783 35.769 293.563 35.445C294.343 35.121 295.207 34.959 296.155 34.959C297.103 34.959 297.967 35.121 298.747 35.445C299.533 35.769 300.205 36.225 300.763 36.813C301.321 37.395 301.753 38.091 302.059 38.901C302.365 39.705 302.518 40.59 302.518 41.556ZM300.727 41.556C300.727 40.764 300.619 40.053 300.403 39.423C300.187 38.793 299.881 38.262 299.485 37.83C299.089 37.392 298.609 37.056 298.045 36.822C297.481 36.588 296.851 36.471 296.155 36.471C295.465 36.471 294.838 36.588 294.274 36.822C293.71 37.056 293.227 37.392 292.825 37.83C292.429 38.262 292.123 38.793 291.907 39.423C291.691 40.053 291.583 40.764 291.583 41.556C291.583 42.348 291.691 43.059 291.907 43.689C292.123 44.313 292.429 44.844 292.825 45.282C293.227 45.714 293.71 46.047 294.274 46.281C294.838 46.509 295.465 46.623 296.155 46.623C296.851 46.623 297.481 46.509 298.045 46.281C298.609 46.047 299.089 45.714 299.485 45.282C299.881 44.844 300.187 44.313 300.403 43.689C300.619 43.059 300.727 42.348 300.727 41.556ZM313.157 36.57H308.981V48H307.244V36.57H303.059V35.103H313.157V36.57ZM316.817 48H315.071V35.103H316.817V48ZM332.032 41.556C332.032 42.522 331.879 43.41 331.573 44.22C331.267 45.024 330.835 45.717 330.277 46.299C329.719 46.881 329.047 47.334 328.261 47.658C327.481 47.976 326.617 48.135 325.669 48.135C324.721 48.135 323.857 47.976 323.077 47.658C322.297 47.334 321.628 46.881 321.07 46.299C320.512 45.717 320.08 45.024 319.774 44.22C319.468 43.41 319.315 42.522 319.315 41.556C319.315 40.59 319.468 39.705 319.774 38.901C320.08 38.091 320.512 37.395 321.07 36.813C321.628 36.225 322.297 35.769 323.077 35.445C323.857 35.121 324.721 34.959 325.669 34.959C326.617 34.959 327.481 35.121 328.261 35.445C329.047 35.769 329.719 36.225 330.277 36.813C330.835 37.395 331.267 38.091 331.573 38.901C331.879 39.705 332.032 40.59 332.032 41.556ZM330.241 41.556C330.241 40.764 330.133 40.053 329.917 39.423C329.701 38.793 329.395 38.262 328.999 37.83C328.603 37.392 328.123 37.056 327.559 36.822C326.995 36.588 326.365 36.471 325.669 36.471C324.979 36.471 324.352 36.588 323.788 36.822C323.224 37.056 322.741 37.392 322.339 37.83C321.943 38.262 321.637 38.793 321.421 39.423C321.205 40.053 321.097 40.764 321.097 41.556C321.097 42.348 321.205 43.059 321.421 43.689C321.637 44.313 321.943 44.844 322.339 45.282C322.741 45.714 323.224 46.047 323.788 46.281C324.352 46.509 324.979 46.623 325.669 46.623C326.365 46.623 326.995 46.509 327.559 46.281C328.123 46.047 328.603 45.714 328.999 45.282C329.395 44.844 329.701 44.313 329.917 43.689C330.133 43.059 330.241 42.348 330.241 41.556ZM344.979 35.103V48H344.106C343.968 48 343.851 47.976 343.755 47.928C343.665 47.88 343.575 47.799 343.485 47.685L336.024 37.965C336.036 38.115 336.045 38.262 336.051 38.406C336.057 38.55 336.06 38.685 336.06 38.811V48H334.53V35.103H335.43C335.508 35.103 335.574 35.109 335.628 35.121C335.682 35.127 335.73 35.142 335.772 35.166C335.814 35.184 335.856 35.214 335.898 35.256C335.94 35.292 335.985 35.34 336.033 35.4L343.494 45.111C343.482 44.955 343.47 44.805 343.458 44.661C343.452 44.511 343.449 44.37 343.449 44.238V35.103H344.979Z" fill="#222224"/>
</svg>
