<svg width="307" height="59" viewBox="0 0 307 59" fill="none" xmlns="http://www.w3.org/2000/svg">
<path d="M1.36203 5.45C1.11003 5.024 0.939031 4.577 0.849031 4.109C0.759031 3.635 0.750031 3.167 0.822031 2.705C0.894031 2.243 1.04403 1.802 1.27203 1.382C1.50003 0.955999 1.80303 0.575 2.18103 0.239L2.66703 0.544999C2.75703 0.605 2.79603 0.68 2.78403 0.77C2.77803 0.853999 2.75103 0.919999 2.70303 0.967999C2.54703 1.16 2.41203 1.394 2.29803 1.67C2.19003 1.946 2.12103 2.243 2.09103 2.561C2.06103 2.873 2.07603 3.197 2.13603 3.533C2.19603 3.869 2.31903 4.193 2.50503 4.505C2.58303 4.631 2.60403 4.745 2.56803 4.847C2.53803 4.943 2.46603 5.015 2.35203 5.063L1.36203 5.45ZM4.09803 5.45C3.84603 5.024 3.67503 4.577 3.58503 4.109C3.49503 3.635 3.48603 3.167 3.55803 2.705C3.63003 2.243 3.78003 1.802 4.00803 1.382C4.23603 0.955999 4.53903 0.575 4.91703 0.239L5.40303 0.544999C5.49303 0.605 5.53203 0.68 5.52003 0.77C5.51403 0.853999 5.48703 0.919999 5.43903 0.967999C5.28303 1.16 5.14803 1.394 5.03403 1.67C4.92603 1.946 4.85703 2.243 4.82703 2.561C4.79703 2.873 4.81203 3.197 4.87203 3.533C4.93203 3.869 5.05503 4.193 5.24103 4.505C5.31903 4.631 5.34003 4.745 5.30403 4.847C5.27403 4.943 5.20203 5.015 5.08803 5.063L4.09803 5.45ZM18.5383 1.103L13.2823 14H11.7163L6.46025 1.103H7.85525C8.01125 1.103 8.13725 1.142 8.23325 1.22C8.32925 1.298 8.40125 1.397 8.44925 1.517L12.0853 10.616C12.1633 10.82 12.2383 11.042 12.3103 11.282C12.3883 11.522 12.4573 11.774 12.5173 12.038C12.5773 11.774 12.6403 11.522 12.7063 11.282C12.7723 11.042 12.8443 10.82 12.9223 10.616L16.5493 1.517C16.5853 1.415 16.6543 1.322 16.7563 1.238C16.8643 1.148 16.9933 1.103 17.1433 1.103H18.5383ZM24.6054 8.447C24.6054 8.075 24.5514 7.736 24.4434 7.43C24.3414 7.118 24.1884 6.851 23.9844 6.629C23.7864 6.401 23.5434 6.227 23.2554 6.107C22.9674 5.981 22.6404 5.918 22.2744 5.918C21.5064 5.918 20.8974 6.143 20.4474 6.593C20.0034 7.037 19.7274 7.655 19.6194 8.447H24.6054ZM25.9014 12.722C25.7034 12.962 25.4664 13.172 25.1904 13.352C24.9144 13.526 24.6174 13.67 24.2994 13.784C23.9874 13.898 23.6634 13.982 23.3274 14.036C22.9914 14.096 22.6584 14.126 22.3284 14.126C21.6984 14.126 21.1164 14.021 20.5824 13.811C20.0544 13.595 19.5954 13.283 19.2054 12.875C18.8214 12.461 18.5214 11.951 18.3054 11.345C18.0894 10.739 17.9814 10.043 17.9814 9.257C17.9814 8.621 18.0774 8.027 18.2694 7.475C18.4674 6.923 18.7494 6.446 19.1154 6.044C19.4814 5.636 19.9284 5.318 20.4564 5.09C20.9844 4.856 21.5784 4.739 22.2384 4.739C22.7844 4.739 23.2884 4.832 23.7504 5.018C24.2184 5.198 24.6204 5.462 24.9564 5.81C25.2984 6.152 25.5654 6.578 25.7574 7.088C25.9494 7.592 26.0454 8.168 26.0454 8.816C26.0454 9.068 26.0184 9.236 25.9644 9.32C25.9104 9.404 25.8084 9.446 25.6584 9.446H19.5654C19.5834 10.022 19.6614 10.523 19.7994 10.949C19.9434 11.375 20.1414 11.732 20.3934 12.02C20.6454 12.302 20.9454 12.515 21.2934 12.659C21.6414 12.797 22.0314 12.866 22.4634 12.866C22.8654 12.866 23.2104 12.821 23.4984 12.731C23.7924 12.635 24.0444 12.533 24.2544 12.425C24.4644 12.317 24.6384 12.218 24.7764 12.128C24.9204 12.032 25.0434 11.984 25.1454 11.984C25.2774 11.984 25.3794 12.035 25.4514 12.137L25.9014 12.722ZM33.3231 6.386C33.2511 6.518 33.1401 6.584 32.9901 6.584C32.9001 6.584 32.7981 6.551 32.6841 6.485C32.5701 6.419 32.4291 6.347 32.2611 6.269C32.0991 6.185 31.9041 6.11 31.6761 6.044C31.4481 5.972 31.1781 5.936 30.8661 5.936C30.5961 5.936 30.3531 5.972 30.1371 6.044C29.9211 6.11 29.7351 6.203 29.5791 6.323C29.4291 6.443 29.3121 6.584 29.2281 6.746C29.1501 6.902 29.1111 7.073 29.1111 7.259C29.1111 7.493 29.1771 7.688 29.3091 7.844C29.4471 8 29.6271 8.135 29.8491 8.249C30.0711 8.363 30.3231 8.465 30.6051 8.555C30.8871 8.639 31.1751 8.732 31.4691 8.834C31.7691 8.93 32.0601 9.038 32.3421 9.158C32.6241 9.278 32.8761 9.428 33.0981 9.608C33.3201 9.788 33.4971 10.01 33.6291 10.274C33.7671 10.532 33.8361 10.844 33.8361 11.21C33.8361 11.63 33.7611 12.02 33.6111 12.38C33.4611 12.734 33.2391 13.043 32.9451 13.307C32.6511 13.565 32.2911 13.769 31.8651 13.919C31.4391 14.069 30.9471 14.144 30.3891 14.144C29.7531 14.144 29.1771 14.042 28.6611 13.838C28.1451 13.628 27.7071 13.361 27.3471 13.037L27.7251 12.425C27.7731 12.347 27.8301 12.287 27.8961 12.245C27.9621 12.203 28.0461 12.182 28.1481 12.182C28.2561 12.182 28.3701 12.224 28.4901 12.308C28.6101 12.392 28.7541 12.485 28.9221 12.587C29.0961 12.689 29.3061 12.782 29.5521 12.866C29.7981 12.95 30.1041 12.992 30.4701 12.992C30.7821 12.992 31.0551 12.953 31.2891 12.875C31.5231 12.791 31.7181 12.68 31.8741 12.542C32.0301 12.404 32.1441 12.245 32.2161 12.065C32.2941 11.885 32.3331 11.693 32.3331 11.489C32.3331 11.237 32.2641 11.03 32.1261 10.868C31.9941 10.7 31.8171 10.559 31.5951 10.445C31.3731 10.325 31.1181 10.223 30.8301 10.139C30.5481 10.049 30.2571 9.956 29.9571 9.86C29.6631 9.764 29.3721 9.656 29.0841 9.536C28.8021 9.41 28.5501 9.254 28.3281 9.068C28.1061 8.882 27.9261 8.654 27.7881 8.384C27.6561 8.108 27.5901 7.775 27.5901 7.385C27.5901 7.037 27.6621 6.704 27.8061 6.386C27.9501 6.062 28.1601 5.78 28.4361 5.54C28.7121 5.294 29.0511 5.099 29.4531 4.955C29.8551 4.811 30.3141 4.739 30.8301 4.739C31.4301 4.739 31.9671 4.835 32.4411 5.027C32.9211 5.213 33.3351 5.471 33.6831 5.801L33.3231 6.386ZM44.2603 14H42.6583V6.224H37.9603V11.696C37.9603 12.08 38.0533 12.365 38.2393 12.551C38.4253 12.737 38.6653 12.83 38.9593 12.83C39.1273 12.83 39.2713 12.809 39.3913 12.767C39.5173 12.719 39.6253 12.668 39.7153 12.614C39.8053 12.56 39.8803 12.512 39.9403 12.47C40.0063 12.422 40.0633 12.398 40.1113 12.398C40.1953 12.398 40.2703 12.449 40.3363 12.551L40.8043 13.316C40.5283 13.574 40.1953 13.778 39.8053 13.928C39.4153 14.072 39.0133 14.144 38.5993 14.144C37.8793 14.144 37.3243 13.943 36.9343 13.541C36.5503 13.139 36.3583 12.56 36.3583 11.804V6.224H35.2603C35.1643 6.224 35.0833 6.197 35.0173 6.143C34.9513 6.083 34.9183 5.993 34.9183 5.873V5.234L36.4123 5.036L36.7812 2.228C36.7993 2.138 36.8383 2.066 36.8983 2.012C36.9643 1.952 37.0483 1.922 37.1503 1.922H37.9603V5.063H44.2603V14ZM44.6562 1.958C44.6562 2.114 44.6233 2.261 44.5573 2.399C44.4973 2.531 44.4133 2.648 44.3053 2.75C44.2033 2.852 44.0833 2.933 43.9453 2.993C43.8073 3.053 43.6603 3.083 43.5043 3.083C43.3483 3.083 43.2013 3.053 43.0633 2.993C42.9313 2.933 42.8143 2.852 42.7123 2.75C42.6103 2.648 42.5293 2.531 42.4693 2.399C42.4093 2.261 42.3793 2.114 42.3793 1.958C42.3793 1.802 42.4093 1.655 42.4693 1.517C42.5293 1.373 42.6103 1.25 42.7123 1.148C42.8143 1.04 42.9313 0.955999 43.0633 0.895999C43.2013 0.835999 43.3483 0.805999 43.5043 0.805999C43.6603 0.805999 43.8073 0.835999 43.9453 0.895999C44.0833 0.955999 44.2033 1.04 44.3053 1.148C44.4133 1.25 44.4973 1.373 44.5573 1.517C44.6233 1.655 44.6562 1.802 44.6562 1.958ZM48.503 11.804C48.797 12.2 49.118 12.479 49.466 12.641C49.82 12.803 50.207 12.884 50.627 12.884C51.485 12.884 52.142 12.581 52.598 11.975C53.054 11.369 53.282 10.466 53.282 9.266C53.282 8.15 53.078 7.331 52.67 6.809C52.268 6.281 51.692 6.017 50.942 6.017C50.42 6.017 49.964 6.137 49.574 6.377C49.19 6.617 48.833 6.956 48.503 7.394V11.804ZM48.503 6.197C48.887 5.753 49.319 5.399 49.799 5.135C50.285 4.871 50.843 4.739 51.473 4.739C52.007 4.739 52.487 4.841 52.913 5.045C53.345 5.249 53.711 5.546 54.011 5.936C54.311 6.32 54.539 6.788 54.695 7.34C54.857 7.892 54.938 8.513 54.938 9.203C54.938 9.941 54.848 10.613 54.668 11.219C54.488 11.825 54.227 12.344 53.885 12.776C53.549 13.202 53.138 13.535 52.652 13.775C52.166 14.009 51.62 14.126 51.014 14.126C50.414 14.126 49.907 14.015 49.493 13.793C49.085 13.565 48.728 13.244 48.422 12.83L48.341 13.658C48.293 13.886 48.155 14 47.927 14H46.892V0.743H48.503V6.197ZM64.4613 4.883V14H63.5073C63.2793 14 63.1353 13.889 63.0753 13.667L62.9493 12.686C62.5533 13.124 62.1093 13.478 61.6173 13.748C61.1253 14.012 60.5613 14.144 59.9253 14.144C59.4273 14.144 58.9863 14.063 58.6023 13.901C58.2243 13.733 57.9063 13.499 57.6483 13.199C57.3903 12.899 57.1953 12.536 57.0633 12.11C56.9373 11.684 56.8743 11.213 56.8743 10.697V4.883H58.4763V10.697C58.4763 11.387 58.6323 11.921 58.9443 12.299C59.2623 12.677 59.7453 12.866 60.3933 12.866C60.8673 12.866 61.3083 12.755 61.7163 12.533C62.1303 12.305 62.5113 11.993 62.8593 11.597V4.883H64.4613ZM68.6574 0.743V14H67.0554V0.743H68.6574ZM78.7523 4.883V14H77.7983C77.5703 14 77.4263 13.889 77.3663 13.667L77.2403 12.686C76.8443 13.124 76.4003 13.478 75.9083 13.748C75.4163 14.012 74.8523 14.144 74.2163 14.144C73.7183 14.144 73.2773 14.063 72.8933 13.901C72.5153 13.733 72.1973 13.499 71.9393 13.199C71.6813 12.899 71.4863 12.536 71.3543 12.11C71.2283 11.684 71.1653 11.213 71.1653 10.697V4.883H72.7673V10.697C72.7673 11.387 72.9233 11.921 73.2353 12.299C73.5533 12.677 74.0363 12.866 74.6843 12.866C75.1583 12.866 75.5993 12.755 76.0073 12.533C76.4213 12.305 76.8023 11.993 77.1503 11.597V4.883H78.7523ZM81.2924 14V4.883H82.2554C82.4834 4.883 82.6244 4.994 82.6784 5.216L82.7954 6.152C83.1314 5.738 83.5094 5.399 83.9294 5.135C84.3494 4.871 84.8354 4.739 85.3874 4.739C85.9994 4.739 86.4944 4.91 86.8724 5.252C87.2564 5.594 87.5324 6.056 87.7004 6.638C87.8324 6.308 88.0004 6.023 88.2044 5.783C88.4144 5.543 88.6484 5.345 88.9064 5.189C89.1644 5.033 89.4374 4.919 89.7254 4.847C90.0194 4.775 90.3164 4.739 90.6164 4.739C91.0964 4.739 91.5224 4.817 91.8944 4.973C92.2724 5.123 92.5904 5.345 92.8484 5.639C93.1124 5.933 93.3134 6.296 93.4514 6.728C93.5894 7.154 93.6584 7.643 93.6584 8.195V14H92.0474V8.195C92.0474 7.481 91.8914 6.941 91.5794 6.575C91.2674 6.203 90.8174 6.017 90.2294 6.017C89.9654 6.017 89.7134 6.065 89.4734 6.161C89.2394 6.251 89.0324 6.386 88.8524 6.566C88.6724 6.746 88.5284 6.974 88.4204 7.25C88.3184 7.52 88.2674 7.835 88.2674 8.195V14H86.6564V8.195C86.6564 7.463 86.5094 6.917 86.2154 6.557C85.9214 6.197 85.4924 6.017 84.9284 6.017C84.5324 6.017 84.1664 6.125 83.8304 6.341C83.4944 6.551 83.1854 6.839 82.9034 7.205V14H81.2924ZM106.639 7.043C106.351 6.659 106.03 6.386 105.676 6.224C105.322 6.056 104.929 5.972 104.497 5.972C103.651 5.972 103 6.275 102.544 6.881C102.088 7.487 101.86 8.351 101.86 9.473C101.86 10.067 101.911 10.577 102.013 11.003C102.115 11.423 102.265 11.771 102.463 12.047C102.661 12.317 102.904 12.515 103.192 12.641C103.48 12.767 103.807 12.83 104.173 12.83C104.701 12.83 105.16 12.71 105.55 12.47C105.946 12.23 106.309 11.891 106.639 11.453V7.043ZM108.241 4.883V17.087H106.639V12.641C106.261 13.085 105.826 13.445 105.334 13.721C104.842 13.991 104.281 14.126 103.651 14.126C103.129 14.126 102.655 14.027 102.229 13.829C101.803 13.625 101.44 13.328 101.14 12.938C100.84 12.548 100.609 12.062 100.447 11.48C100.285 10.898 100.204 10.229 100.204 9.473C100.204 8.801 100.294 8.177 100.474 7.601C100.654 7.019 100.912 6.515 101.248 6.089C101.584 5.663 101.995 5.33 102.481 5.09C102.973 4.844 103.525 4.721 104.137 4.721C104.731 4.721 105.235 4.826 105.649 5.036C106.063 5.246 106.429 5.54 106.747 5.918L106.855 5.216C106.915 4.994 107.059 4.883 107.287 4.883H108.241ZM118.268 4.883V14H117.314C117.086 14 116.942 13.889 116.882 13.667L116.756 12.686C116.36 13.124 115.916 13.478 115.424 13.748C114.932 14.012 114.368 14.144 113.732 14.144C113.234 14.144 112.793 14.063 112.409 13.901C112.031 13.733 111.713 13.499 111.455 13.199C111.197 12.899 111.002 12.536 110.87 12.11C110.744 11.684 110.681 11.213 110.681 10.697V4.883H112.283V10.697C112.283 11.387 112.439 11.921 112.751 12.299C113.069 12.677 113.552 12.866 114.2 12.866C114.674 12.866 115.115 12.755 115.523 12.533C115.937 12.305 116.318 11.993 116.666 11.597V4.883H118.268ZM122.5 4.883V14H120.898V4.883H122.5ZM122.842 2.021C122.842 2.177 122.809 2.324 122.743 2.462C122.683 2.594 122.599 2.714 122.491 2.822C122.389 2.924 122.266 3.005 122.122 3.065C121.984 3.125 121.837 3.155 121.681 3.155C121.525 3.155 121.378 3.125 121.24 3.065C121.108 3.005 120.991 2.924 120.889 2.822C120.787 2.714 120.706 2.594 120.646 2.462C120.586 2.324 120.556 2.177 120.556 2.021C120.556 1.865 120.586 1.718 120.646 1.58C120.706 1.436 120.787 1.313 120.889 1.211C120.991 1.103 121.108 1.019 121.24 0.958999C121.378 0.898999 121.525 0.868999 121.681 0.868999C121.837 0.868999 121.984 0.898999 122.122 0.958999C122.266 1.019 122.389 1.103 122.491 1.211C122.599 1.313 122.683 1.436 122.743 1.58C122.809 1.718 122.842 1.865 122.842 2.021ZM130.442 6.386C130.37 6.518 130.259 6.584 130.109 6.584C130.019 6.584 129.917 6.551 129.803 6.485C129.689 6.419 129.548 6.347 129.38 6.269C129.218 6.185 129.023 6.11 128.795 6.044C128.567 5.972 128.297 5.936 127.985 5.936C127.715 5.936 127.472 5.972 127.256 6.044C127.04 6.11 126.854 6.203 126.698 6.323C126.548 6.443 126.431 6.584 126.347 6.746C126.269 6.902 126.23 7.073 126.23 7.259C126.23 7.493 126.296 7.688 126.428 7.844C126.566 8 126.746 8.135 126.968 8.249C127.19 8.363 127.442 8.465 127.724 8.555C128.006 8.639 128.294 8.732 128.588 8.834C128.888 8.93 129.179 9.038 129.461 9.158C129.743 9.278 129.995 9.428 130.217 9.608C130.439 9.788 130.616 10.01 130.748 10.274C130.886 10.532 130.955 10.844 130.955 11.21C130.955 11.63 130.88 12.02 130.73 12.38C130.58 12.734 130.358 13.043 130.064 13.307C129.77 13.565 129.41 13.769 128.984 13.919C128.558 14.069 128.066 14.144 127.508 14.144C126.872 14.144 126.296 14.042 125.78 13.838C125.264 13.628 124.826 13.361 124.466 13.037L124.844 12.425C124.892 12.347 124.949 12.287 125.015 12.245C125.081 12.203 125.165 12.182 125.267 12.182C125.375 12.182 125.489 12.224 125.609 12.308C125.729 12.392 125.873 12.485 126.041 12.587C126.215 12.689 126.425 12.782 126.671 12.866C126.917 12.95 127.223 12.992 127.589 12.992C127.901 12.992 128.174 12.953 128.408 12.875C128.642 12.791 128.837 12.68 128.993 12.542C129.149 12.404 129.263 12.245 129.335 12.065C129.413 11.885 129.452 11.693 129.452 11.489C129.452 11.237 129.383 11.03 129.245 10.868C129.113 10.7 128.936 10.559 128.714 10.445C128.492 10.325 128.237 10.223 127.949 10.139C127.667 10.049 127.376 9.956 127.076 9.86C126.782 9.764 126.491 9.656 126.203 9.536C125.921 9.41 125.669 9.254 125.447 9.068C125.225 8.882 125.045 8.654 124.907 8.384C124.775 8.108 124.709 7.775 124.709 7.385C124.709 7.037 124.781 6.704 124.925 6.386C125.069 6.062 125.279 5.78 125.555 5.54C125.831 5.294 126.17 5.099 126.572 4.955C126.974 4.811 127.433 4.739 127.949 4.739C128.549 4.739 129.086 4.835 129.56 5.027C130.04 5.213 130.454 5.471 130.802 5.801L130.442 6.386ZM139.136 11.804C139.43 12.2 139.751 12.479 140.099 12.641C140.447 12.803 140.837 12.884 141.269 12.884C142.121 12.884 142.775 12.581 143.231 11.975C143.687 11.369 143.915 10.505 143.915 9.383C143.915 8.789 143.861 8.279 143.753 7.853C143.651 7.427 143.501 7.079 143.303 6.809C143.105 6.533 142.862 6.332 142.574 6.206C142.286 6.08 141.959 6.017 141.593 6.017C141.071 6.017 140.612 6.137 140.216 6.377C139.826 6.617 139.466 6.956 139.136 7.394V11.804ZM139.055 6.296C139.439 5.822 139.883 5.441 140.387 5.153C140.891 4.865 141.467 4.721 142.115 4.721C142.643 4.721 143.12 4.823 143.546 5.027C143.972 5.225 144.335 5.522 144.635 5.918C144.935 6.308 145.166 6.794 145.328 7.376C145.49 7.958 145.571 8.627 145.571 9.383C145.571 10.055 145.481 10.682 145.301 11.264C145.121 11.84 144.86 12.341 144.518 12.767C144.182 13.187 143.768 13.52 143.276 13.766C142.79 14.006 142.241 14.126 141.629 14.126C141.071 14.126 140.591 14.033 140.189 13.847C139.793 13.655 139.442 13.391 139.136 13.055V17.087H137.525V4.883H138.488C138.716 4.883 138.857 4.994 138.911 5.216L139.055 6.296ZM151.458 4.739C152.124 4.739 152.724 4.85 153.258 5.072C153.792 5.294 154.248 5.609 154.626 6.017C155.004 6.425 155.292 6.92 155.49 7.502C155.694 8.078 155.796 8.723 155.796 9.437C155.796 10.157 155.694 10.805 155.49 11.381C155.292 11.957 155.004 12.449 154.626 12.857C154.248 13.265 153.792 13.58 153.258 13.802C152.724 14.018 152.124 14.126 151.458 14.126C150.786 14.126 150.18 14.018 149.64 13.802C149.106 13.58 148.65 13.265 148.272 12.857C147.894 12.449 147.603 11.957 147.399 11.381C147.201 10.805 147.102 10.157 147.102 9.437C147.102 8.723 147.201 8.078 147.399 7.502C147.603 6.92 147.894 6.425 148.272 6.017C148.65 5.609 149.106 5.294 149.64 5.072C150.18 4.85 150.786 4.739 151.458 4.739ZM151.458 12.875C152.358 12.875 153.03 12.575 153.474 11.975C153.918 11.369 154.14 10.526 154.14 9.446C154.14 8.36 153.918 7.514 153.474 6.908C153.03 6.302 152.358 5.999 151.458 5.999C151.002 5.999 150.603 6.077 150.261 6.233C149.925 6.389 149.643 6.614 149.415 6.908C149.193 7.202 149.025 7.565 148.911 7.997C148.803 8.423 148.749 8.906 148.749 9.446C148.749 10.526 148.971 11.369 149.415 11.975C149.865 12.575 150.546 12.875 151.458 12.875ZM159.349 6.71C159.637 6.086 159.991 5.6 160.411 5.252C160.831 4.898 161.344 4.721 161.95 4.721C162.142 4.721 162.325 4.742 162.499 4.784C162.679 4.826 162.838 4.892 162.976 4.982L162.859 6.179C162.823 6.329 162.733 6.404 162.589 6.404C162.505 6.404 162.382 6.386 162.22 6.35C162.058 6.314 161.875 6.296 161.671 6.296C161.383 6.296 161.125 6.338 160.897 6.422C160.675 6.506 160.474 6.632 160.294 6.8C160.12 6.962 159.961 7.166 159.817 7.412C159.679 7.652 159.553 7.928 159.439 8.24V14H157.828V4.883H158.746C158.92 4.883 159.04 4.916 159.106 4.982C159.172 5.048 159.217 5.162 159.241 5.324L159.349 6.71ZM178.505 14H176.903V6.224H172.385V11.696C172.385 12.08 172.478 12.365 172.664 12.551C172.856 12.737 173.096 12.83 173.384 12.83C173.552 12.83 173.696 12.809 173.816 12.767C173.942 12.719 174.05 12.668 174.14 12.614C174.23 12.56 174.305 12.512 174.365 12.47C174.431 12.422 174.488 12.398 174.536 12.398C174.626 12.398 174.701 12.449 174.761 12.551L175.238 13.316C174.956 13.574 174.62 13.778 174.23 13.928C173.84 14.072 173.438 14.144 173.024 14.144C172.31 14.144 171.758 13.943 171.368 13.541C170.978 13.139 170.783 12.56 170.783 11.804V6.224H166.544V11.696C166.544 12.08 166.637 12.365 166.823 12.551C167.009 12.737 167.249 12.83 167.543 12.83C167.711 12.83 167.855 12.809 167.975 12.767C168.101 12.719 168.209 12.668 168.299 12.614C168.389 12.56 168.464 12.512 168.524 12.47C168.59 12.422 168.647 12.398 168.695 12.398C168.779 12.398 168.854 12.449 168.92 12.551L169.388 13.316C169.112 13.574 168.779 13.778 168.389 13.928C167.999 14.072 167.597 14.144 167.183 14.144C166.463 14.144 165.908 13.943 165.518 13.541C165.134 13.139 164.942 12.56 164.942 11.804V6.224H163.844C163.748 6.224 163.667 6.197 163.601 6.143C163.535 6.083 163.502 5.993 163.502 5.873V5.234L164.996 5.036L165.365 2.228C165.383 2.138 165.422 2.066 165.482 2.012C165.548 1.952 165.632 1.922 165.734 1.922H166.544V5.063H170.837L171.206 2.228C171.224 2.138 171.263 2.066 171.323 2.012C171.389 1.952 171.473 1.922 171.575 1.922H172.385V5.063H178.505V14ZM178.874 1.958C178.874 2.114 178.841 2.261 178.775 2.399C178.715 2.531 178.631 2.648 178.523 2.75C178.421 2.852 178.301 2.933 178.163 2.993C178.025 3.053 177.878 3.083 177.722 3.083C177.566 3.083 177.419 3.053 177.281 2.993C177.149 2.933 177.032 2.852 176.93 2.75C176.828 2.648 176.747 2.531 176.687 2.399C176.627 2.261 176.597 2.114 176.597 1.958C176.597 1.802 176.627 1.655 176.687 1.517C176.747 1.373 176.828 1.25 176.93 1.148C177.032 1.04 177.149 0.955999 177.281 0.895999C177.419 0.835999 177.566 0.805999 177.722 0.805999C177.878 0.805999 178.025 0.835999 178.163 0.895999C178.301 0.955999 178.421 1.04 178.523 1.148C178.631 1.25 178.715 1.373 178.775 1.517C178.841 1.655 178.874 1.802 178.874 1.958ZM183.935 14.144C183.215 14.144 182.66 13.943 182.27 13.541C181.886 13.139 181.694 12.56 181.694 11.804V6.224H180.596C180.5 6.224 180.419 6.197 180.353 6.143C180.287 6.083 180.254 5.993 180.254 5.873V5.234L181.748 5.045L182.117 2.228C182.135 2.138 182.174 2.066 182.234 2.012C182.3 1.952 182.384 1.922 182.486 1.922H183.296V5.063H185.933V6.224H183.296V11.696C183.296 12.08 183.389 12.365 183.575 12.551C183.761 12.737 184.001 12.83 184.295 12.83C184.463 12.83 184.607 12.809 184.727 12.767C184.853 12.719 184.961 12.668 185.051 12.614C185.141 12.56 185.216 12.512 185.276 12.47C185.342 12.422 185.399 12.398 185.447 12.398C185.531 12.398 185.606 12.449 185.672 12.551L186.14 13.316C185.864 13.574 185.531 13.778 185.141 13.928C184.751 14.072 184.349 14.144 183.935 14.144ZM191.378 4.739C192.044 4.739 192.644 4.85 193.178 5.072C193.712 5.294 194.168 5.609 194.546 6.017C194.924 6.425 195.212 6.92 195.41 7.502C195.614 8.078 195.716 8.723 195.716 9.437C195.716 10.157 195.614 10.805 195.41 11.381C195.212 11.957 194.924 12.449 194.546 12.857C194.168 13.265 193.712 13.58 193.178 13.802C192.644 14.018 192.044 14.126 191.378 14.126C190.706 14.126 190.1 14.018 189.56 13.802C189.026 13.58 188.57 13.265 188.192 12.857C187.814 12.449 187.523 11.957 187.319 11.381C187.121 10.805 187.022 10.157 187.022 9.437C187.022 8.723 187.121 8.078 187.319 7.502C187.523 6.92 187.814 6.425 188.192 6.017C188.57 5.609 189.026 5.294 189.56 5.072C190.1 4.85 190.706 4.739 191.378 4.739ZM191.378 12.875C192.278 12.875 192.95 12.575 193.394 11.975C193.838 11.369 194.06 10.526 194.06 9.446C194.06 8.36 193.838 7.514 193.394 6.908C192.95 6.302 192.278 5.999 191.378 5.999C190.922 5.999 190.523 6.077 190.181 6.233C189.845 6.389 189.563 6.614 189.335 6.908C189.113 7.202 188.945 7.565 188.831 7.997C188.723 8.423 188.669 8.906 188.669 9.446C188.669 10.526 188.891 11.369 189.335 11.975C189.785 12.575 190.466 12.875 191.378 12.875ZM199.269 6.71C199.557 6.086 199.911 5.6 200.331 5.252C200.751 4.898 201.264 4.721 201.87 4.721C202.062 4.721 202.245 4.742 202.419 4.784C202.599 4.826 202.758 4.892 202.896 4.982L202.779 6.179C202.743 6.329 202.653 6.404 202.509 6.404C202.425 6.404 202.302 6.386 202.14 6.35C201.978 6.314 201.795 6.296 201.591 6.296C201.303 6.296 201.045 6.338 200.817 6.422C200.595 6.506 200.394 6.632 200.214 6.8C200.04 6.962 199.881 7.166 199.737 7.412C199.599 7.652 199.473 7.928 199.359 8.24V14H197.748V4.883H198.666C198.84 4.883 198.96 4.916 199.026 4.982C199.092 5.048 199.137 5.162 199.161 5.324L199.269 6.71ZM214.463 7.052C214.163 6.65 213.839 6.371 213.491 6.215C213.143 6.053 212.753 5.972 212.321 5.972C211.475 5.972 210.824 6.275 210.368 6.881C209.912 7.487 209.684 8.351 209.684 9.473C209.684 10.067 209.735 10.577 209.837 11.003C209.939 11.423 210.089 11.771 210.287 12.047C210.485 12.317 210.728 12.515 211.016 12.641C211.304 12.767 211.631 12.83 211.997 12.83C212.525 12.83 212.984 12.71 213.374 12.47C213.77 12.23 214.133 11.891 214.463 11.453V7.052ZM216.065 0.743V14H215.111C214.883 14 214.739 13.889 214.679 13.667L214.535 12.56C214.145 13.028 213.701 13.406 213.203 13.694C212.705 13.982 212.129 14.126 211.475 14.126C210.953 14.126 210.479 14.027 210.053 13.829C209.627 13.625 209.264 13.328 208.964 12.938C208.664 12.548 208.433 12.062 208.271 11.48C208.109 10.898 208.028 10.229 208.028 9.473C208.028 8.801 208.118 8.177 208.298 7.601C208.478 7.019 208.736 6.515 209.072 6.089C209.408 5.663 209.819 5.33 210.305 5.09C210.797 4.844 211.349 4.721 211.961 4.721C212.519 4.721 212.996 4.817 213.392 5.009C213.794 5.195 214.151 5.456 214.463 5.792V0.743H216.065ZM226.092 4.883V14H225.138C224.91 14 224.766 13.889 224.706 13.667L224.58 12.686C224.184 13.124 223.74 13.478 223.248 13.748C222.756 14.012 222.192 14.144 221.556 14.144C221.058 14.144 220.617 14.063 220.233 13.901C219.855 13.733 219.537 13.499 219.279 13.199C219.021 12.899 218.826 12.536 218.694 12.11C218.568 11.684 218.505 11.213 218.505 10.697V4.883H220.107V10.697C220.107 11.387 220.263 11.921 220.575 12.299C220.893 12.677 221.376 12.866 222.024 12.866C222.498 12.866 222.939 12.755 223.347 12.533C223.761 12.305 224.142 11.993 224.49 11.597V4.883H226.092ZM230.324 4.883V14H228.722V4.883H230.324ZM230.666 2.021C230.666 2.177 230.633 2.324 230.567 2.462C230.507 2.594 230.423 2.714 230.315 2.822C230.213 2.924 230.09 3.005 229.946 3.065C229.808 3.125 229.661 3.155 229.505 3.155C229.349 3.155 229.202 3.125 229.064 3.065C228.932 3.005 228.815 2.924 228.713 2.822C228.611 2.714 228.53 2.594 228.47 2.462C228.41 2.324 228.38 2.177 228.38 2.021C228.38 1.865 228.41 1.718 228.47 1.58C228.53 1.436 228.611 1.313 228.713 1.211C228.815 1.103 228.932 1.019 229.064 0.958999C229.202 0.898999 229.349 0.868999 229.505 0.868999C229.661 0.868999 229.808 0.898999 229.946 0.958999C230.09 1.019 230.213 1.103 230.315 1.211C230.423 1.313 230.507 1.436 230.567 1.58C230.633 1.718 230.666 1.865 230.666 2.021ZM234.883 1.103V6.251C234.883 6.521 234.877 6.785 234.865 7.043C234.853 7.301 234.838 7.562 234.82 7.826C234.802 8.084 234.778 8.351 234.748 8.627C234.724 8.897 234.694 9.188 234.658 9.5H233.578C233.542 9.188 233.509 8.897 233.479 8.627C233.455 8.351 233.434 8.084 233.416 7.826C233.398 7.562 233.383 7.301 233.371 7.043C233.359 6.785 233.353 6.521 233.353 6.251V1.103H234.883ZM232.966 13.01C232.966 12.854 232.993 12.707 233.047 12.569C233.107 12.431 233.188 12.311 233.29 12.209C233.392 12.107 233.509 12.026 233.641 11.966C233.779 11.906 233.929 11.876 234.091 11.876C234.247 11.876 234.391 11.906 234.523 11.966C234.661 12.026 234.781 12.107 234.883 12.209C234.985 12.311 235.066 12.431 235.126 12.569C235.186 12.707 235.216 12.854 235.216 13.01C235.216 13.172 235.186 13.322 235.126 13.46C235.066 13.592 234.985 13.709 234.883 13.811C234.781 13.913 234.661 13.991 234.523 14.045C234.391 14.105 234.247 14.135 234.091 14.135C233.929 14.135 233.779 14.105 233.641 14.045C233.509 13.991 233.392 13.913 233.29 13.811C233.188 13.709 233.107 13.592 233.047 13.46C232.993 13.322 232.966 13.172 232.966 13.01ZM243.764 7.556C243.764 8.348 243.872 9.059 244.088 9.689C244.304 10.313 244.61 10.844 245.006 11.282C245.408 11.714 245.891 12.047 246.455 12.281C247.019 12.509 247.646 12.623 248.336 12.623C249.032 12.623 249.662 12.509 250.226 12.281C250.79 12.047 251.27 11.714 251.666 11.282C252.062 10.844 252.368 10.313 252.584 9.689C252.8 9.059 252.908 8.348 252.908 7.556C252.908 6.764 252.8 6.053 252.584 5.423C252.368 4.793 252.062 4.262 251.666 3.83C251.27 3.392 250.79 3.056 250.226 2.822C249.662 2.588 249.032 2.471 248.336 2.471C247.646 2.471 247.019 2.588 246.455 2.822C245.891 3.056 245.408 3.392 245.006 3.83C244.61 4.262 244.304 4.793 244.088 5.423C243.872 6.053 243.764 6.764 243.764 7.556ZM255.293 16.664H253.853C253.637 16.664 253.445 16.634 253.277 16.574C253.109 16.514 252.956 16.409 252.818 16.259L250.559 13.793C249.875 14.021 249.134 14.135 248.336 14.135C247.388 14.135 246.524 13.976 245.744 13.658C244.964 13.334 244.295 12.881 243.737 12.299C243.179 11.717 242.747 11.024 242.441 10.22C242.135 9.41 241.982 8.522 241.982 7.556C241.982 6.59 242.135 5.705 242.441 4.901C242.747 4.091 243.179 3.395 243.737 2.813C244.295 2.225 244.964 1.769 245.744 1.445C246.524 1.121 247.388 0.958999 248.336 0.958999C249.284 0.958999 250.148 1.121 250.928 1.445C251.714 1.769 252.386 2.225 252.944 2.813C253.502 3.395 253.934 4.091 254.24 4.901C254.546 5.705 254.699 6.59 254.699 7.556C254.699 8.162 254.636 8.738 254.51 9.284C254.39 9.83 254.213 10.34 253.979 10.814C253.745 11.282 253.46 11.708 253.124 12.092C252.788 12.476 252.41 12.809 251.99 13.091L255.293 16.664ZM264.166 4.883V14H263.212C262.984 14 262.84 13.889 262.78 13.667L262.654 12.686C262.258 13.124 261.814 13.478 261.322 13.748C260.83 14.012 260.266 14.144 259.63 14.144C259.132 14.144 258.691 14.063 258.307 13.901C257.929 13.733 257.611 13.499 257.353 13.199C257.095 12.899 256.9 12.536 256.768 12.11C256.642 11.684 256.579 11.213 256.579 10.697V4.883H258.181V10.697C258.181 11.387 258.337 11.921 258.649 12.299C258.967 12.677 259.45 12.866 260.098 12.866C260.572 12.866 261.013 12.755 261.421 12.533C261.835 12.305 262.216 11.993 262.564 11.597V4.883H264.166ZM268.399 4.883V14H266.797V4.883H268.399ZM268.741 2.021C268.741 2.177 268.708 2.324 268.642 2.462C268.582 2.594 268.498 2.714 268.39 2.822C268.288 2.924 268.165 3.005 268.021 3.065C267.882 3.125 267.736 3.155 267.58 3.155C267.424 3.155 267.277 3.125 267.139 3.065C267.007 3.005 266.89 2.924 266.788 2.822C266.686 2.714 266.605 2.594 266.545 2.462C266.485 2.324 266.455 2.177 266.455 2.021C266.455 1.865 266.485 1.718 266.545 1.58C266.605 1.436 266.686 1.313 266.788 1.211C266.89 1.103 267.007 1.019 267.139 0.958999C267.277 0.898999 267.424 0.868999 267.58 0.868999C267.736 0.868999 267.882 0.898999 268.021 0.958999C268.165 1.019 268.288 1.103 268.39 1.211C268.498 1.313 268.582 1.436 268.642 1.58C268.708 1.718 268.741 1.865 268.741 2.021ZM276.341 6.386C276.269 6.518 276.158 6.584 276.008 6.584C275.918 6.584 275.816 6.551 275.702 6.485C275.588 6.419 275.447 6.347 275.279 6.269C275.117 6.185 274.922 6.11 274.694 6.044C274.466 5.972 274.196 5.936 273.884 5.936C273.614 5.936 273.371 5.972 273.155 6.044C272.939 6.11 272.753 6.203 272.597 6.323C272.447 6.443 272.33 6.584 272.246 6.746C272.168 6.902 272.129 7.073 272.129 7.259C272.129 7.493 272.195 7.688 272.327 7.844C272.465 8 272.645 8.135 272.867 8.249C273.089 8.363 273.341 8.465 273.623 8.555C273.905 8.639 274.193 8.732 274.487 8.834C274.787 8.93 275.078 9.038 275.36 9.158C275.642 9.278 275.894 9.428 276.116 9.608C276.338 9.788 276.515 10.01 276.647 10.274C276.785 10.532 276.854 10.844 276.854 11.21C276.854 11.63 276.779 12.02 276.629 12.38C276.479 12.734 276.257 13.043 275.963 13.307C275.669 13.565 275.309 13.769 274.883 13.919C274.457 14.069 273.965 14.144 273.407 14.144C272.771 14.144 272.195 14.042 271.679 13.838C271.163 13.628 270.725 13.361 270.365 13.037L270.743 12.425C270.791 12.347 270.848 12.287 270.914 12.245C270.98 12.203 271.064 12.182 271.166 12.182C271.274 12.182 271.388 12.224 271.508 12.308C271.628 12.392 271.772 12.485 271.94 12.587C272.114 12.689 272.324 12.782 272.57 12.866C272.816 12.95 273.122 12.992 273.488 12.992C273.8 12.992 274.073 12.953 274.307 12.875C274.541 12.791 274.736 12.68 274.892 12.542C275.048 12.404 275.162 12.245 275.234 12.065C275.312 11.885 275.351 11.693 275.351 11.489C275.351 11.237 275.282 11.03 275.144 10.868C275.012 10.7 274.835 10.559 274.613 10.445C274.391 10.325 274.136 10.223 273.848 10.139C273.566 10.049 273.275 9.956 272.975 9.86C272.681 9.764 272.39 9.656 272.102 9.536C271.82 9.41 271.568 9.254 271.346 9.068C271.124 8.882 270.944 8.654 270.806 8.384C270.674 8.108 270.608 7.775 270.608 7.385C270.608 7.037 270.68 6.704 270.824 6.386C270.968 6.062 271.178 5.78 271.454 5.54C271.73 5.294 272.069 5.099 272.471 4.955C272.873 4.811 273.332 4.739 273.848 4.739C274.448 4.739 274.985 4.835 275.459 5.027C275.939 5.213 276.353 5.471 276.701 5.801L276.341 6.386ZM284.758 7.043C284.47 6.659 284.149 6.386 283.795 6.224C283.441 6.056 283.048 5.972 282.616 5.972C281.77 5.972 281.119 6.275 280.663 6.881C280.207 7.487 279.979 8.351 279.979 9.473C279.979 10.067 280.03 10.577 280.132 11.003C280.234 11.423 280.384 11.771 280.582 12.047C280.78 12.317 281.023 12.515 281.311 12.641C281.599 12.767 281.926 12.83 282.292 12.83C282.82 12.83 283.279 12.71 283.669 12.47C284.065 12.23 284.428 11.891 284.758 11.453V7.043ZM286.36 4.883V17.087H284.758V12.641C284.38 13.085 283.945 13.445 283.453 13.721C282.961 13.991 282.4 14.126 281.77 14.126C281.248 14.126 280.774 14.027 280.348 13.829C279.922 13.625 279.559 13.328 279.259 12.938C278.959 12.548 278.728 12.062 278.566 11.48C278.404 10.898 278.323 10.229 278.323 9.473C278.323 8.801 278.413 8.177 278.593 7.601C278.773 7.019 279.031 6.515 279.367 6.089C279.703 5.663 280.114 5.33 280.6 5.09C281.092 4.844 281.644 4.721 282.256 4.721C282.85 4.721 283.354 4.826 283.768 5.036C284.182 5.246 284.548 5.54 284.866 5.918L284.974 5.216C285.034 4.994 285.178 4.883 285.406 4.883H286.36ZM296.387 4.883V14H295.433C295.205 14 295.061 13.889 295.001 13.667L294.875 12.686C294.479 13.124 294.035 13.478 293.543 13.748C293.051 14.012 292.487 14.144 291.851 14.144C291.353 14.144 290.912 14.063 290.528 13.901C290.15 13.733 289.832 13.499 289.574 13.199C289.316 12.899 289.121 12.536 288.989 12.11C288.863 11.684 288.8 11.213 288.8 10.697V4.883H290.402V10.697C290.402 11.387 290.558 11.921 290.87 12.299C291.188 12.677 291.671 12.866 292.319 12.866C292.793 12.866 293.234 12.755 293.642 12.533C294.056 12.305 294.437 11.993 294.785 11.597V4.883H296.387ZM305.029 8.447C305.029 8.075 304.975 7.736 304.867 7.43C304.765 7.118 304.612 6.851 304.408 6.629C304.21 6.401 303.967 6.227 303.679 6.107C303.391 5.981 303.064 5.918 302.698 5.918C301.93 5.918 301.321 6.143 300.871 6.593C300.427 7.037 300.151 7.655 300.043 8.447H305.029ZM306.325 12.722C306.127 12.962 305.89 13.172 305.614 13.352C305.338 13.526 305.041 13.67 304.723 13.784C304.411 13.898 304.087 13.982 303.751 14.036C303.415 14.096 303.082 14.126 302.752 14.126C302.122 14.126 301.54 14.021 301.006 13.811C300.478 13.595 300.019 13.283 299.629 12.875C299.245 12.461 298.945 11.951 298.729 11.345C298.513 10.739 298.405 10.043 298.405 9.257C298.405 8.621 298.501 8.027 298.693 7.475C298.891 6.923 299.173 6.446 299.539 6.044C299.905 5.636 300.352 5.318 300.88 5.09C301.408 4.856 302.002 4.739 302.662 4.739C303.208 4.739 303.712 4.832 304.174 5.018C304.642 5.198 305.044 5.462 305.38 5.81C305.722 6.152 305.989 6.578 306.181 7.088C306.373 7.592 306.469 8.168 306.469 8.816C306.469 9.068 306.442 9.236 306.388 9.32C306.334 9.404 306.232 9.446 306.082 9.446H299.989C300.007 10.022 300.085 10.523 300.223 10.949C300.367 11.375 300.565 11.732 300.817 12.02C301.069 12.302 301.369 12.515 301.717 12.659C302.065 12.797 302.455 12.866 302.887 12.866C303.289 12.866 303.634 12.821 303.922 12.731C304.216 12.635 304.468 12.533 304.678 12.425C304.888 12.317 305.062 12.218 305.2 12.128C305.344 12.032 305.467 11.984 305.569 11.984C305.701 11.984 305.803 12.035 305.875 12.137L306.325 12.722ZM37.706 26.883L33.989 36H32.549L28.832 26.883H30.137C30.269 26.883 30.377 26.916 30.461 26.982C30.545 27.048 30.602 27.126 30.632 27.216L32.945 33.084C33.017 33.306 33.08 33.522 33.134 33.732C33.188 33.942 33.239 34.152 33.287 34.362C33.335 34.152 33.386 33.942 33.44 33.732C33.494 33.522 33.56 33.306 33.638 33.084L35.978 27.216C36.014 27.12 36.074 27.042 36.158 26.982C36.242 26.916 36.341 26.883 36.455 26.883H37.706ZM40.8673 26.883V36H39.2653V26.883H40.8673ZM41.2093 24.021C41.2093 24.177 41.1763 24.324 41.1103 24.462C41.0503 24.594 40.9663 24.714 40.8583 24.822C40.7563 24.924 40.6333 25.005 40.4893 25.065C40.3512 25.125 40.2043 25.155 40.0483 25.155C39.8923 25.155 39.7453 25.125 39.6073 25.065C39.4753 25.005 39.3583 24.924 39.2563 24.822C39.1543 24.714 39.0733 24.594 39.0133 24.462C38.9533 24.324 38.9233 24.177 38.9233 24.021C38.9233 23.865 38.9533 23.718 39.0133 23.58C39.0733 23.436 39.1543 23.313 39.2563 23.211C39.3583 23.103 39.4753 23.019 39.6073 22.959C39.7453 22.899 39.8923 22.869 40.0483 22.869C40.2043 22.869 40.3512 22.899 40.4893 22.959C40.6333 23.019 40.7563 23.103 40.8583 23.211C40.9663 23.313 41.0503 23.436 41.1103 23.58C41.1763 23.718 41.2093 23.865 41.2093 24.021ZM51.3115 26.883L47.5945 36H46.1545L42.4375 26.883H43.7425C43.8745 26.883 43.9825 26.916 44.0665 26.982C44.1505 27.048 44.2075 27.126 44.2375 27.216L46.5505 33.084C46.6225 33.306 46.6855 33.522 46.7395 33.732C46.7935 33.942 46.8445 34.152 46.8925 34.362C46.9405 34.152 46.9915 33.942 47.0455 33.732C47.0995 33.522 47.1655 33.306 47.2435 33.084L49.5835 27.216C49.6195 27.12 49.6795 27.042 49.7635 26.982C49.8475 26.916 49.9465 26.883 50.0605 26.883H51.3115ZM58.6366 30.447C58.6366 30.075 58.5826 29.736 58.4746 29.43C58.3726 29.118 58.2196 28.851 58.0156 28.629C57.8176 28.401 57.5746 28.227 57.2866 28.107C56.9986 27.981 56.6716 27.918 56.3056 27.918C55.5376 27.918 54.9286 28.143 54.4786 28.593C54.0346 29.037 53.7586 29.655 53.6506 30.447H58.6366ZM59.9326 34.722C59.7346 34.962 59.4976 35.172 59.2216 35.352C58.9456 35.526 58.6486 35.67 58.3306 35.784C58.0186 35.898 57.6946 35.982 57.3586 36.036C57.0226 36.096 56.6896 36.126 56.3596 36.126C55.7296 36.126 55.1476 36.021 54.6136 35.811C54.0856 35.595 53.6266 35.283 53.2366 34.875C52.8526 34.461 52.5526 33.951 52.3366 33.345C52.1206 32.739 52.0126 32.043 52.0126 31.257C52.0126 30.621 52.1086 30.027 52.3006 29.475C52.4986 28.923 52.7806 28.446 53.1466 28.044C53.5126 27.636 53.9596 27.318 54.4876 27.09C55.0156 26.856 55.6096 26.739 56.2696 26.739C56.8156 26.739 57.3196 26.832 57.7816 27.018C58.2496 27.198 58.6516 27.462 58.9876 27.81C59.3296 28.152 59.5966 28.578 59.7886 29.088C59.9806 29.592 60.0766 30.168 60.0766 30.816C60.0766 31.068 60.0496 31.236 59.9956 31.32C59.9416 31.404 59.8396 31.446 59.6896 31.446H53.5966C53.6146 32.022 53.6926 32.523 53.8306 32.949C53.9746 33.375 54.1726 33.732 54.4246 34.02C54.6766 34.302 54.9766 34.515 55.3246 34.659C55.6726 34.797 56.0626 34.866 56.4946 34.866C56.8966 34.866 57.2416 34.821 57.5296 34.731C57.8236 34.635 58.0756 34.533 58.2856 34.425C58.4956 34.317 58.6696 34.218 58.8076 34.128C58.9516 34.032 59.0746 33.984 59.1766 33.984C59.3086 33.984 59.4106 34.035 59.4826 34.137L59.9326 34.722ZM63.5654 28.71C63.8534 28.086 64.2074 27.6 64.6274 27.252C65.0474 26.898 65.5604 26.721 66.1664 26.721C66.3584 26.721 66.5414 26.742 66.7154 26.784C66.8954 26.826 67.0544 26.892 67.1924 26.982L67.0754 28.179C67.0394 28.329 66.9494 28.404 66.8054 28.404C66.7214 28.404 66.5984 28.386 66.4364 28.35C66.2744 28.314 66.0914 28.296 65.8874 28.296C65.5994 28.296 65.3414 28.338 65.1134 28.422C64.8914 28.506 64.6904 28.632 64.5104 28.8C64.3364 28.962 64.1774 29.166 64.0334 29.412C63.8954 29.652 63.7694 29.928 63.6554 30.24V36H62.0444V26.883H62.9624C63.1364 26.883 63.2564 26.916 63.3224 26.982C63.3884 27.048 63.4334 27.162 63.4574 27.324L63.5654 28.71ZM70.122 28.71C70.41 28.086 70.764 27.6 71.184 27.252C71.604 26.898 72.117 26.721 72.723 26.721C72.915 26.721 73.098 26.742 73.272 26.784C73.452 26.826 73.611 26.892 73.749 26.982L73.632 28.179C73.596 28.329 73.506 28.404 73.362 28.404C73.278 28.404 73.155 28.386 72.993 28.35C72.831 28.314 72.648 28.296 72.444 28.296C72.156 28.296 71.898 28.338 71.67 28.422C71.448 28.506 71.247 28.632 71.067 28.8C70.893 28.962 70.734 29.166 70.59 29.412C70.452 29.652 70.326 29.928 70.212 30.24V36H68.601V26.883H69.519C69.693 26.883 69.813 26.916 69.879 26.982C69.945 27.048 69.99 27.162 70.014 27.324L70.122 28.71ZM79.958 31.896C79.22 31.92 78.59 31.98 78.068 32.076C77.552 32.166 77.129 32.286 76.799 32.436C76.475 32.586 76.238 32.763 76.088 32.967C75.944 33.171 75.872 33.399 75.872 33.651C75.872 33.891 75.911 34.098 75.989 34.272C76.067 34.446 76.172 34.59 76.304 34.704C76.442 34.812 76.601 34.893 76.781 34.947C76.967 34.995 77.165 35.019 77.375 35.019C77.657 35.019 77.915 34.992 78.149 34.938C78.383 34.878 78.602 34.794 78.806 34.686C79.016 34.578 79.214 34.449 79.4 34.299C79.592 34.149 79.778 33.978 79.958 33.786V31.896ZM74.783 28.17C75.287 27.684 75.83 27.321 76.412 27.081C76.994 26.841 77.639 26.721 78.347 26.721C78.857 26.721 79.31 26.805 79.706 26.973C80.102 27.141 80.435 27.375 80.705 27.675C80.975 27.975 81.179 28.338 81.317 28.764C81.455 29.19 81.524 29.658 81.524 30.168V36H80.813C80.657 36 80.537 35.976 80.453 35.928C80.369 35.874 80.303 35.772 80.255 35.622L80.075 34.758C79.835 34.98 79.601 35.178 79.373 35.352C79.145 35.52 78.905 35.664 78.653 35.784C78.401 35.898 78.131 35.985 77.843 36.045C77.561 36.111 77.246 36.144 76.898 36.144C76.544 36.144 76.211 36.096 75.899 36C75.587 35.898 75.314 35.748 75.08 35.55C74.852 35.352 74.669 35.103 74.531 34.803C74.399 34.497 74.333 34.137 74.333 33.723C74.333 33.363 74.432 33.018 74.63 32.688C74.828 32.352 75.149 32.055 75.593 31.797C76.037 31.539 76.616 31.329 77.33 31.167C78.044 30.999 78.92 30.903 79.958 30.879V30.168C79.958 29.46 79.805 28.926 79.499 28.566C79.193 28.2 78.746 28.017 78.158 28.017C77.762 28.017 77.429 28.068 77.159 28.17C76.895 28.266 76.664 28.377 76.466 28.503C76.274 28.623 76.106 28.734 75.962 28.836C75.824 28.932 75.686 28.98 75.548 28.98C75.44 28.98 75.347 28.953 75.269 28.899C75.191 28.839 75.125 28.767 75.071 28.683L74.783 28.17ZM90.0818 28.206C90.2798 27.984 90.4898 27.783 90.7118 27.603C90.9338 27.423 91.1678 27.27 91.4138 27.144C91.6658 27.012 91.9298 26.913 92.2058 26.847C92.4878 26.775 92.7908 26.739 93.1148 26.739C93.6128 26.739 94.0508 26.823 94.4288 26.991C94.8128 27.153 95.1308 27.387 95.3828 27.693C95.6408 27.993 95.8358 28.356 95.9678 28.782C96.0998 29.208 96.1658 29.679 96.1658 30.195V36H94.5548V30.195C94.5548 29.505 94.3958 28.971 94.0778 28.593C93.7658 28.209 93.2888 28.017 92.6468 28.017C92.1728 28.017 91.7288 28.131 91.3148 28.359C90.9068 28.587 90.5288 28.896 90.1808 29.286V36H88.5698V26.883H89.5328C89.7608 26.883 89.9018 26.994 89.9558 27.216L90.0818 28.206ZM106.104 26.883V36H105.15C104.922 36 104.778 35.889 104.718 35.667L104.592 34.686C104.196 35.124 103.752 35.478 103.26 35.748C102.768 36.012 102.204 36.144 101.568 36.144C101.07 36.144 100.629 36.063 100.245 35.901C99.8669 35.733 99.5489 35.499 99.2909 35.199C99.0329 34.899 98.8379 34.536 98.7059 34.11C98.5799 33.684 98.5169 33.213 98.5169 32.697V26.883H100.119V32.697C100.119 33.387 100.275 33.921 100.587 34.299C100.905 34.677 101.388 34.866 102.036 34.866C102.51 34.866 102.951 34.755 103.359 34.533C103.773 34.305 104.154 33.993 104.502 33.597V26.883H106.104ZM110.156 28.206C110.354 27.984 110.564 27.783 110.786 27.603C111.008 27.423 111.242 27.27 111.488 27.144C111.74 27.012 112.004 26.913 112.28 26.847C112.562 26.775 112.865 26.739 113.189 26.739C113.687 26.739 114.125 26.823 114.503 26.991C114.887 27.153 115.205 27.387 115.457 27.693C115.715 27.993 115.91 28.356 116.042 28.782C116.174 29.208 116.24 29.679 116.24 30.195V36H114.629V30.195C114.629 29.505 114.47 28.971 114.152 28.593C113.84 28.209 113.363 28.017 112.721 28.017C112.247 28.017 111.803 28.131 111.389 28.359C110.981 28.587 110.603 28.896 110.255 29.286V36H108.644V26.883H109.607C109.835 26.883 109.976 26.994 110.03 27.216L110.156 28.206ZM125.026 28.503C124.978 28.569 124.93 28.62 124.882 28.656C124.834 28.692 124.768 28.71 124.684 28.71C124.594 28.71 124.495 28.674 124.387 28.602C124.279 28.524 124.144 28.44 123.982 28.35C123.826 28.26 123.631 28.179 123.397 28.107C123.169 28.029 122.887 27.99 122.551 27.99C122.101 27.99 121.705 28.071 121.363 28.233C121.021 28.389 120.733 28.617 120.499 28.917C120.271 29.217 120.097 29.58 119.977 30.006C119.863 30.432 119.806 30.909 119.806 31.437C119.806 31.989 119.869 32.481 119.995 32.913C120.121 33.339 120.298 33.699 120.526 33.993C120.76 34.281 121.039 34.503 121.363 34.659C121.693 34.809 122.062 34.884 122.47 34.884C122.86 34.884 123.181 34.839 123.433 34.749C123.685 34.653 123.892 34.548 124.054 34.434C124.222 34.32 124.36 34.218 124.468 34.128C124.582 34.032 124.693 33.984 124.801 33.984C124.933 33.984 125.035 34.035 125.107 34.137L125.557 34.722C125.359 34.968 125.134 35.178 124.882 35.352C124.63 35.526 124.357 35.673 124.063 35.793C123.775 35.907 123.472 35.991 123.154 36.045C122.836 36.099 122.512 36.126 122.182 36.126C121.612 36.126 121.081 36.021 120.589 35.811C120.103 35.601 119.68 35.298 119.32 34.902C118.96 34.5 118.678 34.008 118.474 33.426C118.27 32.844 118.168 32.181 118.168 31.437C118.168 30.759 118.261 30.132 118.447 29.556C118.639 28.98 118.915 28.485 119.275 28.071C119.641 27.651 120.088 27.324 120.616 27.09C121.15 26.856 121.762 26.739 122.452 26.739C123.094 26.739 123.658 26.844 124.144 27.054C124.636 27.258 125.071 27.549 125.449 27.927L125.026 28.503ZM131.882 36V26.883H132.845C133.073 26.883 133.214 26.994 133.268 27.216L133.385 28.152C133.721 27.738 134.099 27.399 134.519 27.135C134.939 26.871 135.425 26.739 135.977 26.739C136.589 26.739 137.084 26.91 137.462 27.252C137.846 27.594 138.122 28.056 138.29 28.638C138.422 28.308 138.59 28.023 138.794 27.783C139.004 27.543 139.238 27.345 139.496 27.189C139.754 27.033 140.027 26.919 140.315 26.847C140.609 26.775 140.906 26.739 141.206 26.739C141.686 26.739 142.112 26.817 142.484 26.973C142.862 27.123 143.18 27.345 143.438 27.639C143.702 27.933 143.903 28.296 144.041 28.728C144.179 29.154 144.248 29.643 144.248 30.195V36H142.637V30.195C142.637 29.481 142.481 28.941 142.169 28.575C141.857 28.203 141.407 28.017 140.819 28.017C140.555 28.017 140.303 28.065 140.063 28.161C139.829 28.251 139.622 28.386 139.442 28.566C139.262 28.746 139.118 28.974 139.01 29.25C138.908 29.52 138.857 29.835 138.857 30.195V36H137.246V30.195C137.246 29.463 137.099 28.917 136.805 28.557C136.511 28.197 136.082 28.017 135.518 28.017C135.122 28.017 134.756 28.125 134.42 28.341C134.084 28.551 133.775 28.839 133.493 29.205V36H131.882ZM148.375 26.883V36H146.773V26.883H148.375ZM148.717 24.021C148.717 24.177 148.684 24.324 148.618 24.462C148.558 24.594 148.474 24.714 148.366 24.822C148.264 24.924 148.141 25.005 147.997 25.065C147.859 25.125 147.712 25.155 147.556 25.155C147.4 25.155 147.253 25.125 147.115 25.065C146.983 25.005 146.866 24.924 146.764 24.822C146.662 24.714 146.581 24.594 146.521 24.462C146.461 24.324 146.431 24.177 146.431 24.021C146.431 23.865 146.461 23.718 146.521 23.58C146.581 23.436 146.662 23.313 146.764 23.211C146.866 23.103 146.983 23.019 147.115 22.959C147.253 22.899 147.4 22.869 147.556 22.869C147.712 22.869 147.859 22.899 147.997 22.959C148.141 23.019 148.264 23.103 148.366 23.211C148.474 23.313 148.558 23.436 148.618 23.58C148.684 23.718 148.717 23.865 148.717 24.021ZM150.908 38.178C150.86 38.136 150.827 38.097 150.809 38.061C150.791 38.025 150.782 37.98 150.782 37.926C150.782 37.884 150.794 37.842 150.818 37.8C150.848 37.758 150.881 37.719 150.917 37.683C150.977 37.617 151.052 37.53 151.142 37.422C151.238 37.314 151.334 37.185 151.43 37.035C151.526 36.891 151.613 36.729 151.691 36.549C151.775 36.375 151.835 36.189 151.871 35.991C151.853 35.997 151.832 36 151.808 36C151.79 36 151.772 36 151.754 36C151.442 36 151.187 35.898 150.989 35.694C150.797 35.484 150.701 35.217 150.701 34.893C150.701 34.611 150.797 34.371 150.989 34.173C151.187 33.975 151.448 33.876 151.772 33.876C151.952 33.876 152.111 33.909 152.249 33.975C152.387 34.041 152.501 34.134 152.591 34.254C152.687 34.368 152.759 34.503 152.807 34.659C152.855 34.809 152.879 34.974 152.879 35.154C152.879 35.424 152.84 35.706 152.762 36C152.69 36.288 152.579 36.573 152.429 36.855C152.285 37.143 152.108 37.422 151.898 37.692C151.688 37.962 151.448 38.211 151.178 38.439L150.908 38.178ZM165.199 27.999C165.067 27.969 164.935 27.951 164.803 27.945C164.677 27.933 164.551 27.927 164.425 27.927C164.065 27.927 163.717 27.987 163.381 28.107C163.045 28.221 162.73 28.383 162.436 28.593C162.142 28.803 161.875 29.055 161.635 29.349C161.395 29.637 161.188 29.955 161.014 30.303C160.846 30.651 160.714 31.023 160.618 31.419C160.522 31.809 160.474 32.211 160.474 32.625C160.474 34.071 160.936 34.794 161.86 34.794C162.154 34.794 162.442 34.704 162.724 34.524C163.006 34.338 163.273 34.083 163.525 33.759C163.783 33.429 164.02 33.042 164.236 32.598C164.452 32.148 164.644 31.656 164.812 31.122L165.199 27.999ZM164.587 33.597C164.371 33.981 164.137 34.329 163.885 34.641C163.639 34.953 163.375 35.22 163.093 35.442C162.817 35.658 162.523 35.826 162.211 35.946C161.905 36.066 161.587 36.126 161.257 36.126C160.897 36.126 160.57 36.057 160.276 35.919C159.982 35.775 159.73 35.568 159.52 35.298C159.316 35.022 159.157 34.686 159.043 34.29C158.929 33.888 158.872 33.429 158.872 32.913C158.872 32.373 158.938 31.848 159.07 31.338C159.208 30.822 159.4 30.336 159.646 29.88C159.898 29.424 160.198 29.007 160.546 28.629C160.894 28.245 161.281 27.915 161.707 27.639C162.139 27.357 162.601 27.141 163.093 26.991C163.585 26.835 164.101 26.757 164.641 26.757C165.031 26.757 165.409 26.79 165.775 26.856C166.147 26.916 166.513 27.024 166.873 27.18L165.784 36H164.956C164.746 36 164.602 35.946 164.524 35.838C164.452 35.73 164.416 35.598 164.416 35.442L164.587 33.597ZM174.165 34.002C174.393 34.32 174.666 34.548 174.984 34.686C175.302 34.818 175.626 34.884 175.956 34.884C176.268 34.884 176.562 34.818 176.838 34.686C177.114 34.554 177.366 34.377 177.594 34.155C177.822 33.927 178.026 33.663 178.206 33.363C178.386 33.057 178.536 32.733 178.656 32.391C178.782 32.043 178.878 31.686 178.944 31.32C179.01 30.948 179.043 30.582 179.043 30.222C179.043 29.508 178.914 28.965 178.656 28.593C178.398 28.221 178.035 28.035 177.567 28.035C177.279 28.035 176.988 28.125 176.694 28.305C176.4 28.479 176.115 28.725 175.839 29.043C175.569 29.361 175.314 29.739 175.074 30.177C174.84 30.615 174.636 31.095 174.462 31.617L174.165 34.002ZM174.651 29.358C174.879 28.962 175.128 28.605 175.398 28.287C175.668 27.963 175.953 27.687 176.253 27.459C176.553 27.231 176.862 27.057 177.18 26.937C177.504 26.811 177.834 26.748 178.17 26.748C178.95 26.748 179.553 27.03 179.979 27.594C180.411 28.158 180.627 28.983 180.627 30.069C180.627 30.561 180.576 31.053 180.474 31.545C180.372 32.037 180.225 32.508 180.033 32.958C179.847 33.402 179.619 33.819 179.349 34.209C179.085 34.593 178.788 34.929 178.458 35.217C178.134 35.499 177.78 35.721 177.396 35.883C177.012 36.045 176.61 36.126 176.19 36.126C175.74 36.126 175.332 36.039 174.966 35.865C174.6 35.685 174.288 35.433 174.03 35.109L173.544 39.087H171.987L173.472 26.874H174.264C174.624 26.874 174.804 27.054 174.804 27.414L174.651 29.358ZM190.119 26.883L189.021 36H188.229C187.839 36 187.644 35.808 187.644 35.424L187.779 33.759C187.299 34.539 186.756 35.13 186.15 35.532C185.55 35.928 184.932 36.126 184.296 36.126C183.912 36.126 183.573 36.051 183.279 35.901C182.985 35.745 182.745 35.52 182.559 35.226C182.379 34.932 182.256 34.572 182.19 34.146C182.124 33.72 182.127 33.231 182.199 32.679L182.883 26.883H184.476L183.792 32.679C183.708 33.393 183.75 33.924 183.918 34.272C184.092 34.62 184.416 34.794 184.89 34.794C185.166 34.794 185.451 34.719 185.745 34.569C186.039 34.419 186.321 34.206 186.591 33.93C186.861 33.654 187.113 33.321 187.347 32.931C187.587 32.535 187.791 32.097 187.959 31.617L188.526 26.883H190.119ZM191.447 36L193.058 22.743H194.633L193.022 36H191.447ZM203.806 26.883L199.234 36H197.902L195.544 26.883H196.84C196.96 26.883 197.056 26.916 197.128 26.982C197.2 27.048 197.248 27.126 197.272 27.216L198.622 33.084C198.658 33.312 198.688 33.537 198.712 33.759C198.736 33.981 198.757 34.206 198.775 34.434C198.841 34.212 198.913 33.99 198.991 33.768C199.069 33.546 199.159 33.318 199.261 33.084L202.078 27.216C202.126 27.12 202.192 27.042 202.276 26.982C202.36 26.916 202.456 26.883 202.564 26.883H203.806ZM206.821 26.883L205.723 36H204.148L205.246 26.883H206.821ZM207.433 24.021C207.433 24.177 207.4 24.324 207.334 24.462C207.274 24.594 207.19 24.714 207.082 24.822C206.98 24.924 206.86 25.005 206.722 25.065C206.59 25.125 206.452 25.155 206.308 25.155C206.17 25.155 206.035 25.125 205.903 25.065C205.771 25.005 205.654 24.924 205.552 24.822C205.456 24.714 205.378 24.594 205.318 24.462C205.258 24.324 205.228 24.177 205.228 24.021C205.228 23.865 205.258 23.718 205.318 23.58C205.378 23.442 205.459 23.322 205.561 23.22C205.663 23.112 205.78 23.028 205.912 22.968C206.044 22.902 206.179 22.869 206.317 22.869C206.461 22.869 206.599 22.899 206.731 22.959C206.869 23.019 206.989 23.103 207.091 23.211C207.193 23.313 207.274 23.436 207.334 23.58C207.4 23.718 207.433 23.865 207.433 24.021ZM210.502 29.187C210.988 28.383 211.537 27.777 212.149 27.369C212.761 26.955 213.391 26.748 214.039 26.748C214.423 26.748 214.759 26.826 215.047 26.982C215.341 27.132 215.578 27.354 215.758 27.648C215.944 27.942 216.07 28.305 216.136 28.737C216.202 29.163 216.202 29.649 216.136 30.195L215.452 36H213.859L214.543 30.195C214.627 29.475 214.582 28.944 214.408 28.602C214.234 28.254 213.913 28.08 213.445 28.08C213.157 28.08 212.863 28.158 212.563 28.314C212.269 28.47 211.984 28.692 211.708 28.98C211.432 29.268 211.174 29.616 210.934 30.024C210.7 30.426 210.499 30.876 210.331 31.374L209.809 36H208.207L209.305 26.874H210.097C210.457 26.874 210.637 27.054 210.637 27.414L210.502 29.187ZM223.998 27.999C223.866 27.969 223.734 27.951 223.602 27.945C223.476 27.933 223.35 27.927 223.224 27.927C222.864 27.927 222.516 27.987 222.18 28.107C221.844 28.221 221.529 28.383 221.235 28.593C220.941 28.803 220.674 29.055 220.434 29.349C220.194 29.637 219.987 29.955 219.813 30.303C219.645 30.651 219.513 31.023 219.417 31.419C219.321 31.809 219.273 32.211 219.273 32.625C219.273 34.071 219.735 34.794 220.659 34.794C220.953 34.794 221.241 34.704 221.523 34.524C221.805 34.338 222.072 34.083 222.324 33.759C222.582 33.429 222.819 33.042 223.035 32.598C223.251 32.148 223.443 31.656 223.611 31.122L223.998 27.999ZM223.386 33.597C223.17 33.981 222.936 34.329 222.684 34.641C222.438 34.953 222.174 35.22 221.892 35.442C221.616 35.658 221.322 35.826 221.01 35.946C220.704 36.066 220.386 36.126 220.056 36.126C219.696 36.126 219.369 36.057 219.075 35.919C218.781 35.775 218.529 35.568 218.319 35.298C218.115 35.022 217.956 34.686 217.842 34.29C217.728 33.888 217.671 33.429 217.671 32.913C217.671 32.373 217.737 31.848 217.869 31.338C218.007 30.822 218.199 30.336 218.445 29.88C218.697 29.424 218.997 29.007 219.345 28.629C219.693 28.245 220.08 27.915 220.506 27.639C220.938 27.357 221.4 27.141 221.892 26.991C222.384 26.835 222.9 26.757 223.44 26.757C223.83 26.757 224.208 26.79 224.574 26.856C224.946 26.916 225.312 27.024 225.672 27.18L224.583 36H223.755C223.545 36 223.401 35.946 223.323 35.838C223.251 35.73 223.215 35.598 223.215 35.442L223.386 33.597ZM229.231 29.421C229.471 28.911 229.729 28.47 230.005 28.098C230.287 27.72 230.581 27.426 230.887 27.216C231.193 27 231.508 26.871 231.832 26.829C232.156 26.781 232.486 26.829 232.822 26.973L232.534 28.512C231.754 28.2 231.064 28.314 230.464 28.854C229.87 29.394 229.387 30.369 229.015 31.779L228.511 36H226.945L228.043 26.874H228.835C229.201 26.874 229.384 27.054 229.384 27.414L229.231 29.421ZM238.782 34.002C239.01 34.32 239.283 34.548 239.601 34.686C239.919 34.818 240.243 34.884 240.573 34.884C240.885 34.884 241.179 34.818 241.455 34.686C241.731 34.554 241.983 34.377 242.211 34.155C242.439 33.927 242.643 33.663 242.823 33.363C243.003 33.057 243.153 32.733 243.273 32.391C243.399 32.043 243.495 31.686 243.561 31.32C243.627 30.948 243.66 30.582 243.66 30.222C243.66 29.508 243.531 28.965 243.273 28.593C243.015 28.221 242.652 28.035 242.184 28.035C241.896 28.035 241.605 28.125 241.311 28.305C241.017 28.479 240.732 28.725 240.456 29.043C240.186 29.361 239.931 29.739 239.691 30.177C239.457 30.615 239.253 31.095 239.079 31.617L238.782 34.002ZM239.268 29.358C239.496 28.962 239.745 28.605 240.015 28.287C240.285 27.963 240.57 27.687 240.87 27.459C241.17 27.231 241.479 27.057 241.797 26.937C242.121 26.811 242.451 26.748 242.787 26.748C243.567 26.748 244.17 27.03 244.596 27.594C245.028 28.158 245.244 28.983 245.244 30.069C245.244 30.561 245.193 31.053 245.091 31.545C244.989 32.037 244.842 32.508 244.65 32.958C244.464 33.402 244.236 33.819 243.966 34.209C243.702 34.593 243.405 34.929 243.075 35.217C242.751 35.499 242.397 35.721 242.013 35.883C241.629 36.045 241.227 36.126 240.807 36.126C240.357 36.126 239.949 36.039 239.583 35.865C239.217 35.685 238.905 35.433 238.647 35.109L238.161 39.087H236.604L238.089 26.874H238.881C239.241 26.874 239.421 27.054 239.421 27.414L239.268 29.358ZM254.736 26.883L253.638 36H252.846C252.456 36 252.261 35.808 252.261 35.424L252.396 33.759C251.916 34.539 251.373 35.13 250.767 35.532C250.167 35.928 249.549 36.126 248.913 36.126C248.529 36.126 248.19 36.051 247.896 35.901C247.602 35.745 247.362 35.52 247.176 35.226C246.996 34.932 246.873 34.572 246.807 34.146C246.741 33.72 246.744 33.231 246.816 32.679L247.5 26.883H249.093L248.409 32.679C248.325 33.393 248.367 33.924 248.535 34.272C248.709 34.62 249.033 34.794 249.507 34.794C249.783 34.794 250.068 34.719 250.362 34.569C250.656 34.419 250.938 34.206 251.208 33.93C251.478 33.654 251.73 33.321 251.964 32.931C252.204 32.535 252.408 32.097 252.576 31.617L253.143 26.883H254.736ZM258.305 29.421C258.545 28.911 258.803 28.47 259.079 28.098C259.361 27.72 259.655 27.426 259.961 27.216C260.267 27 260.582 26.871 260.906 26.829C261.23 26.781 261.56 26.829 261.896 26.973L261.608 28.512C260.828 28.2 260.138 28.314 259.538 28.854C258.944 29.394 258.461 30.369 258.089 31.779L257.585 36H256.019L257.117 26.874H257.909C258.275 26.874 258.458 27.054 258.458 27.414L258.305 29.421ZM270.416 26.883L269.318 36H268.526C268.136 36 267.941 35.808 267.941 35.424L268.076 33.759C267.596 34.539 267.053 35.13 266.447 35.532C265.847 35.928 265.229 36.126 264.593 36.126C264.209 36.126 263.87 36.051 263.576 35.901C263.282 35.745 263.042 35.52 262.856 35.226C262.676 34.932 262.553 34.572 262.487 34.146C262.421 33.72 262.424 33.231 262.496 32.679L263.18 26.883H264.773L264.089 32.679C264.005 33.393 264.047 33.924 264.215 34.272C264.389 34.62 264.713 34.794 265.187 34.794C265.463 34.794 265.748 34.719 266.042 34.569C266.336 34.419 266.618 34.206 266.888 33.93C267.158 33.654 267.41 33.321 267.644 32.931C267.884 32.535 268.088 32.097 268.256 31.617L268.823 26.883H270.416ZM277.576 28.341C277.528 28.413 277.48 28.467 277.432 28.503C277.384 28.533 277.324 28.548 277.252 28.548C277.168 28.548 277.075 28.515 276.973 28.449C276.877 28.383 276.757 28.311 276.613 28.233C276.475 28.149 276.304 28.074 276.1 28.008C275.896 27.936 275.65 27.9 275.362 27.9C275.092 27.9 274.846 27.939 274.624 28.017C274.402 28.089 274.21 28.191 274.048 28.323C273.892 28.455 273.769 28.611 273.679 28.791C273.595 28.965 273.553 29.151 273.553 29.349C273.553 29.631 273.646 29.856 273.832 30.024C274.018 30.192 274.252 30.339 274.534 30.465C274.816 30.585 275.119 30.702 275.443 30.816C275.767 30.93 276.07 31.074 276.352 31.248C276.634 31.422 276.868 31.644 277.054 31.914C277.24 32.184 277.333 32.535 277.333 32.967C277.333 33.387 277.249 33.789 277.081 34.173C276.919 34.557 276.682 34.896 276.37 35.19C276.064 35.478 275.692 35.709 275.254 35.883C274.822 36.057 274.336 36.144 273.796 36.144C273.214 36.144 272.698 36.042 272.248 35.838C271.804 35.628 271.441 35.361 271.159 35.037L271.555 34.425C271.609 34.347 271.666 34.287 271.726 34.245C271.792 34.203 271.876 34.182 271.978 34.182C272.074 34.182 272.17 34.224 272.266 34.308C272.362 34.392 272.482 34.488 272.626 34.596C272.77 34.698 272.95 34.791 273.166 34.875C273.388 34.959 273.667 35.001 274.003 35.001C274.297 35.001 274.561 34.956 274.795 34.866C275.035 34.776 275.236 34.656 275.398 34.506C275.566 34.356 275.692 34.182 275.776 33.984C275.866 33.78 275.911 33.564 275.911 33.336C275.911 33.03 275.818 32.787 275.632 32.607C275.446 32.427 275.212 32.277 274.93 32.157C274.648 32.037 274.345 31.926 274.021 31.824C273.697 31.716 273.394 31.581 273.112 31.419C272.83 31.251 272.596 31.035 272.41 30.771C272.224 30.507 272.131 30.156 272.131 29.718C272.131 29.334 272.206 28.965 272.356 28.611C272.512 28.251 272.734 27.933 273.022 27.657C273.31 27.381 273.658 27.162 274.066 27C274.48 26.832 274.945 26.748 275.461 26.748C276.007 26.748 276.487 26.841 276.901 27.027C277.321 27.207 277.681 27.453 277.981 27.765L277.576 28.341ZM106.581 56.362C106.269 56.704 105.972 56.989 105.69 57.217C105.408 57.445 105.126 57.628 104.844 57.766C104.562 57.898 104.268 57.991 103.962 58.045C103.662 58.099 103.338 58.126 102.99 58.126C102.462 58.126 101.994 58.036 101.586 57.856C101.184 57.676 100.845 57.424 100.569 57.1C100.299 56.77 100.092 56.377 99.9478 55.921C99.8098 55.459 99.7408 54.952 99.7408 54.4C99.7408 53.662 99.8548 52.954 100.083 52.276C100.317 51.598 100.641 50.998 101.055 50.476C101.469 49.954 101.961 49.537 102.531 49.225C103.107 48.913 103.734 48.757 104.412 48.757C105.018 48.757 105.525 48.865 105.933 49.081C106.341 49.291 106.698 49.6 107.004 50.008L106.5 50.611C106.458 50.659 106.41 50.698 106.356 50.728C106.308 50.758 106.251 50.773 106.185 50.773C106.101 50.773 106.017 50.737 105.933 50.665C105.855 50.587 105.75 50.503 105.618 50.413C105.486 50.317 105.321 50.233 105.123 50.161C104.931 50.083 104.682 50.044 104.376 50.044C103.962 50.044 103.572 50.158 103.206 50.386C102.84 50.608 102.519 50.914 102.243 51.304C101.967 51.694 101.748 52.156 101.586 52.69C101.43 53.224 101.352 53.797 101.352 54.409C101.352 54.781 101.394 55.12 101.478 55.426C101.562 55.726 101.688 55.984 101.856 56.2C102.024 56.41 102.228 56.575 102.468 56.695C102.714 56.809 102.999 56.866 103.323 56.866C103.725 56.866 104.061 56.806 104.331 56.686C104.607 56.566 104.838 56.437 105.024 56.299C105.21 56.155 105.366 56.023 105.492 55.903C105.624 55.783 105.753 55.723 105.879 55.723C105.993 55.723 106.095 55.774 106.185 55.876L106.581 56.362ZM111.294 56.875C111.732 56.875 112.128 56.755 112.482 56.515C112.842 56.275 113.148 55.957 113.4 55.561C113.658 55.159 113.856 54.697 113.994 54.175C114.132 53.653 114.201 53.107 114.201 52.537C114.201 51.697 114.033 51.067 113.697 50.647C113.367 50.221 112.89 50.008 112.266 50.008C111.822 50.008 111.42 50.128 111.06 50.368C110.706 50.602 110.403 50.917 110.151 51.313C109.899 51.709 109.704 52.168 109.566 52.69C109.428 53.212 109.359 53.758 109.359 54.328C109.359 55.168 109.524 55.804 109.854 56.236C110.184 56.662 110.664 56.875 111.294 56.875ZM111.141 58.126C110.643 58.126 110.187 58.042 109.773 57.874C109.359 57.7 109.002 57.451 108.702 57.127C108.402 56.803 108.168 56.407 108 55.939C107.832 55.471 107.748 54.937 107.748 54.337C107.748 53.569 107.868 52.846 108.108 52.168C108.348 51.49 108.678 50.899 109.098 50.395C109.518 49.885 110.01 49.483 110.574 49.189C111.144 48.895 111.756 48.748 112.41 48.748C112.908 48.748 113.364 48.835 113.778 49.009C114.192 49.177 114.549 49.423 114.849 49.747C115.149 50.071 115.383 50.467 115.551 50.935C115.719 51.403 115.803 51.934 115.803 52.528C115.803 53.29 115.683 54.01 115.443 54.688C115.203 55.366 114.873 55.96 114.453 56.47C114.039 56.98 113.547 57.385 112.977 57.685C112.407 57.979 111.795 58.126 111.141 58.126ZM119.377 51.187C119.863 50.383 120.412 49.777 121.024 49.369C121.636 48.955 122.266 48.748 122.914 48.748C123.298 48.748 123.634 48.826 123.922 48.982C124.216 49.132 124.453 49.354 124.633 49.648C124.819 49.942 124.945 50.305 125.011 50.737C125.077 51.163 125.077 51.649 125.011 52.195L124.327 58H122.734L123.418 52.195C123.502 51.475 123.457 50.944 123.283 50.602C123.109 50.254 122.788 50.08 122.32 50.08C122.032 50.08 121.738 50.158 121.438 50.314C121.144 50.47 120.859 50.692 120.583 50.98C120.307 51.268 120.049 51.616 119.809 52.024C119.575 52.426 119.374 52.876 119.206 53.374L118.684 58H117.082L118.18 48.874H118.972C119.332 48.874 119.512 49.054 119.512 49.414L119.377 51.187ZM133.062 50.872C132.834 50.548 132.558 50.323 132.234 50.197C131.916 50.065 131.592 49.999 131.262 49.999C130.788 49.999 130.362 50.14 129.984 50.422C129.606 50.704 129.282 51.07 129.012 51.52C128.748 51.964 128.544 52.462 128.4 53.014C128.256 53.566 128.184 54.109 128.184 54.643C128.184 55.357 128.31 55.903 128.562 56.281C128.82 56.653 129.186 56.839 129.66 56.839C129.948 56.839 130.239 56.749 130.533 56.569C130.827 56.389 131.109 56.14 131.379 55.822C131.655 55.498 131.91 55.117 132.144 54.679C132.384 54.241 132.591 53.761 132.765 53.239L133.062 50.872ZM135.384 44.743L133.755 58H132.918C132.708 58 132.567 57.946 132.495 57.838C132.423 57.73 132.387 57.598 132.387 57.442L132.558 55.525C132.33 55.921 132.081 56.278 131.811 56.596C131.541 56.914 131.256 57.187 130.956 57.415C130.662 57.643 130.353 57.82 130.029 57.946C129.711 58.066 129.387 58.126 129.057 58.126C128.277 58.126 127.671 57.844 127.239 57.28C126.807 56.71 126.591 55.885 126.591 54.805C126.591 54.313 126.642 53.821 126.744 53.329C126.846 52.837 126.99 52.366 127.176 51.916C127.368 51.466 127.596 51.049 127.86 50.665C128.13 50.275 128.43 49.939 128.76 49.657C129.09 49.375 129.444 49.153 129.822 48.991C130.206 48.829 130.608 48.748 131.028 48.748C131.478 48.748 131.886 48.838 132.252 49.018C132.624 49.192 132.939 49.441 133.197 49.765L133.818 44.743H135.384ZM138.917 48.883L137.819 58H136.244L137.342 48.883H138.917ZM139.529 46.021C139.529 46.177 139.496 46.324 139.43 46.462C139.37 46.594 139.286 46.714 139.178 46.822C139.076 46.924 138.956 47.005 138.818 47.065C138.686 47.125 138.548 47.155 138.404 47.155C138.266 47.155 138.131 47.125 137.999 47.065C137.867 47.005 137.75 46.924 137.648 46.822C137.552 46.714 137.474 46.594 137.414 46.462C137.354 46.324 137.324 46.177 137.324 46.021C137.324 45.865 137.354 45.718 137.414 45.58C137.474 45.442 137.555 45.322 137.657 45.22C137.759 45.112 137.876 45.028 138.008 44.968C138.14 44.902 138.275 44.869 138.413 44.869C138.557 44.869 138.695 44.899 138.827 44.959C138.965 45.019 139.085 45.103 139.187 45.211C139.289 45.313 139.37 45.436 139.43 45.58C139.496 45.718 139.529 45.865 139.529 46.021ZM140.302 58L141.4 48.874H142.192C142.558 48.874 142.741 49.054 142.741 49.414L142.615 51.034C143.065 50.284 143.557 49.717 144.091 49.333C144.631 48.943 145.195 48.748 145.783 48.748C146.401 48.748 146.857 48.961 147.151 49.387C147.445 49.807 147.592 50.41 147.592 51.196C148.042 50.362 148.549 49.747 149.113 49.351C149.683 48.949 150.283 48.748 150.913 48.748C151.693 48.748 152.245 49.048 152.569 49.648C152.893 50.248 152.989 51.097 152.857 52.195L152.173 58H150.589L151.282 52.195C151.366 51.481 151.342 50.95 151.21 50.602C151.084 50.254 150.796 50.08 150.346 50.08C150.088 50.08 149.83 50.146 149.572 50.278C149.32 50.404 149.074 50.593 148.834 50.845C148.594 51.091 148.369 51.4 148.159 51.772C147.955 52.138 147.772 52.561 147.61 53.041V53.05L147.025 58H145.441L146.125 52.195C146.215 51.481 146.203 50.95 146.089 50.602C145.975 50.254 145.693 50.08 145.243 50.08C144.955 50.08 144.676 50.152 144.406 50.296C144.142 50.44 143.89 50.65 143.65 50.926C143.416 51.196 143.197 51.529 142.993 51.925C142.789 52.315 142.603 52.756 142.435 53.248L141.868 58H140.302ZM159.105 49.909C158.727 49.909 158.379 49.987 158.061 50.143C157.743 50.299 157.461 50.515 157.215 50.791C156.969 51.061 156.759 51.382 156.585 51.754C156.411 52.12 156.276 52.516 156.18 52.942C157.104 52.828 157.845 52.699 158.403 52.555C158.961 52.405 159.39 52.246 159.69 52.078C159.99 51.904 160.188 51.718 160.284 51.52C160.38 51.322 160.428 51.115 160.428 50.899C160.428 50.791 160.404 50.68 160.356 50.566C160.308 50.446 160.23 50.338 160.122 50.242C160.02 50.146 159.885 50.068 159.717 50.008C159.549 49.942 159.345 49.909 159.105 49.909ZM161.643 56.317C161.337 56.635 161.037 56.908 160.743 57.136C160.449 57.358 160.149 57.544 159.843 57.694C159.543 57.844 159.225 57.952 158.889 58.018C158.559 58.09 158.202 58.126 157.818 58.126C157.296 58.126 156.828 58.039 156.414 57.865C156 57.691 155.649 57.445 155.361 57.127C155.073 56.803 154.851 56.413 154.695 55.957C154.539 55.501 154.461 54.991 154.461 54.427C154.461 53.959 154.509 53.494 154.605 53.032C154.707 52.564 154.851 52.12 155.037 51.7C155.229 51.28 155.46 50.89 155.73 50.53C156.006 50.17 156.318 49.861 156.666 49.603C157.02 49.339 157.407 49.132 157.827 48.982C158.253 48.832 158.709 48.757 159.195 48.757C159.657 48.757 160.056 48.823 160.392 48.955C160.728 49.087 161.004 49.255 161.22 49.459C161.436 49.663 161.595 49.888 161.697 50.134C161.805 50.38 161.859 50.614 161.859 50.836C161.859 51.232 161.778 51.598 161.616 51.934C161.454 52.264 161.157 52.564 160.725 52.834C160.293 53.098 159.699 53.329 158.943 53.527C158.187 53.725 157.215 53.884 156.027 54.004C156.027 54.07 156.024 54.136 156.018 54.202C156.018 54.262 156.018 54.325 156.018 54.391C156.018 55.195 156.192 55.81 156.54 56.236C156.894 56.656 157.425 56.866 158.133 56.866C158.421 56.866 158.676 56.836 158.898 56.776C159.126 56.716 159.327 56.644 159.501 56.56C159.681 56.47 159.837 56.374 159.969 56.272C160.107 56.164 160.23 56.068 160.338 55.984C160.452 55.894 160.557 55.819 160.653 55.759C160.749 55.699 160.845 55.669 160.941 55.669C161.055 55.669 161.157 55.72 161.247 55.822L161.643 56.317ZM165.379 51.187C165.865 50.383 166.414 49.777 167.026 49.369C167.638 48.955 168.268 48.748 168.916 48.748C169.3 48.748 169.636 48.826 169.924 48.982C170.218 49.132 170.455 49.354 170.635 49.648C170.821 49.942 170.947 50.305 171.013 50.737C171.079 51.163 171.079 51.649 171.013 52.195L170.329 58H168.736L169.42 52.195C169.504 51.475 169.459 50.944 169.285 50.602C169.111 50.254 168.79 50.08 168.322 50.08C168.034 50.08 167.74 50.158 167.44 50.314C167.146 50.47 166.861 50.692 166.585 50.98C166.309 51.268 166.051 51.616 165.811 52.024C165.577 52.426 165.376 52.876 165.208 53.374L164.686 58H163.084L164.182 48.874H164.974C165.334 48.874 165.514 49.054 165.514 49.414L165.379 51.187ZM173.243 56.281C173.243 56.245 173.243 56.2 173.243 56.146C173.243 56.086 173.246 56.002 173.252 55.894C173.264 55.786 173.279 55.645 173.297 55.471C173.321 55.297 173.351 55.069 173.387 54.787L173.945 50.224H172.928C172.844 50.224 172.775 50.197 172.721 50.143C172.673 50.083 172.655 49.993 172.667 49.873L172.739 49.234L174.143 49.045L174.827 46.228C174.857 46.138 174.902 46.066 174.962 46.012C175.028 45.952 175.109 45.922 175.205 45.922H176.042L175.655 49.063H178.049L177.914 50.224H175.511L174.962 54.706C174.932 54.952 174.908 55.15 174.89 55.3C174.872 55.45 174.857 55.57 174.845 55.66C174.839 55.75 174.833 55.813 174.827 55.849C174.827 55.885 174.827 55.912 174.827 55.93C174.827 56.236 174.899 56.464 175.043 56.614C175.187 56.758 175.379 56.83 175.619 56.83C175.781 56.83 175.919 56.809 176.033 56.767C176.153 56.719 176.258 56.668 176.348 56.614C176.438 56.56 176.513 56.512 176.573 56.47C176.633 56.422 176.684 56.398 176.726 56.398C176.78 56.398 176.819 56.41 176.843 56.434C176.873 56.458 176.9 56.497 176.924 56.551L177.266 57.316C176.972 57.574 176.636 57.778 176.258 57.928C175.886 58.072 175.511 58.144 175.133 58.144C174.551 58.144 174.092 57.985 173.756 57.667C173.426 57.349 173.255 56.887 173.243 56.281ZM187.148 48.883L186.05 58H185.258C184.868 58 184.673 57.808 184.673 57.424L184.808 55.759C184.328 56.539 183.785 57.13 183.179 57.532C182.579 57.928 181.961 58.126 181.325 58.126C180.941 58.126 180.602 58.051 180.308 57.901C180.014 57.745 179.774 57.52 179.588 57.226C179.408 56.932 179.285 56.572 179.219 56.146C179.153 55.72 179.156 55.231 179.228 54.679L179.912 48.883H181.505L180.821 54.679C180.737 55.393 180.779 55.924 180.947 56.272C181.121 56.62 181.445 56.794 181.919 56.794C182.195 56.794 182.48 56.719 182.774 56.569C183.068 56.419 183.35 56.206 183.62 55.93C183.89 55.654 184.142 55.321 184.376 54.931C184.616 54.535 184.82 54.097 184.988 53.617L185.555 48.883H187.148ZM188.431 58L189.529 48.874H190.321C190.687 48.874 190.87 49.054 190.87 49.414L190.744 51.034C191.194 50.284 191.686 49.717 192.22 49.333C192.76 48.943 193.324 48.748 193.912 48.748C194.53 48.748 194.986 48.961 195.28 49.387C195.574 49.807 195.721 50.41 195.721 51.196C196.171 50.362 196.678 49.747 197.242 49.351C197.812 48.949 198.412 48.748 199.042 48.748C199.822 48.748 200.374 49.048 200.698 49.648C201.022 50.248 201.118 51.097 200.986 52.195L200.302 58H198.718L199.411 52.195C199.495 51.481 199.471 50.95 199.339 50.602C199.213 50.254 198.925 50.08 198.475 50.08C198.217 50.08 197.959 50.146 197.701 50.278C197.449 50.404 197.203 50.593 196.963 50.845C196.723 51.091 196.498 51.4 196.288 51.772C196.084 52.138 195.901 52.561 195.739 53.041V53.05L195.154 58H193.57L194.254 52.195C194.344 51.481 194.332 50.95 194.218 50.602C194.104 50.254 193.822 50.08 193.372 50.08C193.084 50.08 192.805 50.152 192.535 50.296C192.271 50.44 192.019 50.65 191.779 50.926C191.545 51.196 191.326 51.529 191.122 51.925C190.918 52.315 190.732 52.756 190.564 53.248L189.997 58H188.431ZM203.403 48.856C203.217 48.442 203.118 48.031 203.106 47.623C203.1 47.209 203.166 46.807 203.304 46.417C203.448 46.021 203.655 45.643 203.925 45.283C204.201 44.917 204.531 44.578 204.915 44.266L205.338 44.545C205.404 44.593 205.437 44.659 205.437 44.743C205.437 44.791 205.425 44.836 205.401 44.878C205.377 44.92 205.332 44.977 205.266 45.049C205.134 45.205 204.999 45.391 204.861 45.607C204.729 45.817 204.624 46.051 204.546 46.309C204.468 46.561 204.429 46.834 204.429 47.128C204.435 47.416 204.507 47.713 204.645 48.019C204.687 48.115 204.684 48.205 204.636 48.289C204.594 48.367 204.513 48.43 204.393 48.478L203.403 48.856ZM205.914 48.856C205.728 48.442 205.629 48.031 205.617 47.623C205.611 47.209 205.677 46.807 205.815 46.417C205.959 46.021 206.166 45.643 206.436 45.283C206.712 44.917 207.042 44.578 207.426 44.266L207.849 44.545C207.915 44.593 207.948 44.659 207.948 44.743C207.948 44.791 207.936 44.836 207.912 44.878C207.888 44.92 207.843 44.977 207.777 45.049C207.645 45.205 207.51 45.391 207.372 45.607C207.24 45.817 207.135 46.051 207.057 46.309C206.979 46.561 206.94 46.834 206.94 47.128C206.946 47.416 207.018 47.713 207.156 48.019C207.198 48.115 207.195 48.205 207.147 48.289C207.105 48.367 207.024 48.43 206.904 48.478L205.914 48.856Z" fill="#222224"/>
</svg>
