<svg width="374" height="74" viewBox="0 0 374 74" fill="none" xmlns="http://www.w3.org/2000/svg">
<path d="M28.296 5.984H18.12V35H10.896V5.984H0.72V0.175998H28.296V5.984ZM62.4488 0.175998V35H55.2008V20H39.8648V35H32.6168V0.175998H39.8648V14.96H55.2008V0.175998H62.4488ZM76.9898 5.816V14.768H88.6058V20.216H76.9898V29.36H91.9178V35H69.7418V0.175998H91.9178V5.816H76.9898ZM122.063 29.48C123.215 29.48 124.159 29.344 124.895 29.072C125.647 28.784 126.247 28.408 126.695 27.944C127.143 27.48 127.455 26.952 127.631 26.36C127.807 25.752 127.895 25.128 127.895 24.488C127.895 23.784 127.791 23.152 127.583 22.592C127.375 22.032 127.039 21.56 126.575 21.176C126.111 20.776 125.503 20.472 124.751 20.264C124.015 20.056 123.103 19.952 122.015 19.952H115.895V29.48H122.063ZM115.895 5.648V15.056H120.623C121.631 15.056 122.527 14.976 123.311 14.816C124.095 14.64 124.751 14.368 125.279 14C125.807 13.632 126.207 13.152 126.479 12.56C126.767 11.952 126.911 11.224 126.911 10.376C126.911 9.512 126.791 8.776 126.551 8.168C126.327 7.56 125.975 7.072 125.495 6.704C125.015 6.336 124.407 6.072 123.671 5.912C122.935 5.736 122.063 5.648 121.055 5.648H115.895ZM121.055 0.175998C123.391 0.175998 125.383 0.399998 127.031 0.847998C128.695 1.28 130.047 1.904 131.087 2.72C132.143 3.52 132.911 4.496 133.391 5.648C133.871 6.8 134.111 8.088 134.111 9.512C134.111 10.312 133.991 11.08 133.751 11.816C133.527 12.552 133.167 13.248 132.671 13.904C132.191 14.544 131.567 15.128 130.799 15.656C130.031 16.184 129.119 16.632 128.063 17C130.431 17.56 132.183 18.472 133.319 19.736C134.455 21 135.023 22.64 135.023 24.656C135.023 26.128 134.735 27.496 134.159 28.76C133.599 30.024 132.775 31.12 131.687 32.048C130.599 32.976 129.255 33.704 127.655 34.232C126.071 34.744 124.247 35 122.183 35H108.695V0.175998H121.055ZM151.419 16.664C152.587 16.664 153.595 16.52 154.443 16.232C155.291 15.928 155.987 15.52 156.531 15.008C157.075 14.48 157.475 13.864 157.731 13.16C157.987 12.456 158.115 11.688 158.115 10.856C158.115 9.208 157.563 7.928 156.459 7.016C155.371 6.104 153.707 5.648 151.467 5.648H147.723V16.664H151.419ZM168.291 35H161.787C160.571 35 159.691 34.536 159.147 33.608L152.523 22.928C152.251 22.512 151.947 22.208 151.611 22.016C151.291 21.824 150.811 21.728 150.171 21.728H147.723V35H140.523V0.175998H151.467C153.899 0.175998 155.979 0.431998 157.707 0.943999C159.435 1.44 160.851 2.136 161.955 3.032C163.059 3.928 163.867 5 164.379 6.248C164.891 7.48 165.147 8.84 165.147 10.328C165.147 11.48 164.979 12.576 164.643 13.616C164.323 14.64 163.851 15.576 163.227 16.424C162.603 17.272 161.835 18.024 160.923 18.68C160.011 19.336 158.971 19.864 157.803 20.264C158.267 20.52 158.699 20.832 159.099 21.2C159.499 21.552 159.859 21.976 160.179 22.472L168.291 35ZM190.079 21.776L186.311 11.12C186.087 10.56 185.847 9.904 185.591 9.152C185.351 8.4 185.119 7.584 184.895 6.704C184.671 7.6 184.431 8.432 184.175 9.2C183.935 9.952 183.703 10.608 183.479 11.168L179.735 21.776H190.079ZM202.175 35H196.583C195.959 35 195.447 34.856 195.047 34.568C194.663 34.264 194.375 33.88 194.183 33.416L191.831 26.768H177.959L175.607 33.416C175.447 33.816 175.167 34.184 174.767 34.52C174.367 34.84 173.863 35 173.255 35H167.615L181.223 0.175998H188.591L202.175 35ZM235.23 0.175998V35H231.51C230.95 35 230.478 34.912 230.094 34.736C229.71 34.544 229.334 34.224 228.966 33.776L211.614 11.696C211.662 12.256 211.694 12.808 211.71 13.352C211.742 13.896 211.758 14.4 211.758 14.864V35H205.398V0.175998H209.19C209.494 0.175998 209.75 0.191998 209.958 0.223997C210.182 0.239998 210.382 0.295999 210.558 0.391999C210.734 0.471999 210.902 0.583999 211.062 0.727998C211.222 0.871999 211.398 1.064 211.59 1.304L229.062 23.48C228.998 22.872 228.95 22.288 228.918 21.728C228.886 21.152 228.87 20.608 228.87 20.096V0.175998H235.23ZM273.747 17.576C273.747 20.12 273.315 22.464 272.451 24.608C271.603 26.736 270.395 28.568 268.827 30.104C267.275 31.64 265.403 32.84 263.211 33.704C261.019 34.568 258.587 35 255.915 35H242.523V0.175998H255.915C258.587 0.175998 261.019 0.607998 263.211 1.472C265.403 2.336 267.275 3.544 268.827 5.096C270.395 6.632 271.603 8.464 272.451 10.592C273.315 12.72 273.747 15.048 273.747 17.576ZM266.355 17.576C266.355 15.752 266.115 14.112 265.635 12.656C265.155 11.2 264.467 9.968 263.571 8.96C262.675 7.952 261.579 7.176 260.283 6.632C259.003 6.088 257.547 5.816 255.915 5.816H249.771V29.36H255.915C257.547 29.36 259.003 29.096 260.283 28.568C261.579 28.024 262.675 27.248 263.571 26.24C264.467 25.216 265.155 23.976 265.635 22.52C266.115 21.064 266.355 19.416 266.355 17.576ZM24.64 61.432C24.64 63.128 24.3573 64.7013 23.792 66.152C23.2373 67.592 22.448 68.84 21.424 69.896C20.4 70.952 19.168 71.7787 17.728 72.376C16.288 72.9627 14.688 73.256 12.928 73.256C11.1787 73.256 9.584 72.9627 8.144 72.376C6.704 71.7787 5.46667 70.952 4.432 69.896C3.408 68.84 2.61333 67.592 2.048 66.152C1.48267 64.7013 1.2 63.128 1.2 61.432C1.2 59.736 1.48267 58.168 2.048 56.728C2.61333 55.2773 3.408 54.024 4.432 52.968C5.46667 51.912 6.704 51.0907 8.144 50.504C9.584 49.9067 11.1787 49.608 12.928 49.608C14.1013 49.608 15.2053 49.7467 16.24 50.024C17.2747 50.2907 18.224 50.6747 19.088 51.176C19.952 51.6667 20.7253 52.2693 21.408 52.984C22.1013 53.688 22.688 54.4773 23.168 55.352C23.648 56.2267 24.0107 57.176 24.256 58.2C24.512 59.224 24.64 60.3013 24.64 61.432ZM20.24 61.432C20.24 60.1627 20.0693 59.0267 19.728 58.024C19.3867 57.0107 18.9013 56.152 18.272 55.448C17.6427 54.744 16.8747 54.2053 15.968 53.832C15.072 53.4587 14.0587 53.272 12.928 53.272C11.7973 53.272 10.7787 53.4587 9.872 53.832C8.976 54.2053 8.208 54.744 7.568 55.448C6.93867 56.152 6.45333 57.0107 6.112 58.024C5.77067 59.0267 5.6 60.1627 5.6 61.432C5.6 62.7013 5.77067 63.8427 6.112 64.856C6.45333 65.8587 6.93867 66.712 7.568 67.416C8.208 68.1093 8.976 68.6427 9.872 69.016C10.7787 69.3893 11.7973 69.576 12.928 69.576C14.0587 69.576 15.072 69.3893 15.968 69.016C16.8747 68.6427 17.6427 68.1093 18.272 67.416C18.9013 66.712 19.3867 65.8587 19.728 64.856C20.0693 63.8427 20.24 62.7013 20.24 61.432ZM32.7398 53.288V60.136H41.4118V63.576H32.7398V73H28.4198V49.864H43.0118V53.288H32.7398ZM67.0968 69.448V73H53.5448V49.864H57.8488V69.448H67.0968ZM78.8568 69.528C79.6888 69.528 80.4301 69.3893 81.0808 69.112C81.7421 68.8347 82.2968 68.4453 82.7448 67.944C83.1928 67.4427 83.5341 66.8347 83.7688 66.12C84.0141 65.4053 84.1368 64.6053 84.1368 63.72V49.864H88.4408V63.72C88.4408 65.096 88.2168 66.3707 87.7688 67.544C87.3314 68.7067 86.6968 69.7147 85.8648 70.568C85.0434 71.4107 84.0408 72.072 82.8568 72.552C81.6728 73.0213 80.3394 73.256 78.8568 73.256C77.3634 73.256 76.0248 73.0213 74.8408 72.552C73.6568 72.072 72.6488 71.4107 71.8168 70.568C70.9954 69.7147 70.3608 68.7067 69.9128 67.544C69.4754 66.3707 69.2568 65.096 69.2568 63.72V49.864H73.5608V63.704C73.5608 64.5893 73.6781 65.3893 73.9128 66.104C74.1581 66.8187 74.5048 67.432 74.9528 67.944C75.4114 68.4453 75.9661 68.8347 76.6168 69.112C77.2781 69.3893 78.0248 69.528 78.8568 69.528ZM112.095 73H107.807C107.508 73 107.268 72.9253 107.087 72.776C106.916 72.6267 106.777 72.456 106.671 72.264L101.311 63.384C101.225 63.6507 101.124 63.88 101.007 64.072L95.8708 72.264C95.7428 72.4453 95.5934 72.616 95.4227 72.776C95.2628 72.9253 95.0494 73 94.7828 73H90.7668L98.4468 61.096L91.0708 49.864H95.3588C95.6574 49.864 95.8708 49.9067 95.9988 49.992C96.1374 50.0667 96.2654 50.1947 96.3828 50.376L101.647 58.856C101.753 58.5893 101.881 58.3227 102.031 58.056L106.863 50.456C106.98 50.2533 107.108 50.104 107.247 50.008C107.385 49.912 107.561 49.864 107.775 49.864H111.887L104.447 60.92L112.095 73ZM119.084 53.288V59.704H127.18V63.016H119.084V69.56H129.356V73H114.764V49.864H129.356V53.288H119.084ZM140.162 60.872C140.972 60.872 141.676 60.7707 142.274 60.568C142.882 60.3653 143.378 60.088 143.762 59.736C144.156 59.3733 144.45 58.9467 144.642 58.456C144.834 57.9653 144.93 57.4267 144.93 56.84C144.93 55.6667 144.54 54.7653 143.762 54.136C142.994 53.5067 141.815 53.192 140.226 53.192H137.474V60.872H140.162ZM151.234 73H147.346C146.61 73 146.076 72.712 145.746 72.136L140.882 64.728C140.7 64.4507 140.498 64.2533 140.274 64.136C140.06 64.0187 139.74 63.96 139.314 63.96H137.474V73H133.17V49.864H140.226C141.794 49.864 143.138 50.0293 144.258 50.36C145.388 50.68 146.311 51.1333 147.026 51.72C147.751 52.3067 148.284 53.0107 148.626 53.832C148.967 54.6427 149.138 55.5387 149.138 56.52C149.138 57.2987 149.02 58.0347 148.786 58.728C148.562 59.4213 148.231 60.0507 147.794 60.616C147.367 61.1813 146.834 61.6773 146.194 62.104C145.564 62.5307 144.844 62.8667 144.034 63.112C144.311 63.272 144.567 63.464 144.802 63.688C145.036 63.9013 145.25 64.1573 145.442 64.456L151.234 73ZM158.052 73H153.732V49.864H158.052V73ZM185.296 61.432C185.296 63.128 185.014 64.7013 184.448 66.152C183.894 67.592 183.104 68.84 182.08 69.896C181.056 70.952 179.824 71.7787 178.384 72.376C176.944 72.9627 175.344 73.256 173.584 73.256C171.835 73.256 170.24 72.9627 168.8 72.376C167.36 71.7787 166.123 70.952 165.088 69.896C164.064 68.84 163.27 67.592 162.704 66.152C162.139 64.7013 161.856 63.128 161.856 61.432C161.856 59.736 162.139 58.168 162.704 56.728C163.27 55.2773 164.064 54.024 165.088 52.968C166.123 51.912 167.36 51.0907 168.8 50.504C170.24 49.9067 171.835 49.608 173.584 49.608C174.758 49.608 175.862 49.7467 176.896 50.024C177.931 50.2907 178.88 50.6747 179.744 51.176C180.608 51.6667 181.382 52.2693 182.064 52.984C182.758 53.688 183.344 54.4773 183.824 55.352C184.304 56.2267 184.667 57.176 184.912 58.2C185.168 59.224 185.296 60.3013 185.296 61.432ZM180.896 61.432C180.896 60.1627 180.726 59.0267 180.384 58.024C180.043 57.0107 179.558 56.152 178.928 55.448C178.299 54.744 177.531 54.2053 176.624 53.832C175.728 53.4587 174.715 53.272 173.584 53.272C172.454 53.272 171.435 53.4587 170.528 53.832C169.632 54.2053 168.864 54.744 168.224 55.448C167.595 56.152 167.11 57.0107 166.768 58.024C166.427 59.0267 166.256 60.1627 166.256 61.432C166.256 62.7013 166.427 63.8427 166.768 64.856C167.11 65.8587 167.595 66.712 168.224 67.416C168.864 68.1093 169.632 68.6427 170.528 69.016C171.435 69.3893 172.454 69.576 173.584 69.576C174.715 69.576 175.728 69.3893 176.624 69.016C177.531 68.6427 178.299 68.1093 178.928 67.416C179.558 66.712 180.043 65.8587 180.384 64.856C180.726 63.8427 180.896 62.7013 180.896 61.432ZM198.388 69.528C199.22 69.528 199.961 69.3893 200.612 69.112C201.273 68.8347 201.828 68.4453 202.276 67.944C202.724 67.4427 203.065 66.8347 203.3 66.12C203.545 65.4053 203.668 64.6053 203.668 63.72V49.864H207.972V63.72C207.972 65.096 207.748 66.3707 207.3 67.544C206.863 68.7067 206.228 69.7147 205.396 70.568C204.575 71.4107 203.572 72.072 202.388 72.552C201.204 73.0213 199.871 73.256 198.388 73.256C196.895 73.256 195.556 73.0213 194.372 72.552C193.188 72.072 192.18 71.4107 191.348 70.568C190.527 69.7147 189.892 68.7067 189.444 67.544C189.007 66.3707 188.788 65.096 188.788 63.72V49.864H193.092V63.704C193.092 64.5893 193.209 65.3893 193.444 66.104C193.689 66.8187 194.036 67.432 194.484 67.944C194.943 68.4453 195.497 68.8347 196.148 69.112C196.809 69.3893 197.556 69.528 198.388 69.528ZM225.146 54.072C225.018 54.296 224.879 54.4613 224.73 54.568C224.591 54.664 224.415 54.712 224.202 54.712C223.978 54.712 223.733 54.632 223.466 54.472C223.21 54.3013 222.901 54.1147 222.538 53.912C222.175 53.7093 221.749 53.528 221.258 53.368C220.778 53.1973 220.207 53.112 219.546 53.112C218.949 53.112 218.426 53.1867 217.978 53.336C217.53 53.4747 217.151 53.672 216.842 53.928C216.543 54.184 216.319 54.4933 216.17 54.856C216.021 55.208 215.946 55.5973 215.946 56.024C215.946 56.568 216.095 57.0213 216.394 57.384C216.703 57.7467 217.109 58.056 217.61 58.312C218.111 58.568 218.682 58.7973 219.322 59C219.962 59.2027 220.618 59.4213 221.29 59.656C221.962 59.88 222.618 60.1467 223.258 60.456C223.898 60.7547 224.469 61.1387 224.97 61.608C225.471 62.0667 225.871 62.632 226.17 63.304C226.479 63.976 226.634 64.792 226.634 65.752C226.634 66.7973 226.453 67.7787 226.09 68.696C225.738 69.6027 225.215 70.3973 224.522 71.08C223.839 71.752 223.002 72.2853 222.01 72.68C221.018 73.064 219.882 73.256 218.602 73.256C217.866 73.256 217.141 73.1813 216.426 73.032C215.711 72.8933 215.023 72.6907 214.362 72.424C213.711 72.1573 213.098 71.8373 212.522 71.464C211.946 71.0907 211.434 70.6747 210.986 70.216L212.25 68.152C212.357 68.0027 212.495 67.88 212.666 67.784C212.837 67.6773 213.018 67.624 213.21 67.624C213.477 67.624 213.765 67.736 214.074 67.96C214.383 68.1733 214.751 68.4133 215.178 68.68C215.605 68.9467 216.101 69.192 216.666 69.416C217.242 69.6293 217.93 69.736 218.73 69.736C219.957 69.736 220.906 69.448 221.578 68.872C222.25 68.2853 222.586 67.448 222.586 66.36C222.586 65.752 222.431 65.256 222.122 64.872C221.823 64.488 221.423 64.168 220.922 63.912C220.421 63.6453 219.85 63.4213 219.21 63.24C218.57 63.0587 217.919 62.8613 217.258 62.648C216.597 62.4347 215.946 62.1787 215.306 61.88C214.666 61.5813 214.095 61.192 213.594 60.712C213.093 60.232 212.687 59.6347 212.378 58.92C212.079 58.1947 211.93 57.304 211.93 56.248C211.93 55.4053 212.095 54.584 212.426 53.784C212.767 52.984 213.258 52.2747 213.898 51.656C214.538 51.0373 215.327 50.5413 216.266 50.168C217.205 49.7947 218.282 49.608 219.498 49.608C220.863 49.608 222.122 49.8213 223.274 50.248C224.426 50.6747 225.407 51.272 226.218 52.04L225.146 54.072Z" fill="#222222"/>
<path d="M242.49 53.288V60.136H251.162V63.576H242.49V73H238.17V49.864H252.762V53.288H242.49ZM266.613 64.264L263.797 56.568C263.658 56.2267 263.514 55.8213 263.365 55.352C263.215 54.8827 263.066 54.376 262.917 53.832C262.778 54.376 262.634 54.888 262.485 55.368C262.335 55.8373 262.191 56.248 262.053 56.6L259.253 64.264H266.613ZM274.213 73H270.885C270.511 73 270.207 72.9093 269.973 72.728C269.738 72.536 269.562 72.3013 269.444 72.024L267.717 67.304H258.133L256.405 72.024C256.319 72.2693 256.154 72.4933 255.909 72.696C255.663 72.8987 255.359 73 254.997 73H251.636L260.741 49.864H265.125L274.213 73ZM288.927 54.072C288.799 54.296 288.661 54.4613 288.511 54.568C288.373 54.664 288.197 54.712 287.983 54.712C287.759 54.712 287.514 54.632 287.247 54.472C286.991 54.3013 286.682 54.1147 286.319 53.912C285.957 53.7093 285.53 53.528 285.039 53.368C284.559 53.1973 283.989 53.112 283.327 53.112C282.73 53.112 282.207 53.1867 281.759 53.336C281.311 53.4747 280.933 53.672 280.623 53.928C280.325 54.184 280.101 54.4933 279.951 54.856C279.802 55.208 279.727 55.5973 279.727 56.024C279.727 56.568 279.877 57.0213 280.175 57.384C280.485 57.7467 280.89 58.056 281.391 58.312C281.893 58.568 282.463 58.7973 283.103 59C283.743 59.2027 284.399 59.4213 285.071 59.656C285.743 59.88 286.399 60.1467 287.039 60.456C287.679 60.7547 288.25 61.1387 288.751 61.608C289.253 62.0667 289.653 62.632 289.951 63.304C290.261 63.976 290.415 64.792 290.415 65.752C290.415 66.7973 290.234 67.7787 289.871 68.696C289.519 69.6027 288.997 70.3973 288.303 71.08C287.621 71.752 286.783 72.2853 285.791 72.68C284.799 73.064 283.663 73.256 282.383 73.256C281.647 73.256 280.922 73.1813 280.207 73.032C279.493 72.8933 278.805 72.6907 278.143 72.424C277.493 72.1573 276.879 71.8373 276.303 71.464C275.727 71.0907 275.215 70.6747 274.767 70.216L276.031 68.152C276.138 68.0027 276.277 67.88 276.447 67.784C276.618 67.6773 276.799 67.624 276.991 67.624C277.258 67.624 277.546 67.736 277.855 67.96C278.165 68.1733 278.533 68.4133 278.959 68.68C279.386 68.9467 279.882 69.192 280.447 69.416C281.023 69.6293 281.711 69.736 282.511 69.736C283.738 69.736 284.687 69.448 285.359 68.872C286.031 68.2853 286.367 67.448 286.367 66.36C286.367 65.752 286.213 65.256 285.903 64.872C285.605 64.488 285.205 64.168 284.703 63.912C284.202 63.6453 283.631 63.4213 282.991 63.24C282.351 63.0587 281.701 62.8613 281.039 62.648C280.378 62.4347 279.727 62.1787 279.087 61.88C278.447 61.5813 277.877 61.192 277.375 60.712C276.874 60.232 276.469 59.6347 276.159 58.92C275.861 58.1947 275.711 57.304 275.711 56.248C275.711 55.4053 275.877 54.584 276.207 53.784C276.549 52.984 277.039 52.2747 277.679 51.656C278.319 51.0373 279.109 50.5413 280.047 50.168C280.986 49.7947 282.063 49.608 283.279 49.608C284.645 49.608 285.903 49.8213 287.055 50.248C288.207 50.6747 289.189 51.272 289.999 52.04L288.927 54.072ZM313.674 49.864V73H309.354V62.888H298.49V73H294.17V49.864H298.49V59.816H309.354V49.864H313.674ZM323.146 73H318.826V49.864H323.146V73ZM350.39 61.432C350.39 63.128 350.107 64.7013 349.542 66.152C348.987 67.592 348.198 68.84 347.174 69.896C346.15 70.952 344.918 71.7787 343.478 72.376C342.038 72.9627 340.438 73.256 338.678 73.256C336.929 73.256 335.334 72.9627 333.894 72.376C332.454 71.7787 331.217 70.952 330.182 69.896C329.158 68.84 328.363 67.592 327.798 66.152C327.233 64.7013 326.95 63.128 326.95 61.432C326.95 59.736 327.233 58.168 327.798 56.728C328.363 55.2773 329.158 54.024 330.182 52.968C331.217 51.912 332.454 51.0907 333.894 50.504C335.334 49.9067 336.929 49.608 338.678 49.608C339.851 49.608 340.955 49.7467 341.99 50.024C343.025 50.2907 343.974 50.6747 344.838 51.176C345.702 51.6667 346.475 52.2693 347.158 52.984C347.851 53.688 348.438 54.4773 348.918 55.352C349.398 56.2267 349.761 57.176 350.006 58.2C350.262 59.224 350.39 60.3013 350.39 61.432ZM345.99 61.432C345.99 60.1627 345.819 59.0267 345.478 58.024C345.137 57.0107 344.651 56.152 344.022 55.448C343.393 54.744 342.625 54.2053 341.718 53.832C340.822 53.4587 339.809 53.272 338.678 53.272C337.547 53.272 336.529 53.4587 335.622 53.832C334.726 54.2053 333.958 54.744 333.318 55.448C332.689 56.152 332.203 57.0107 331.862 58.024C331.521 59.0267 331.35 60.1627 331.35 61.432C331.35 62.7013 331.521 63.8427 331.862 64.856C332.203 65.8587 332.689 66.712 333.318 67.416C333.958 68.1093 334.726 68.6427 335.622 69.016C336.529 69.3893 337.547 69.576 338.678 69.576C339.809 69.576 340.822 69.3893 341.718 69.016C342.625 68.6427 343.393 68.1093 344.022 67.416C344.651 66.712 345.137 65.8587 345.478 64.856C345.819 63.8427 345.99 62.7013 345.99 61.432ZM373.674 49.864V73H371.466C371.124 73 370.836 72.9467 370.602 72.84C370.378 72.7227 370.159 72.5307 369.946 72.264L357.866 56.84C357.93 57.544 357.962 58.1947 357.962 58.792V73H354.17V49.864H356.426C356.607 49.864 356.762 49.8747 356.89 49.896C357.028 49.9067 357.146 49.9387 357.242 49.992C357.348 50.0347 357.45 50.104 357.546 50.2C357.642 50.2853 357.748 50.4027 357.866 50.552L369.994 66.04C369.962 65.6667 369.935 65.2987 369.914 64.936C369.892 64.5733 369.882 64.2373 369.882 63.928V49.864H373.674Z" fill="#F16D7F"/>
</svg>
