<svg width="212" height="48" viewBox="0 0 212 48" fill="none" xmlns="http://www.w3.org/2000/svg">
<path d="M211.5 0.5H0.5V47.5H211.5V0.5Z" stroke="#FF6A6A"/>
<path d="M44.488 29.768C44.9307 29.768 45.312 29.7173 45.632 29.616C45.952 29.5147 46.2133 29.3733 46.416 29.192C46.624 29.0053 46.776 28.7867 46.872 28.536C46.968 28.28 47.016 28 47.016 27.696C47.016 27.104 46.8053 26.6373 46.384 26.296C45.9627 25.9493 45.3307 25.776 44.488 25.776H42.008V29.768H44.488ZM42.008 20.76V24.672H44.056C44.4933 24.672 44.872 24.624 45.192 24.528C45.5173 24.432 45.784 24.2987 45.992 24.128C46.2053 23.9573 46.3627 23.752 46.464 23.512C46.5653 23.2667 46.616 23 46.616 22.712C46.616 22.0347 46.4133 21.5413 46.008 21.232C45.6027 20.9173 44.9733 20.76 44.12 20.76H42.008ZM44.12 19.536C44.824 19.536 45.4293 19.6053 45.936 19.744C46.448 19.8827 46.8667 20.08 47.192 20.336C47.5227 20.592 47.7653 20.9067 47.92 21.28C48.0747 21.648 48.152 22.064 48.152 22.528C48.152 22.8107 48.1067 23.0827 48.016 23.344C47.9307 23.6 47.8 23.84 47.624 24.064C47.448 24.288 47.224 24.4907 46.952 24.672C46.6853 24.848 46.3707 24.992 46.008 25.104C46.8507 25.264 47.4827 25.5653 47.904 26.008C48.3307 26.4453 48.544 27.0213 48.544 27.736C48.544 28.2213 48.4533 28.664 48.272 29.064C48.096 29.464 47.8347 29.808 47.488 30.096C47.1467 30.384 46.7253 30.608 46.224 30.768C45.7227 30.9227 45.152 31 44.512 31H40.464V19.536H44.12ZM51.6519 24.52C51.9079 23.9653 52.2225 23.5333 52.5959 23.224C52.9692 22.9093 53.4252 22.752 53.9639 22.752C54.1345 22.752 54.2972 22.7707 54.4519 22.808C54.6119 22.8453 54.7532 22.904 54.8759 22.984L54.7719 24.048C54.7399 24.1813 54.6599 24.248 54.5319 24.248C54.4572 24.248 54.3479 24.232 54.2039 24.2C54.0599 24.168 53.8972 24.152 53.7159 24.152C53.4599 24.152 53.2305 24.1893 53.0279 24.264C52.8305 24.3387 52.6519 24.4507 52.4919 24.6C52.3372 24.744 52.1959 24.9253 52.0679 25.144C51.9452 25.3573 51.8332 25.6027 51.7319 25.88V31H50.2999V22.896H51.1159C51.2705 22.896 51.3772 22.9253 51.4359 22.984C51.4945 23.0427 51.5345 23.144 51.5559 23.288L51.6519 24.52ZM59.2159 22.768C59.8079 22.768 60.3412 22.8667 60.8159 23.064C61.2905 23.2613 61.6959 23.5413 62.0319 23.904C62.3679 24.2667 62.6239 24.7067 62.7999 25.224C62.9812 25.736 63.0719 26.3093 63.0719 26.944C63.0719 27.584 62.9812 28.16 62.7999 28.672C62.6239 29.184 62.3679 29.6213 62.0319 29.984C61.6959 30.3467 61.2905 30.6267 60.8159 30.824C60.3412 31.016 59.8079 31.112 59.2159 31.112C58.6185 31.112 58.0799 31.016 57.5999 30.824C57.1252 30.6267 56.7199 30.3467 56.3839 29.984C56.0479 29.6213 55.7892 29.184 55.6079 28.672C55.4319 28.16 55.3439 27.584 55.3439 26.944C55.3439 26.3093 55.4319 25.736 55.6079 25.224C55.7892 24.7067 56.0479 24.2667 56.3839 23.904C56.7199 23.5413 57.1252 23.2613 57.5999 23.064C58.0799 22.8667 58.6185 22.768 59.2159 22.768ZM59.2159 30C60.0159 30 60.6132 29.7333 61.0079 29.2C61.4025 28.6613 61.5999 27.912 61.5999 26.952C61.5999 25.9867 61.4025 25.2347 61.0079 24.696C60.6132 24.1573 60.0159 23.888 59.2159 23.888C58.8105 23.888 58.4559 23.9573 58.1519 24.096C57.8532 24.2347 57.6025 24.4347 57.3999 24.696C57.2025 24.9573 57.0532 25.28 56.9519 25.664C56.8559 26.0427 56.8079 26.472 56.8079 26.952C56.8079 27.912 57.0052 28.6613 57.3999 29.2C57.7999 29.7333 58.4052 30 59.2159 30ZM75.929 22.896L73.305 31H72.177C72.0383 31 71.9423 30.9093 71.889 30.728L70.097 25.232C70.0543 25.1093 70.0197 24.9867 69.993 24.864C69.9663 24.736 69.9397 24.6107 69.913 24.488C69.8863 24.6107 69.8597 24.736 69.833 24.864C69.8063 24.9867 69.7717 25.112 69.729 25.24L67.905 30.728C67.857 30.9093 67.7503 31 67.585 31H66.513L63.889 22.896H65.009C65.121 22.896 65.2143 22.9253 65.289 22.984C65.369 23.0427 65.4223 23.112 65.449 23.192L67.001 28.408C67.0917 28.792 67.1637 29.1547 67.217 29.496C67.265 29.32 67.313 29.1413 67.361 28.96C67.4143 28.7787 67.4703 28.5947 67.529 28.408L69.241 23.16C69.2677 23.08 69.313 23.0133 69.377 22.96C69.4463 22.9067 69.529 22.88 69.625 22.88H70.249C70.3557 22.88 70.4437 22.9067 70.513 22.96C70.5823 23.0133 70.6303 23.08 70.657 23.16L72.329 28.408C72.3877 28.5947 72.441 28.7787 72.489 28.96C72.537 29.1413 72.5823 29.32 72.625 29.496C72.6517 29.32 72.6837 29.144 72.721 28.968C72.7637 28.7867 72.809 28.6 72.857 28.408L74.441 23.192C74.4677 23.1067 74.5183 23.0373 74.593 22.984C74.6677 22.9253 74.7557 22.896 74.857 22.896H75.929ZM81.973 24.232C81.909 24.3493 81.8103 24.408 81.677 24.408C81.597 24.408 81.5063 24.3787 81.405 24.32C81.3037 24.2613 81.1783 24.1973 81.029 24.128C80.885 24.0533 80.7117 23.9867 80.509 23.928C80.3063 23.864 80.0663 23.832 79.789 23.832C79.549 23.832 79.333 23.864 79.141 23.928C78.949 23.9867 78.7837 24.0693 78.645 24.176C78.5117 24.2827 78.4077 24.408 78.333 24.552C78.2637 24.6907 78.229 24.8427 78.229 25.008C78.229 25.216 78.2877 25.3893 78.405 25.528C78.5277 25.6667 78.6877 25.7867 78.885 25.888C79.0823 25.9893 79.3063 26.08 79.557 26.16C79.8077 26.2347 80.0637 26.3173 80.325 26.408C80.5917 26.4933 80.8503 26.5893 81.101 26.696C81.3517 26.8027 81.5757 26.936 81.773 27.096C81.9703 27.256 82.1277 27.4533 82.245 27.688C82.3677 27.9173 82.429 28.1947 82.429 28.52C82.429 28.8933 82.3623 29.24 82.229 29.56C82.0957 29.8747 81.8983 30.1493 81.637 30.384C81.3757 30.6133 81.0557 30.7947 80.677 30.928C80.2983 31.0613 79.861 31.128 79.365 31.128C78.7997 31.128 78.2877 31.0373 77.829 30.856C77.3703 30.6693 76.981 30.432 76.661 30.144L76.997 29.6C77.0397 29.5307 77.0903 29.4773 77.149 29.44C77.2077 29.4027 77.2823 29.384 77.373 29.384C77.469 29.384 77.5703 29.4213 77.677 29.496C77.7837 29.5707 77.9117 29.6533 78.061 29.744C78.2157 29.8347 78.4023 29.9173 78.621 29.992C78.8397 30.0667 79.1117 30.104 79.437 30.104C79.7143 30.104 79.957 30.0693 80.165 30C80.373 29.9253 80.5463 29.8267 80.685 29.704C80.8237 29.5813 80.925 29.44 80.989 29.28C81.0583 29.12 81.093 28.9493 81.093 28.768C81.093 28.544 81.0317 28.36 80.909 28.216C80.7917 28.0667 80.6343 27.9413 80.437 27.84C80.2397 27.7333 80.013 27.6427 79.757 27.568C79.5063 27.488 79.2477 27.4053 78.981 27.32C78.7197 27.2347 78.461 27.1387 78.205 27.032C77.9543 26.92 77.7303 26.7813 77.533 26.616C77.3357 26.4507 77.1757 26.248 77.053 26.008C76.9357 25.7627 76.877 25.4667 76.877 25.12C76.877 24.8107 76.941 24.5147 77.069 24.232C77.197 23.944 77.3837 23.6933 77.629 23.48C77.8743 23.2613 78.1757 23.088 78.533 22.96C78.8903 22.832 79.2983 22.768 79.757 22.768C80.2903 22.768 80.7677 22.8533 81.189 23.024C81.6157 23.1893 81.9837 23.4187 82.293 23.712L81.973 24.232ZM89.5989 26.064C89.5989 25.7333 89.5509 25.432 89.4549 25.16C89.3642 24.8827 89.2282 24.6453 89.0469 24.448C88.8709 24.2453 88.6549 24.0907 88.3989 23.984C88.1429 23.872 87.8522 23.816 87.5269 23.816C86.8442 23.816 86.3029 24.016 85.9029 24.416C85.5082 24.8107 85.2629 25.36 85.1669 26.064H89.5989ZM90.7509 29.864C90.5749 30.0773 90.3642 30.264 90.1189 30.424C89.8735 30.5787 89.6095 30.7067 89.3269 30.808C89.0495 30.9093 88.7615 30.984 88.4629 31.032C88.1642 31.0853 87.8682 31.112 87.5749 31.112C87.0149 31.112 86.4975 31.0187 86.0229 30.832C85.5535 30.64 85.1455 30.3627 84.7989 30C84.4575 29.632 84.1909 29.1787 83.9989 28.64C83.8069 28.1013 83.7109 27.4827 83.7109 26.784C83.7109 26.2187 83.7962 25.6907 83.9669 25.2C84.1429 24.7093 84.3935 24.2853 84.7189 23.928C85.0442 23.5653 85.4415 23.2827 85.9109 23.08C86.3802 22.872 86.9082 22.768 87.4949 22.768C87.9802 22.768 88.4282 22.8507 88.8389 23.016C89.2549 23.176 89.6122 23.4107 89.9109 23.72C90.2149 24.024 90.4522 24.4027 90.6229 24.856C90.7935 25.304 90.8789 25.816 90.8789 26.392C90.8789 26.616 90.8549 26.7653 90.8069 26.84C90.7589 26.9147 90.6682 26.952 90.5349 26.952H85.1189C85.1349 27.464 85.2042 27.9093 85.3269 28.288C85.4549 28.6667 85.6309 28.984 85.8549 29.24C86.0789 29.4907 86.3455 29.68 86.6549 29.808C86.9642 29.9307 87.3109 29.992 87.6949 29.992C88.0522 29.992 88.3589 29.952 88.6149 29.872C88.8762 29.7867 89.1002 29.696 89.2869 29.6C89.4735 29.504 89.6282 29.416 89.7509 29.336C89.8789 29.2507 89.9882 29.208 90.0789 29.208C90.1962 29.208 90.2869 29.2533 90.3509 29.344L90.7509 29.864ZM102.615 26.744L100.815 22.08C100.761 21.9413 100.705 21.7813 100.647 21.6C100.588 21.4133 100.532 21.216 100.479 21.008C100.367 21.44 100.252 21.8 100.135 22.088L98.3345 26.744H102.615ZM105.847 31H104.647C104.508 31 104.396 30.9653 104.311 30.896C104.225 30.8267 104.161 30.7387 104.119 30.632L103.047 27.864H97.9025L96.8305 30.632C96.7985 30.728 96.7372 30.8133 96.6465 30.888C96.5558 30.9627 96.4438 31 96.3105 31H95.1105L99.6945 19.536H101.263L105.847 31ZM108.459 19.216V31H107.035V19.216H108.459ZM112.241 19.216V31H110.817V19.216H112.241ZM122.364 25.48C122.806 25.48 123.196 25.4213 123.532 25.304C123.873 25.1867 124.158 25.024 124.388 24.816C124.622 24.6027 124.798 24.3493 124.916 24.056C125.033 23.7627 125.092 23.44 125.092 23.088C125.092 22.3573 124.865 21.7867 124.412 21.376C123.964 20.9653 123.281 20.76 122.364 20.76H120.524V25.48H122.364ZM122.364 19.536C123.089 19.536 123.718 19.6213 124.252 19.792C124.79 19.9573 125.236 20.1947 125.588 20.504C125.94 20.8133 126.201 21.1867 126.372 21.624C126.548 22.0613 126.636 22.5493 126.636 23.088C126.636 23.6213 126.542 24.1093 126.356 24.552C126.169 24.9947 125.894 25.376 125.532 25.696C125.174 26.016 124.729 26.2667 124.196 26.448C123.668 26.624 123.057 26.712 122.364 26.712H120.524V31H118.98V19.536H122.364ZM129.449 24.52C129.705 23.9653 130.019 23.5333 130.393 23.224C130.766 22.9093 131.222 22.752 131.761 22.752C131.931 22.752 132.094 22.7707 132.249 22.808C132.409 22.8453 132.55 22.904 132.673 22.984L132.569 24.048C132.537 24.1813 132.457 24.248 132.329 24.248C132.254 24.248 132.145 24.232 132.001 24.2C131.857 24.168 131.694 24.152 131.513 24.152C131.257 24.152 131.027 24.1893 130.825 24.264C130.627 24.3387 130.449 24.4507 130.289 24.6C130.134 24.744 129.993 24.9253 129.865 25.144C129.742 25.3573 129.63 25.6027 129.529 25.88V31H128.097V22.896H128.913C129.067 22.896 129.174 22.9253 129.233 22.984C129.291 23.0427 129.331 23.144 129.353 23.288L129.449 24.52ZM137.013 22.768C137.605 22.768 138.138 22.8667 138.613 23.064C139.087 23.2613 139.493 23.5413 139.829 23.904C140.165 24.2667 140.421 24.7067 140.597 25.224C140.778 25.736 140.869 26.3093 140.869 26.944C140.869 27.584 140.778 28.16 140.597 28.672C140.421 29.184 140.165 29.6213 139.829 29.984C139.493 30.3467 139.087 30.6267 138.613 30.824C138.138 31.016 137.605 31.112 137.013 31.112C136.415 31.112 135.877 31.016 135.397 30.824C134.922 30.6267 134.517 30.3467 134.181 29.984C133.845 29.6213 133.586 29.184 133.405 28.672C133.229 28.16 133.141 27.584 133.141 26.944C133.141 26.3093 133.229 25.736 133.405 25.224C133.586 24.7067 133.845 24.2667 134.181 23.904C134.517 23.5413 134.922 23.2613 135.397 23.064C135.877 22.8667 136.415 22.768 137.013 22.768ZM137.013 30C137.813 30 138.41 29.7333 138.805 29.2C139.199 28.6613 139.397 27.912 139.397 26.952C139.397 25.9867 139.199 25.2347 138.805 24.696C138.41 24.1573 137.813 23.888 137.013 23.888C136.607 23.888 136.253 23.9573 135.949 24.096C135.65 24.2347 135.399 24.4347 135.197 24.696C134.999 24.9573 134.85 25.28 134.749 25.664C134.653 26.0427 134.605 26.472 134.605 26.952C134.605 27.912 134.802 28.6613 135.197 29.2C135.597 29.7333 136.202 30 137.013 30ZM147.955 24.824C147.688 24.4667 147.4 24.2187 147.091 24.08C146.782 23.936 146.435 23.864 146.051 23.864C145.299 23.864 144.72 24.1333 144.315 24.672C143.91 25.2107 143.707 25.9787 143.707 26.976C143.707 27.504 143.752 27.9573 143.843 28.336C143.934 28.7093 144.067 29.0187 144.243 29.264C144.419 29.504 144.635 29.68 144.891 29.792C145.147 29.904 145.438 29.96 145.763 29.96C146.232 29.96 146.64 29.8533 146.987 29.64C147.339 29.4267 147.662 29.1253 147.955 28.736V24.824ZM149.379 19.216V31H148.531C148.328 31 148.2 30.9013 148.147 30.704L148.019 29.72C147.672 30.136 147.278 30.472 146.835 30.728C146.392 30.984 145.88 31.112 145.299 31.112C144.835 31.112 144.414 31.024 144.035 30.848C143.656 30.6667 143.334 30.4027 143.067 30.056C142.8 29.7093 142.595 29.2773 142.451 28.76C142.307 28.2427 142.235 27.648 142.235 26.976C142.235 26.3787 142.315 25.824 142.475 25.312C142.635 24.7947 142.864 24.3467 143.163 23.968C143.462 23.5893 143.827 23.2933 144.259 23.08C144.696 22.8613 145.187 22.752 145.731 22.752C146.227 22.752 146.651 22.8373 147.003 23.008C147.36 23.1733 147.678 23.4053 147.955 23.704V19.216H149.379ZM158.292 22.896V31H157.444C157.241 31 157.113 30.9013 157.06 30.704L156.948 29.832C156.596 30.2213 156.201 30.536 155.764 30.776C155.327 31.0107 154.825 31.128 154.26 31.128C153.817 31.128 153.425 31.056 153.084 30.912C152.748 30.7627 152.465 30.5547 152.236 30.288C152.007 30.0213 151.833 29.6987 151.716 29.32C151.604 28.9413 151.548 28.5227 151.548 28.064V22.896H152.972V28.064C152.972 28.6773 153.111 29.152 153.388 29.488C153.671 29.824 154.1 29.992 154.676 29.992C155.097 29.992 155.489 29.8933 155.852 29.696C156.22 29.4933 156.559 29.216 156.868 28.864V22.896H158.292ZM166.19 24.336C166.147 24.3947 166.105 24.44 166.062 24.472C166.019 24.504 165.961 24.52 165.886 24.52C165.806 24.52 165.718 24.488 165.622 24.424C165.526 24.3547 165.406 24.28 165.262 24.2C165.123 24.12 164.95 24.048 164.742 23.984C164.539 23.9147 164.289 23.88 163.99 23.88C163.59 23.88 163.238 23.952 162.934 24.096C162.63 24.2347 162.374 24.4373 162.166 24.704C161.963 24.9707 161.809 25.2933 161.702 25.672C161.601 26.0507 161.55 26.4747 161.55 26.944C161.55 27.4347 161.606 27.872 161.718 28.256C161.83 28.6347 161.987 28.9547 162.19 29.216C162.398 29.472 162.646 29.6693 162.934 29.808C163.227 29.9413 163.555 30.008 163.918 30.008C164.265 30.008 164.55 29.968 164.774 29.888C164.998 29.8027 165.182 29.7093 165.326 29.608C165.475 29.5067 165.598 29.416 165.694 29.336C165.795 29.2507 165.894 29.208 165.99 29.208C166.107 29.208 166.198 29.2533 166.262 29.344L166.662 29.864C166.486 30.0827 166.286 30.2693 166.062 30.424C165.838 30.5787 165.595 30.7093 165.334 30.816C165.078 30.9173 164.809 30.992 164.526 31.04C164.243 31.088 163.955 31.112 163.662 31.112C163.155 31.112 162.683 31.0187 162.246 30.832C161.814 30.6453 161.438 30.376 161.118 30.024C160.798 29.6667 160.547 29.2293 160.366 28.712C160.185 28.1947 160.094 27.6053 160.094 26.944C160.094 26.3413 160.177 25.784 160.342 25.272C160.513 24.76 160.758 24.32 161.078 23.952C161.403 23.5787 161.801 23.288 162.27 23.08C162.745 22.872 163.289 22.768 163.902 22.768C164.473 22.768 164.974 22.8613 165.406 23.048C165.843 23.2293 166.23 23.488 166.566 23.824L166.19 24.336ZM170.679 31.128C170.039 31.128 169.545 30.9493 169.199 30.592C168.857 30.2347 168.687 29.72 168.687 29.048V24.088H167.711C167.625 24.088 167.553 24.064 167.495 24.016C167.436 23.9627 167.407 23.8827 167.407 23.776V23.208L168.735 23.04L169.062 20.536C169.079 20.456 169.113 20.392 169.167 20.344C169.225 20.2907 169.3 20.264 169.391 20.264H170.111V23.056H172.455V24.088H170.111V28.952C170.111 29.2933 170.193 29.5467 170.359 29.712C170.524 29.8773 170.737 29.96 170.999 29.96C171.148 29.96 171.276 29.9413 171.383 29.904C171.495 29.8613 171.591 29.816 171.671 29.768C171.751 29.72 171.817 29.6773 171.871 29.64C171.929 29.5973 171.98 29.576 172.023 29.576C172.097 29.576 172.164 29.6213 172.223 29.712L172.639 30.392C172.393 30.6213 172.097 30.8027 171.751 30.936C171.404 31.064 171.047 31.128 170.679 31.128Z" fill="#F26376"/>
</svg>
