<svg width="106" height="42" viewBox="0 0 106 42" fill="none" xmlns="http://www.w3.org/2000/svg">
<path d="M24.7364 0.535999V12H23.1844V6.784H17.0004V12H15.4484V0.535999H17.0004V5.648H23.1844V0.535999H24.7364ZM38.2591 6.272C38.2591 7.13067 38.1231 7.92 37.8511 8.64C37.5791 9.35467 37.1951 9.97067 36.6991 10.488C36.2031 11.0053 35.6058 11.408 34.9071 11.696C34.2138 11.9787 33.4458 12.12 32.6031 12.12C31.7605 12.12 30.9925 11.9787 30.2991 11.696C29.6058 11.408 29.0111 11.0053 28.5151 10.488C28.0191 9.97067 27.6351 9.35467 27.3631 8.64C27.0911 7.92 26.9551 7.13067 26.9551 6.272C26.9551 5.41333 27.0911 4.62667 27.3631 3.912C27.6351 3.192 28.0191 2.57333 28.5151 2.056C29.0111 1.53333 29.6058 1.128 30.2991 0.839999C30.9925 0.551999 31.7605 0.407999 32.6031 0.407999C33.4458 0.407999 34.2138 0.551999 34.9071 0.839999C35.6058 1.128 36.2031 1.53333 36.6991 2.056C37.1951 2.57333 37.5791 3.192 37.8511 3.912C38.1231 4.62667 38.2591 5.41333 38.2591 6.272ZM36.6671 6.272C36.6671 5.568 36.5711 4.936 36.3791 4.376C36.1871 3.816 35.9151 3.344 35.5631 2.96C35.2111 2.57067 34.7845 2.272 34.2831 2.064C33.7818 1.856 33.2218 1.752 32.6031 1.752C31.9898 1.752 31.4325 1.856 30.9311 2.064C30.4298 2.272 30.0005 2.57067 29.6431 2.96C29.2911 3.344 29.0191 3.816 28.8271 4.376C28.6351 4.936 28.5391 5.568 28.5391 6.272C28.5391 6.976 28.6351 7.608 28.8271 8.168C29.0191 8.72267 29.2911 9.19467 29.6431 9.584C30.0005 9.968 30.4298 10.264 30.9311 10.472C31.4325 10.6747 31.9898 10.776 32.6031 10.776C33.2218 10.776 33.7818 10.6747 34.2831 10.472C34.7845 10.264 35.2111 9.968 35.5631 9.584C35.9151 9.19467 36.1871 8.72267 36.3791 8.168C36.5711 7.608 36.6671 6.976 36.6671 6.272ZM47.716 1.84H44.004V12H42.46V1.84H38.74V0.535999H47.716V1.84ZM62.9625 6.272C62.9625 7.13067 62.8265 7.912 62.5545 8.616C62.2825 9.32 61.8985 9.92267 61.4025 10.424C60.9065 10.9253 60.3092 11.3147 59.6105 11.592C58.9172 11.864 58.1492 12 57.3065 12H53.0265V0.535999H57.3065C58.1492 0.535999 58.9172 0.674666 59.6105 0.952C60.3092 1.224 60.9065 1.61333 61.4025 2.12C61.8985 2.62133 62.2825 3.224 62.5545 3.928C62.8265 4.632 62.9625 5.41333 62.9625 6.272ZM61.3705 6.272C61.3705 5.568 61.2745 4.93867 61.0825 4.384C60.8905 3.82933 60.6185 3.36 60.2665 2.976C59.9145 2.592 59.4878 2.29867 58.9865 2.096C58.4852 1.89333 57.9252 1.792 57.3065 1.792H54.5785V10.744H57.3065C57.9252 10.744 58.4852 10.6427 58.9865 10.44C59.4878 10.2373 59.9145 9.94667 60.2665 9.568C60.6185 9.184 60.8905 8.71467 61.0825 8.16C61.2745 7.60533 61.3705 6.976 61.3705 6.272ZM72.2704 10.736L72.2624 12H65.1984V0.535999H72.2624V1.8H66.7504V5.608H71.2144V6.824H66.7504V10.736H72.2704ZM80.5208 7.744L78.7208 3.08C78.6674 2.94133 78.6114 2.78133 78.5528 2.6C78.4941 2.41333 78.4381 2.216 78.3848 2.008C78.2728 2.44 78.1581 2.8 78.0408 3.088L76.2408 7.744H80.5208ZM83.7528 12H82.5528C82.4141 12 82.3021 11.9653 82.2168 11.896C82.1314 11.8267 82.0674 11.7387 82.0248 11.632L80.9528 8.864H75.8088L74.7368 11.632C74.7048 11.728 74.6434 11.8133 74.5528 11.888C74.4621 11.9627 74.3501 12 74.2168 12H73.0168L77.6008 0.535999H79.1688L83.7528 12ZM91.7649 10.696V12H85.2609V0.535999H86.8049V10.696H91.7649Z" fill="white"/>
<path d="M3.64466 26.216V31.352H10.1487V33.932H3.64466V41H0.404656V23.648H11.3487V26.216H3.64466ZM30.3823 32.324C30.3823 33.596 30.1703 34.776 29.7463 35.864C29.3303 36.944 28.7383 37.88 27.9703 38.672C27.2023 39.464 26.2783 40.084 25.1983 40.532C24.1183 40.972 22.9183 41.192 21.5983 41.192C20.2863 41.192 19.0903 40.972 18.0103 40.532C16.9303 40.084 16.0023 39.464 15.2263 38.672C14.4583 37.88 13.8623 36.944 13.4383 35.864C13.0143 34.776 12.8023 33.596 12.8023 32.324C12.8023 31.052 13.0143 29.876 13.4383 28.796C13.8623 27.708 14.4583 26.768 15.2263 25.976C16.0023 25.184 16.9303 24.568 18.0103 24.128C19.0903 23.68 20.2863 23.456 21.5983 23.456C22.4783 23.456 23.3063 23.56 24.0823 23.768C24.8583 23.968 25.5703 24.256 26.2183 24.632C26.8663 25 27.4463 25.452 27.9583 25.988C28.4783 26.516 28.9183 27.108 29.2783 27.764C29.6383 28.42 29.9103 29.132 30.0943 29.9C30.2863 30.668 30.3823 31.476 30.3823 32.324ZM27.0823 32.324C27.0823 31.372 26.9543 30.52 26.6983 29.768C26.4423 29.008 26.0783 28.364 25.6063 27.836C25.1343 27.308 24.5583 26.904 23.8783 26.624C23.2063 26.344 22.4463 26.204 21.5983 26.204C20.7503 26.204 19.9863 26.344 19.3063 26.624C18.6343 26.904 18.0583 27.308 17.5783 27.836C17.1063 28.364 16.7423 29.008 16.4863 29.768C16.2303 30.52 16.1023 31.372 16.1023 32.324C16.1023 33.276 16.2303 34.132 16.4863 34.892C16.7423 35.644 17.1063 36.284 17.5783 36.812C18.0583 37.332 18.6343 37.732 19.3063 38.012C19.9863 38.292 20.7503 38.432 21.5983 38.432C22.4463 38.432 23.2063 38.292 23.8783 38.012C24.5583 37.732 25.1343 37.332 25.6063 36.812C26.0783 36.284 26.4423 35.644 26.6983 34.892C26.9543 34.132 27.0823 33.276 27.0823 32.324ZM38.4612 31.904C39.0692 31.904 39.5972 31.828 40.0452 31.676C40.5012 31.524 40.8732 31.316 41.1612 31.052C41.4572 30.78 41.6772 30.46 41.8212 30.092C41.9652 29.724 42.0372 29.32 42.0372 28.88C42.0372 28 41.7452 27.324 41.1612 26.852C40.5852 26.38 39.7012 26.144 38.5092 26.144H36.4452V31.904H38.4612ZM46.7652 41H43.8492C43.2972 41 42.8972 40.784 42.6492 40.352L39.0012 34.796C38.8652 34.588 38.7132 34.44 38.5452 34.352C38.3852 34.264 38.1452 34.22 37.8252 34.22H36.4452V41H33.2172V23.648H38.5092C39.6852 23.648 40.6932 23.772 41.5332 24.02C42.3812 24.26 43.0732 24.6 43.6092 25.04C44.1532 25.48 44.5532 26.008 44.8092 26.624C45.0652 27.232 45.1932 27.904 45.1932 28.64C45.1932 29.224 45.1052 29.776 44.9292 30.296C44.7612 30.816 44.5132 31.288 44.1852 31.712C43.8652 32.136 43.4652 32.508 42.9852 32.828C42.5132 33.148 41.9732 33.4 41.3652 33.584C41.5732 33.704 41.7652 33.848 41.9412 34.016C42.1172 34.176 42.2772 34.368 42.4212 34.592L46.7652 41ZM73.291 23.648V41H70.447V29.792C70.447 29.344 70.471 28.86 70.519 28.34L65.275 38.192C65.027 38.664 64.647 38.9 64.135 38.9H63.679C63.167 38.9 62.787 38.664 62.539 38.192L57.235 28.304C57.259 28.568 57.279 28.828 57.295 29.084C57.311 29.34 57.319 29.576 57.319 29.792V41H54.475V23.648H56.911C57.055 23.648 57.179 23.652 57.283 23.66C57.387 23.668 57.479 23.688 57.559 23.72C57.647 23.752 57.723 23.804 57.787 23.876C57.859 23.948 57.927 24.044 57.991 24.164L63.187 33.8C63.323 34.056 63.447 34.32 63.559 34.592C63.679 34.864 63.795 35.144 63.907 35.432C64.019 35.136 64.135 34.852 64.255 34.58C64.375 34.3 64.503 34.032 64.639 33.776L69.763 24.164C69.827 24.044 69.895 23.948 69.967 23.876C70.039 23.804 70.115 23.752 70.195 23.72C70.283 23.688 70.379 23.668 70.483 23.66C70.587 23.652 70.711 23.648 70.855 23.648H73.291ZM80.4025 26.216V31.028H86.4745V33.512H80.4025V38.42H88.1065V41H77.1625V23.648H88.1065V26.216H80.4025ZM105.595 23.648V41H103.939C103.683 41 103.467 40.96 103.291 40.88C103.123 40.792 102.959 40.648 102.799 40.448L93.7392 28.88C93.7872 29.408 93.8112 29.896 93.8112 30.344V41H90.9672V23.648H92.6592C92.7952 23.648 92.9112 23.656 93.0072 23.672C93.1112 23.68 93.1992 23.704 93.2712 23.744C93.3512 23.776 93.4272 23.828 93.4992 23.9C93.5712 23.964 93.6512 24.052 93.7392 24.164L102.835 35.78C102.811 35.5 102.791 35.224 102.775 34.952C102.759 34.68 102.751 34.428 102.751 34.196V23.648H105.595Z" fill="#F16D7F"/>
</svg>
